<?xml version="1.0" encoding="utf-8"?>
<!-- Generator: Adobe Illustrator 24.1.0, SVG Export Plug-In . SVG Version: 6.00 Build 0)  -->
<svg version="1.1" id="Layer_1" xmlns="http://www.w3.org/2000/svg" xmlns:xlink="http://www.w3.org/1999/xlink" x="0px" y="0px"
	 viewBox="0 0 22 24" style="enable-background:new 0 0 22 24;" xml:space="preserve">
<style type="text/css">
	.st0{fill-rule:evenodd;clip-rule:evenodd;fill:#FFFFFF;}
</style>
<g id="Symbols">
	<g id="Left-Navigation" transform="translate(-70.000000, -256.000000)">
		<path id="Analytics" class="st0" d="M72.4,256c-1.3,0-2.4,1.1-2.4,2.4v0.8v2.8c0,1.3,1.1,2.4,2.4,2.4h4.8c1.3,0,2.4-1.1,2.4-2.4
			v-3.6c0-1.3-1.1-2.4-2.4-2.4L72.4,256L72.4,256z M72.4,258.4h4.8v3.6h-4.8v-2.8V258.4z M84.4,256c-1.3,0-2.4,1.1-2.4,2.4v2.4v6
			c0,1.3,1.1,2.4,2.4,2.4h4.8c1.3,0,2.4-1.1,2.4-2.4v-8.4c0-1.3-1.1-2.4-2.4-2.4H84.4z M84.4,258.4h4.8v8.4h-4.8v-6V258.4z M82,274
			c0-1.3,1.1-2.4,2.4-2.4h4.8c1.3,0,2.4,1.1,2.4,2.4v3.6c0,1.3-1.1,2.4-2.4,2.4h-4.8c-1.3,0-2.4-1.1-2.4-2.4v-2.8V274z M89.2,274
			h-4.8v0.8v2.8h4.8V274z M72.4,266.8c-1.3,0-2.4,1.1-2.4,2.4v2.4v6c0,1.3,1.1,2.4,2.4,2.4h4.8c1.3,0,2.4-1.1,2.4-2.4v-8.4
			c0-1.3-1.1-2.4-2.4-2.4H72.4z M72.4,269.2h4.8v8.4h-4.8v-6V269.2z"/>
	</g>
</g>
</svg>
