<?xml version="1.0" encoding="utf-8"?>
<!-- Generator: Adobe Illustrator 24.1.0, SVG Export Plug-In . SVG Version: 6.00 Build 0)  -->
<svg version="1.1" id="Layer_1" xmlns="http://www.w3.org/2000/svg" xmlns:xlink="http://www.w3.org/1999/xlink" x="0px" y="0px"
	 viewBox="0 0 26 26" style="enable-background:new 0 0 26 26;" xml:space="preserve">
<style type="text/css">
	.st0{fill-rule:evenodd;clip-rule:evenodd;fill:#FFFFFF;}
</style>
<g id="Symbols">
	<g id="Left-Navigation" transform="translate(-68.000000, -446.000000)">
		<path id="Content" class="st0" d="M82.3,447.3c0-0.7-0.6-1.3-1.3-1.3s-1.3,0.6-1.3,1.3v2.6h-6.5h-3.9c-0.7,0-1.3,0.6-1.3,1.3
			s0.6,1.3,1.3,1.3h1.3v13c0,1.4,1.2,2.6,2.6,2.6h6.5v1.3h-2.6c-0.7,0-1.3,0.6-1.3,1.3s0.6,1.3,1.3,1.3H81h3.9
			c0.7,0,1.3-0.6,1.3-1.3s-0.6-1.3-1.3-1.3h-2.6v-1.3h6.5c1.4,0,2.6-1.2,2.6-2.6v-13h1.3c0.7,0,1.3-0.6,1.3-1.3
			c0-0.7-0.6-1.3-1.3-1.3h-3.9h-6.5V447.3z M81,452.5h-5.2h-2.6v2.6v7.8v2.6h2.6H81h5.2h2.6v-2.6v-7.8v-2.6h-2.6H81z M75.8,456.4
			c0-0.7,0.6-1.3,1.3-1.3h4.6c0.7,0,1.3,0.6,1.3,1.3c0,0.7-0.6,1.3-1.3,1.3h-4.6C76.4,457.7,75.8,457.1,75.8,456.4z M77.1,460.3
			c-0.7,0-1.3,0.6-1.3,1.3s0.6,1.3,1.3,1.3h7.8c0.7,0,1.3-0.6,1.3-1.3s-0.6-1.3-1.3-1.3H77.1z"/>
	</g>
</g>
</svg>
