<?xml version="1.0" encoding="utf-8"?>
<!-- Generator: Adobe Illustrator 24.1.0, SVG Export Plug-In . SVG Version: 6.00 Build 0)  -->
<svg version="1.1" id="Layer_1" xmlns="http://www.w3.org/2000/svg" xmlns:xlink="http://www.w3.org/1999/xlink" x="0px" y="0px"
	 viewBox="0 0 27 24" style="enable-background:new 0 0 27 24;" xml:space="preserve">
<style type="text/css">
	.st0{fill:#FFFFFF;}
</style>
<path class="st0" d="M25.9,16.7c-0.6-1.1-2.1-3-4.2-3.9c0.5-0.1,1-0.4,1.4-0.9c1-1.3,0.3-2.4-0.2-3.1l-0.2-0.3
	c-0.1-0.1-0.2-0.3-0.3-0.5c-0.8-1.3-0.8-1.8-0.9-2.5l0-0.4c-0.2-2.9-2-4.6-5-4.9l0,0l0,0c-2.1,0.1-3.7,1.1-4.8,2.9
	c-0.4-0.1-0.8-0.1-1.3-0.1c-3.3,0-4.8,2.2-5.2,3.5C5,7.4,5,8.1,5,8.5C4.8,8.7,4.6,8.9,4.5,9.2c-0.2,0.6-0.3,1.6,0.6,2.9l0.1,0.1
	c0.1,0.1,0.2,0.2,0.3,0.3c0.2,0.5,0.6,1.4,1.3,2.2c-0.3,0.2-0.7,0.4-1.3,0.5c-1.3,0.4-5.1,1.5-5.3,6.8c0,0.5,0.3,0.9,0.8,1.1l0.1,0
	c0,0,0.1,0,0.3,0c1.1,0.2,4.5,0.8,9,0.8s7.9-0.6,9-0.8c0.2,0,0.3,0,0.3,0c0.6,0,1-0.5,1-1.1c0-0.2,0-0.4,0-0.6
	c2.9-0.8,4.3-2.5,4.8-3.2l0.1-0.1C26.1,17.7,26.2,17.2,25.9,16.7z M13.5,7.4c0.2,0.6,0.2,1.4,0.2,1.7c-0.1,0.2,0,0.5,0.1,0.7
	c0.1,0.2,0.3,0.3,0.5,0.4c0,0.2-0.1,0.4-0.3,0.6c-0.2,0.2-0.3,0.3-0.5,0.6l0,0.1c-0.2,0.7-1.5,3-2.9,3c-1.4,0-2.7-2.2-2.9-2.9
	c0-0.5-0.3-0.7-0.6-0.8c-0.1-0.2-0.2-0.5-0.2-0.7C7.3,9.9,7.5,9.5,7.5,9c0,0-0.1-0.9,0.2-1.8l0-0.1c0.1-0.3,0.7-1.8,3-1.8
	c2,0,2.7,1.1,2.8,1.6L13.4,7L13.5,7.4z M8.8,16.2c1.2,0.7,2.7,0.6,3.9,0c0.5,0.3,1.3,0.8,2.4,1.2c1.5,0.5,3.2,1.3,3.6,3.7
	c-1.3,0.2-4.2,0.6-7.9,0.6c-2.7,0-5.4-0.2-7.9-0.6c0.4-2.3,1.7-3.1,3.6-3.7C7.5,17,8.3,16.5,8.8,16.2z M15.6,15.2
	c-0.5-0.2-1-0.4-1.3-0.6c0.6-0.8,1.1-1.6,1.3-2.2c0.2-0.1,0.3-0.2,0.4-0.3l0.1-0.1c0.7-1.2,0.9-2.2,0.6-2.9
	c-0.1-0.3-0.3-0.5-0.5-0.7c0-0.5,0-1.1-0.2-1.9c-0.1-0.4-0.5-1.5-1.8-2.5c0.5-0.9,1.3-1.4,2.5-1.5c1.7,0.1,2.6,1,2.7,2.7l0,0.3
	c0.1,0.9,0.2,1.8,1.3,3.6c0.1,0.1,0.2,0.3,0.3,0.4c0.1,0.1,0.1,0.1,0.1,0.2l0.1,0.1c0.2,0.3,0.3,0.5,0.4,0.7c-0.2,0.2-1,0.2-1.4,0.2
	c-0.6,0-1.1,0-1.6,0.2c-0.3,0.2-0.7,0.5-0.7,1c0,1.6,0.8,2.1,2.9,2.8c1.5,0.5,2.6,1.7,3.1,2.4c-0.8,0.8-1.8,1.6-3.3,2
	C19.5,17.3,18,16,15.6,15.2z"/>
</svg>
