<?xml version="1.0" encoding="utf-8"?>
<!-- Generator: Adobe Illustrator 24.1.0, SVG Export Plug-In . SVG Version: 6.00 Build 0)  -->
<svg version="1.1" id="Layer_1" xmlns="http://www.w3.org/2000/svg" xmlns:xlink="http://www.w3.org/1999/xlink" x="0px" y="0px"
	 viewBox="0 0 24 24" style="enable-background:new 0 0 24 24;" xml:space="preserve">
<style type="text/css">
	.st0{fill:#FFFFFF;}
</style>
<g id="Symbols">
	<g id="Left-Navigation" transform="translate(-69.000000, -388.000000)">
		<path id="Requests" class="st0" d="M88.2,388H73.8c-2.7,0-4.8,2.1-4.8,4.8v18.6c0,0.3,0.3,0.6,0.6,0.6c0.2,0,0.3-0.1,0.4-0.2
			l3.6-3.6c0.7-0.7,1.6-1,2.6-1h12c2.7,0,4.8-2.1,4.8-4.8v-9.6C93,390.1,90.9,388,88.2,388z M88.2,404.8h-12c-1.6,0-3.1,0.6-4.2,1.8
			l-0.6,0.5v-14.3c0-1.3,1.1-2.4,2.4-2.4h14.4c1.3,0,2.4,1.1,2.4,2.4v9.6C90.6,403.7,89.5,404.8,88.2,404.8z M81.6,400h-1.2
			c-0.3,0-0.6,0.3-0.6,0.6v1.2c0,0.3,0.3,0.6,0.6,0.6h1.2c0.3,0,0.6-0.3,0.6-0.6v-1.2C82.2,400.3,81.9,400,81.6,400z M80.4,397.6
			h1.3c0.2,0,0.3-0.1,0.3-0.3l0.5-3.9c0-0.2,0-0.3-0.1-0.5c-0.1-0.1-0.3-0.2-0.5-0.2h-1.7c-0.2,0-0.3,0.1-0.5,0.2
			c-0.1,0.1-0.2,0.3-0.1,0.5l0.5,3.9C80.1,397.5,80.2,397.6,80.4,397.6L80.4,397.6z"/>
	</g>
</g>
</svg>
