<?xml version="1.0" encoding="UTF-8"?>
<svg width="36px" height="36px" viewBox="0 0 36 36" version="1.1" xmlns="http://www.w3.org/2000/svg" xmlns:xlink="http://www.w3.org/1999/xlink">
    <title>Shape</title>
    <g id="Main_pages" stroke="none" stroke-width="1" fill="none" fill-rule="evenodd">
        <g id="dashboard_material_College" transform="translate(-486.000000, -64.000000)" fill="#FFFFFF" fill-rule="nonzero">
            <g id="Group-6">
                <g id="Group-5" transform="translate(455.000000, 50.000000)">
                    <g id="Group-4" transform="translate(258.000000, 32.500000) scale(-1, 1) translate(-258.000000, -32.500000) ">
                        <g id="Group-3-Copy" transform="translate(251.000000, 0.000000)">
                            <path d="M216,14 C206.058875,14 198,22.0588745 198,32 C198,41.9411255 206.058875,50 216,50 C225.941125,50 234,41.9411255 234,32 C234,27.2261032 232.103577,22.6477328 228.727922,19.2720779 C225.352267,15.8964231 220.773897,14 216,14 Z M223.2,32.9 C223.2,33.3970563 222.797056,33.8 222.3,33.8 L217.8,33.8 L217.8,38.3 C217.8,38.7970563 217.397056,39.2 216.9,39.2 L215.1,39.2 C214.602944,39.2 214.2,38.7970563 214.2,38.3 L214.2,33.8 L209.7,33.8 C209.202944,33.8 208.8,33.3970563 208.8,32.9 L208.8,31.1 C208.8,30.6029437 209.202944,30.2 209.7,30.2 L214.2,30.2 L214.2,25.7 C214.2,25.2029437 214.602944,24.8 215.1,24.8 L216.9,24.8 C217.397056,24.8 217.8,25.2029437 217.8,25.7 L217.8,30.2 L222.3,30.2 C222.797056,30.2 223.2,30.6029437 223.2,31.1 L223.2,32.9 Z" id="Shape"></path>
                        </g>
                    </g>
                </g>
            </g>
        </g>
    </g>
</svg>