<?xml version="1.0" encoding="UTF-8"?>
<svg width="24px" height="24px" viewBox="0 0 24 24" version="1.1" xmlns="http://www.w3.org/2000/svg" xmlns:xlink="http://www.w3.org/1999/xlink">
    <title>analytics</title>
    <defs>
        <linearGradient x1="0%" y1="100%" x2="100%" y2="0%" id="linearGradient-1">
            <stop stop-color="#06E8A7" offset="0%"></stop>
            <stop stop-color="#0C9EE2" offset="100%"></stop>
        </linearGradient>
    </defs>
    <g id="Symbols" stroke="none" stroke-width="1" fill="none" fill-rule="evenodd">
        <g id="User_teacher" transform="translate(-621.000000, -29.000000)" fill="url(#linearGradient-1)" fill-rule="nonzero">
            <g id="User">
                <g id="Group-29" transform="translate(542.500000, 41.000000) scale(-1, 1) translate(-542.500000, -41.000000) translate(17.000000, 9.000000)">
                    <g id="Group-5-Copy" transform="translate(334.000000, 7.000000)">
                        <path d="M97.3251631,21.429 C97.1681631,20.044 96.0711631,19 94.7761631,19 L92.2221631,19 C90.9271631,19 89.8311631,20.044 89.6731631,21.429 L89.0111631,27.237 C88.9561631,27.723 89.1061631,28.206 89.4221631,28.56 C89.6951631,28.865 90.0571631,29.043 90.4491631,29.065 L91.0011631,36.537 C91.0211631,36.798 91.2381631,37 91.5001631,37 L95.5001631,37 C95.7621631,37 95.9791631,36.798 95.9971631,36.537 L96.5491631,29.065 C96.9411631,29.043 97.3041631,28.866 97.5761631,28.56 C97.8931631,28.205 98.0431631,27.723 97.9871631,27.237 L97.3251631,21.429 Z M96.8311631,27.894 C96.7741631,27.958 96.6491631,28.067 96.4651631,28.067 L96.0861631,28.067 C95.8241631,28.067 95.6061631,28.269 95.5871631,28.53 L95.0351631,36 L91.9641631,36 L91.4131631,28.53 C91.3931631,28.269 91.1761631,28.067 90.9141631,28.067 L90.5351631,28.067 C90.3511631,28.067 90.2271631,27.958 90.1691631,27.894 C90.0421631,27.751 89.9821631,27.553 90.0051631,27.35 L90.6671631,21.542 C90.7671631,20.663 91.4361631,20 92.2231631,20 L94.7771631,20 C95.5631631,20 96.2321631,20.663 96.3331631,21.542 L96.9951631,27.35 C97.0181631,27.553 96.9581631,27.751 96.8311631,27.894 Z M93.5001631,18 C94.8781631,18 96.0001631,16.878 96.0001631,15.5 C96.0001631,14.122 94.8781631,13 93.5001631,13 C92.1221631,13 91.0001631,14.122 91.0001631,15.5 C91.0001631,16.878 92.1221631,18 93.5001631,18 Z M93.5001631,14 C94.3271631,14 95.0001631,14.673 95.0001631,15.5 C95.0001631,16.327 94.3271631,17 93.5001631,17 C92.6731631,17 92.0001631,16.327 92.0001631,15.5 C92.0001631,14.673 92.6731631,14 93.5001631,14 Z M110.500163,26 C110.776163,26 111.000163,25.776 111.000163,25.5 L111.000163,16.5 C111.000163,16.224 110.776163,16 110.500163,16 L107.500163,16 C107.224163,16 107.000163,16.224 107.000163,16.5 L107.000163,25.5 C107.000163,25.776 107.224163,26 107.500163,26 L110.500163,26 Z M108.000163,17 L110.000163,17 L110.000163,25 L108.000163,25 L108.000163,17 Z M105.500163,26 C105.776163,26 106.000163,25.776 106.000163,25.5 L106.000163,18.5 C106.000163,18.224 105.776163,18 105.500163,18 L102.500163,18 C102.224163,18 102.000163,18.224 102.000163,18.5 L102.000163,25.5 C102.000163,25.776 102.224163,26 102.500163,26 L105.500163,26 Z M103.000163,19 L105.000163,19 L105.000163,25 L103.000163,25 L103.000163,19 Z M100.500163,26 C100.776163,26 101.000163,25.776 101.000163,25.5 L101.000163,21.5 C101.000163,21.224 100.776163,21 100.500163,21 L98.8441631,21 C98.5681631,21 98.3441631,21.224 98.3441631,21.5 C98.3441631,21.776 98.5681631,22 98.8441631,22 L100.000163,22 L100.000163,25 L99.3001631,25 C99.0241631,25 98.8001631,25.224 98.8001631,25.5 C98.8001631,25.776 99.0241631,26 99.3001631,26 L100.500163,26 Z M112.500163,13 L97.0001631,13 C96.7241631,13 96.5001631,13.224 96.5001631,13.5 C96.5001631,13.776 96.7241631,14 97.0001631,14 L112.000163,14 L112.000163,27 L99.5001631,27 C99.2241631,27 99.0001631,27.224 99.0001631,27.5 C99.0001631,27.776 99.2241631,28 99.5001631,28 L112.500163,28 C112.776163,28 113.000163,27.776 113.000163,27.5 L113.000163,13.5 C113.000163,13.224 112.776163,13 112.500163,13 Z" id="analytics" transform="translate(101.000082, 25.000000) scale(-1, 1) translate(-101.000082, -25.000000) "></path>
                    </g>
                </g>
            </g>
        </g>
    </g>
</svg>