<?xml version="1.0" encoding="UTF-8"?>
<svg width="27px" height="27px" viewBox="0 0 27 27" version="1.1" xmlns="http://www.w3.org/2000/svg" xmlns:xlink="http://www.w3.org/1999/xlink">
    <title>analytics_2</title>
    <defs>
        <linearGradient x1="100%" y1="100%" x2="0%" y2="0%" id="linearGradient-1">
            <stop stop-color="#0C9EE2" offset="0%"></stop>
            <stop stop-color="#06E8A7" offset="100%"></stop>
        </linearGradient>
    </defs>
    <g id="Main_pages" stroke="none" stroke-width="1" fill="none" fill-rule="evenodd">
        <g id="dashboard_statistics_full_page" transform="translate(-373.000000, -978.000000)" fill="url(#linearGradient-1)" fill-rule="nonzero">
            <g id="Group-13" transform="translate(311.000000, 929.000000)">
                <g id="Group-11">
                    <g id="Group-6" transform="translate(218.500000, 130.500000) scale(-1, 1) translate(-218.500000, -130.500000) ">
                        <g id="Group-5">
                            <g id="Group-4-Copy-3">
                                <g id="Group-3">
                                    <g id="Group-8" transform="translate(91.000000, 37.000000)">
                                        <path d="M261.616883,29.0280778 C262.376623,29.0280778 262.961039,29.6695464 262.961039,30.3693305 L262.961039,30.3693305 L262.961039,37.6587473 C262.961039,38.4168467 262.318182,39 261.616883,39 L261.616883,39 L258.344156,39 C257.584416,39 257,38.3585313 257,37.6587473 L257,37.6587473 L257,30.3693305 C257,29.6112311 257.642857,29.0280778 258.344156,29.0280778 L258.344156,29.0280778 Z M275.642857,25.1209503 C276.402597,25.1209503 276.987013,25.762419 276.987013,26.462203 L276.987013,26.462203 L276.987013,37.6587473 C276.987013,38.4168467 276.344156,39 275.642857,39 L275.642857,39 L272.37013,39 C271.61039,39 271.025974,38.3585313 271.025974,37.6587473 L271.025974,37.6587473 L271.025974,26.5205184 C271.025974,25.762419 271.668831,25.1792657 272.37013,25.1792657 L272.37013,25.1792657 L272.37013,25.1209503 Z M268.62987,21.2721382 C269.38961,21.2721382 269.974026,21.9136069 269.974026,22.6133909 L269.974026,22.6133909 L269.974026,37.600432 C269.974026,38.3585313 269.331169,38.9416847 268.62987,38.9416847 L268.62987,38.9416847 L265.357143,38.9416847 C264.597403,38.9416847 264.012987,38.300216 264.012987,37.600432 L264.012987,37.600432 L264.012987,22.6133909 C264.012987,21.8552916 264.655844,21.2721382 265.357143,21.2721382 L265.357143,21.2721382 Z M282.655844,18.0647948 C283.415584,18.0647948 284,18.7062635 284,19.4060475 L284,19.4060475 L284,37.600432 C284,38.3585313 283.357143,38.9416847 282.655844,38.9416847 L282.655844,38.9416847 L279.383117,38.9416847 C278.681818,38.9416847 278.097403,38.3585313 278.038961,37.600432 L278.038961,37.600432 L278.038961,19.4060475 C278.038961,18.6479482 278.681818,18.0647948 279.383117,18.0647948 L279.383117,18.0647948 Z M261.558442,30.1943844 L258.285714,30.1943844 C258.168831,30.1943844 258.11039,30.3110151 258.11039,30.3693305 L258.11039,30.3693305 L258.11039,37.6587473 C258.11039,37.775378 258.227273,37.8336933 258.285714,37.8336933 L258.285714,37.8336933 L261.558442,37.8336933 C261.675325,37.8336933 261.733766,37.7170626 261.733766,37.6587473 L261.733766,37.6587473 L261.733766,30.3693305 C261.733766,30.2526998 261.675325,30.1943844 261.558442,30.1943844 L261.558442,30.1943844 Z M268.571429,22.4384449 L265.298701,22.4384449 C265.181818,22.4384449 265.123377,22.5550756 265.123377,22.6133909 L265.123377,22.6133909 L265.123377,37.600432 C265.123377,37.7170626 265.24026,37.775378 265.298701,37.775378 L265.298701,37.775378 L268.571429,37.775378 C268.688312,37.775378 268.746753,37.6587473 268.746753,37.600432 L268.746753,37.600432 L268.746753,22.6133909 C268.746753,22.4967603 268.688312,22.4384449 268.571429,22.4384449 L268.571429,22.4384449 Z M275.642857,26.287257 L272.37013,26.287257 C272.253247,26.287257 272.194805,26.4038877 272.194805,26.462203 L272.194805,26.462203 L272.194805,37.600432 C272.194805,37.7170626 272.311688,37.775378 272.37013,37.775378 L272.37013,37.775378 L275.642857,37.775378 C275.75974,37.775378 275.818182,37.6587473 275.818182,37.600432 L275.818182,37.600432 L275.818182,26.462203 C275.818182,26.4038877 275.75974,26.3455724 275.642857,26.287257 L275.642857,26.287257 Z M282.714286,19.2311015 L279.441558,19.2311015 C279.324675,19.2311015 279.266234,19.3477322 279.266234,19.4060475 L279.266234,19.4060475 L279.266234,37.600432 C279.266234,37.7170626 279.383117,37.775378 279.441558,37.775378 L279.441558,37.775378 L282.714286,37.775378 C282.831169,37.775378 282.88961,37.6587473 282.88961,37.600432 L282.88961,37.600432 L282.88961,19.4060475 C282.88961,19.2894168 282.772727,19.2311015 282.714286,19.2311015 L282.714286,19.2311015 Z M281.019481,12 C281.779221,12 282.422078,12.6414687 282.422078,13.399568 C282.422078,14.1576674 281.779221,14.7991361 281.019481,14.7991361 C280.844156,14.7991361 280.668831,14.7991361 280.493506,14.6825054 L280.493506,14.6825054 L275.350649,19.4060475 C275.350649,19.5809935 275.409091,19.6976242 275.409091,19.8725702 C275.409091,20.6306695 274.766234,21.2721382 274.006494,21.2721382 C273.246753,21.2721382 272.603896,20.6306695 272.603896,19.8725702 L272.603896,19.8725702 L272.603896,19.7559395 L267.811688,17.1900648 C267.577922,17.3650108 267.285714,17.4816415 266.935065,17.4816415 C266.818182,17.4816415 266.701299,17.4816415 266.584416,17.4233261 L266.584416,17.4233261 L261.207792,23.838013 C261.266234,24.012959 261.324675,24.187905 261.324675,24.4211663 C261.324675,25.1792657 260.681818,25.8207343 259.922078,25.8207343 C259.162338,25.8207343 258.519481,25.1792657 258.519481,24.4211663 C258.519481,23.663067 259.162338,23.0215983 259.922078,23.0215983 C260.038961,23.0215983 260.155844,23.0215983 260.272727,23.0799136 L260.272727,23.0799136 L265.649351,16.6652268 C265.590909,16.4902808 265.532468,16.3153348 265.532468,16.0820734 C265.532468,15.3239741 266.175325,14.6825054 266.935065,14.6825054 C267.694805,14.6825054 268.337662,15.3239741 268.337662,16.0820734 L268.337662,16.0820734 L268.337662,16.1987041 L273.12987,18.7645788 C273.363636,18.5896328 273.655844,18.4730022 274.006494,18.4730022 C274.181818,18.4730022 274.415584,18.4730022 274.590909,18.5896328 L274.590909,18.5896328 L279.675325,13.8660907 C279.675325,13.6911447 279.616883,13.574514 279.616883,13.399568 C279.616883,12.6414687 280.25974,12 281.019481,12 Z" id="analytics_2"></path>
                                    </g>
                                </g>
                            </g>
                        </g>
                    </g>
                </g>
            </g>
        </g>
    </g>
</svg>