<?xml version="1.0" encoding="UTF-8"?>
<svg width="36px" height="36px" viewBox="0 0 36 36" version="1.1" xmlns="http://www.w3.org/2000/svg" xmlns:xlink="http://www.w3.org/1999/xlink">
    <title>Shape</title>
    <g id="Main_pages" stroke="none" stroke-width="1" fill="none" fill-rule="evenodd">
        <g id="dashboard_members_teacher_select" transform="translate(-331.000000, -64.000000)" fill="#FFFFFF">
            <g id="Group-6" transform="translate(316.000000, 50.000000)">
                <g id="Group-5" transform="translate(268.500000, 32.500000) scale(-1, 1) translate(-268.500000, -32.500000) ">
                    <g id="Group-3-Copy-2" transform="translate(472.000000, 0.000000)">
                        <path d="M32,50 C22.0595003,50 14,41.9405011 14,32 C14,22.0595003 22.0595003,14 32,14 C41.9405011,14 50,22.0595003 50,32 C50,41.9405011 41.9405011,50 32,50 Z M45.5000496,32.0000007 C45.5000496,29.2010006 44.6180012,26.4717505 42.9845012,24.1970004 L24.1970004,42.9845012 C28.3055006,45.9252513 33.7145008,46.3145013 38.205501,44.0015012 C42.6965011,41.6840011 45.5135013,37.0535009 45.5000496,32.0000007 Z M18.4999519,32.0000007 C18.4999519,34.7990008 19.3820002,37.5282509 21.0155003,39.803001 L39.803001,21.0155003 C35.6945009,18.0747502 30.2855006,17.6855001 25.7945005,19.9985002 C21.3035003,22.3160003 18.4865002,26.9465005 18.4999519,32.0000007 Z" id="Shape"></path>
                    </g>
                </g>
            </g>
        </g>
    </g>
</svg>