<?xml version="1.0" encoding="UTF-8"?>
<svg width="11px" height="11px" viewBox="0 0 11 11" version="1.1" xmlns="http://www.w3.org/2000/svg" xmlns:xlink="http://www.w3.org/1999/xlink">
    <title>Shape</title>
    <g id="Symbols" stroke="none" stroke-width="1" fill="none" fill-rule="evenodd">
        <g id="Rquest_item_1" transform="translate(-82.000000, -45.000000)" fill="#ACBBD0" fill-rule="nonzero">
            <g id="Group-3" transform="translate(542.000000, 40.500000) scale(-1, 1) translate(-542.000000, -40.500000) ">
                <g id="Group-6" transform="translate(872.000000, 16.000000)">
                    <g id="Group-2" transform="translate(16.000000, 26.000000)">
                        <path d="M112.777778,4.15789474 L112.166667,4.15789474 L112.166667,3.28947368 C112.166667,3.12960178 112.029865,3 111.861111,3 L111.25,3 C111.081246,3 110.944444,3.12960178 110.944444,3.28947368 L110.944444,4.15789474 L106.055556,4.15789474 L106.055556,3.28947368 C106.055556,3.12960178 105.918754,3 105.75,3 L105.138889,3 C104.970135,3 104.833333,3.12960178 104.833333,3.28947368 L104.833333,4.15789474 L104.222222,4.15789474 C103.547208,4.15789474 103,4.67630187 103,5.31578947 L103,12.8421053 C103,13.4815929 103.547208,14 104.222222,14 L112.777778,14 C113.452792,14 114,13.4815929 114,12.8421053 L114,5.31578947 C114,4.67630187 113.452792,4.15789474 112.777778,4.15789474 Z M112.777778,12.8421053 L104.222222,12.8421053 L104.222222,6.47368421 L112.777778,6.47368421 L112.777778,12.8421053 Z M105.75,11.1052632 L108.805556,11.1052632 C108.974309,11.1052632 109.111111,10.9756614 109.111111,10.8157895 L109.111111,10.2368421 C109.111111,10.0769702 108.974309,9.94736842 108.805556,9.94736842 L105.75,9.94736842 C105.581246,9.94736842 105.444444,10.0769702 105.444444,10.2368421 L105.444444,10.8157895 C105.444444,10.9756614 105.581246,11.1052632 105.75,11.1052632 Z M105.75,8.78947368 L111.25,8.78947368 C111.418754,8.78947368 111.555556,8.6598719 111.555556,8.5 L111.555556,7.92105263 C111.555556,7.76118073 111.418754,7.63157895 111.25,7.63157895 L105.75,7.63157895 C105.581246,7.63157895 105.444444,7.76118073 105.444444,7.92105263 L105.444444,8.5 C105.444444,8.6598719 105.581246,8.78947368 105.75,8.78947368 Z" id="Shape"></path>
                    </g>
                </g>
            </g>
        </g>
    </g>
</svg>