<?xml version="1.0" encoding="UTF-8"?>
<svg width="18px" height="24px" viewBox="0 0 18 24" version="1.1" xmlns="http://www.w3.org/2000/svg" xmlns:xlink="http://www.w3.org/1999/xlink">
    <title>certification</title>
    <defs>
        <linearGradient x1="21.875%" y1="100%" x2="78.125%" y2="0%" id="linearGradient-1">
            <stop stop-color="#0C9EE2" offset="0%"></stop>
            <stop stop-color="#06E8A7" offset="100%"></stop>
        </linearGradient>
    </defs>
    <g id="Symbols" stroke="none" stroke-width="1" fill="none" fill-rule="evenodd">
        <g id="User_student" transform="translate(-969.000000, -29.000000)" fill="url(#linearGradient-1)" fill-rule="nonzero">
            <g id="User">
                <g id="Group-29" transform="translate(541.000000, 41.000000) scale(-1, 1) translate(-541.000000, -41.000000) translate(17.000000, 9.000000)">
                    <g id="Group-7-Copy" transform="translate(62.000000, 7.000000)">
                        <path d="M27.5,30 L21.5,30 C21.224,30 21,30.224 21,30.5 C21,30.776 21.224,31 21.5,31 L27.5,31 C27.776,31 28,30.776 28,30.5 C28,30.224 27.776,30 27.5,30 Z M25.5,32 L23.5,32 C23.224,32 23,32.224 23,32.5 C23,32.776 23.224,33 23.5,33 L25.5,33 C25.776,33 26,32.776 26,32.5 C26,32.224 25.776,32 25.5,32 Z M28.5,27 L20.5,27 C20.224,27 20,27.224 20,27.5 C20,27.776 20.224,28 20.5,28 L28.5,28 C28.776,28 29,27.776 29,27.5 C29,27.224 28.776,27 28.5,27 Z M18.5,17 L22.5,17 C22.776,17 23,16.776 23,16.5 C23,16.224 22.776,16 22.5,16 L18.5,16 C18.224,16 18,16.224 18,16.5 C18,16.776 18.224,17 18.5,17 Z M27.301,18.412 C27.317,18.451 27.33,18.537 27.342,18.614 C27.375,18.829 27.42,19.124 27.648,19.353 C27.747,19.452 27.859,19.513 27.971,19.557 L27.015,23.379 C26.968,23.568 27.035,23.768 27.187,23.89 C27.341,24.013 27.55,24.033 27.724,23.947 L29.5,23.059 L31.276,23.947 C31.347,23.982 31.424,24 31.5,24 C31.611,24 31.722,23.962 31.814,23.89 C31.966,23.768 32.033,23.568 31.986,23.379 L31.03,19.555 C31.142,19.511 31.253,19.451 31.352,19.353 C31.581,19.125 31.625,18.829 31.658,18.614 C31.67,18.537 31.683,18.451 31.699,18.412 C31.712,18.379 31.764,18.31 31.806,18.254 C31.938,18.077 32.119,17.834 32.119,17.501 C32.119,17.168 31.938,16.925 31.806,16.748 C31.764,16.692 31.713,16.623 31.699,16.59 C31.683,16.551 31.67,16.465 31.658,16.388 C31.625,16.173 31.58,15.878 31.352,15.649 C31.124,15.42 30.828,15.376 30.613,15.343 C30.536,15.331 30.45,15.318 30.411,15.302 C30.378,15.289 30.309,15.237 30.253,15.195 C30.076,15.063 29.833,14.882 29.5,14.882 C29.167,14.882 28.924,15.063 28.747,15.195 C28.691,15.237 28.622,15.288 28.589,15.302 C28.55,15.318 28.464,15.331 28.387,15.343 C28.172,15.376 27.877,15.421 27.648,15.649 C27.419,15.877 27.374,16.172 27.342,16.388 C27.33,16.465 27.317,16.551 27.301,16.59 C27.288,16.623 27.236,16.692 27.194,16.748 C27.062,16.925 26.881,17.168 26.881,17.501 C26.881,17.834 27.062,18.077 27.194,18.254 C27.236,18.31 27.287,18.379 27.301,18.412 Z M29.724,22.052 C29.584,21.982 29.418,21.982 29.277,22.052 L28.249,22.566 L28.91,19.922 C29.066,20.025 29.259,20.12 29.5,20.12 C29.742,20.12 29.935,20.024 30.091,19.921 L30.752,22.566 L29.724,22.052 Z M27.996,17.347 C28.075,17.241 28.164,17.121 28.226,16.972 C28.289,16.82 28.311,16.67 28.331,16.537 C28.341,16.468 28.353,16.362 28.332,16.373 C28.364,16.357 28.468,16.341 28.537,16.331 C28.67,16.31 28.82,16.288 28.972,16.225 C29.12,16.163 29.24,16.074 29.346,15.995 C29.403,15.953 29.489,15.889 29.478,15.878 C29.512,15.889 29.598,15.953 29.655,15.995 C29.761,16.074 29.881,16.163 30.029,16.225 C30.181,16.288 30.331,16.31 30.464,16.331 C30.534,16.342 30.639,16.358 30.628,16.332 C30.644,16.364 30.66,16.468 30.67,16.537 C30.691,16.67 30.713,16.82 30.776,16.972 C30.838,17.12 30.927,17.24 31.006,17.346 C31.041,17.393 31.091,17.459 31.113,17.5 C31.09,17.541 31.041,17.607 31.006,17.654 C30.927,17.76 30.838,17.88 30.776,18.028 C30.713,18.18 30.691,18.33 30.67,18.463 C30.66,18.533 30.649,18.635 30.669,18.627 C30.637,18.643 30.533,18.659 30.464,18.669 C30.331,18.69 30.181,18.712 30.029,18.775 C29.881,18.837 29.761,18.926 29.655,19.005 C29.598,19.047 29.512,19.111 29.523,19.122 C29.489,19.111 29.403,19.047 29.346,19.005 C29.24,18.926 29.12,18.837 28.971,18.775 C28.819,18.712 28.669,18.69 28.536,18.67 C28.494,18.663 28.44,18.655 28.405,18.655 C28.383,18.655 28.369,18.659 28.374,18.67 C28.358,18.638 28.342,18.534 28.332,18.465 C28.311,18.332 28.289,18.182 28.226,18.03 C28.164,17.882 28.075,17.762 27.996,17.656 C27.954,17.599 27.89,17.512 27.879,17.524 C27.89,17.49 27.954,17.404 27.996,17.347 Z M33.5,13 L16.5,13 C16.224,13 16,13.224 16,13.5 L16,36.5 C16,36.776 16.224,37 16.5,37 L33.5,37 C33.776,37 34,36.776 34,36.5 L34,13.5 C34,13.224 33.776,13 33.5,13 Z M33,36 L17,36 L17,14 L33,14 L33,36 Z" id="certification"></path>
                    </g>
                </g>
            </g>
        </g>
    </g>
</svg>