<?xml version="1.0" encoding="UTF-8"?>
<svg width="29px" height="38px" viewBox="0 0 29 38" version="1.1" xmlns="http://www.w3.org/2000/svg" xmlns:xlink="http://www.w3.org/1999/xlink">
    <title>Certificate</title>
    <g id="Main_pages" stroke="none" stroke-width="1" fill="none" fill-rule="evenodd">
        <g id="dashboard_statistics_Overview" transform="translate(-375.000000, -597.000000)" fill="#FFFFFF" fill-rule="nonzero">
            <g id="Group-12" transform="translate(707.000000, 498.500000) scale(-1, 1) translate(-707.000000, -498.500000) translate(311.000000, 271.000000)">
                <g id="Group-5-Copy" transform="translate(412.500009, 251.900005)">
                    <g id="Group-2-Copy-2" transform="translate(33.000000, 36.000000)">
                        <path d="M273.351918,75.8334524 C273.172876,75.8546275 272.991961,75.8546275 272.812918,75.8334524 L268.731918,74.7862524 C268.367505,74.6618767 267.972132,74.6618767 267.607718,74.7862524 L262.987718,75.7872524 C262.309627,75.9113689 261.611538,75.7261535 261.084164,75.2822061 C260.55679,74.8382586 260.255249,74.1819767 260.261918,73.4926524 L260.261918,65.0072524 C260.260347,64.2211341 260.661317,63.4889285 261.324518,63.0668524 C261.976575,62.6403014 262.80135,62.5764104 263.511318,62.8974524 C268.348377,65.0887648 274.060768,63.4311018 276.97345,58.9909135 C279.886132,54.5507252 279.131409,48.6507544 275.19483,45.0867219 C271.25825,41.5226893 265.31253,41.3563287 261.182823,44.6946675 C257.053116,48.0330063 255.969671,53.8815453 258.629518,58.4776523 C259.012057,59.208922 258.750137,60.111756 258.035633,60.5247639 C257.321129,60.9377719 256.408062,60.7141213 255.965318,60.0176523 C254.370669,57.2633467 253.772507,54.0441455 254.271318,50.9008523 C255.300446,43.3142271 262.284893,37.9983248 269.871518,39.0274522 C277.458144,40.0565796 282.774046,47.0410271 281.744919,54.6276523 C281.04276,60.9616866 276.111852,66.0006174 269.794518,66.8398524 C267.620239,67.1201196 265.410546,66.8880755 263.341918,66.1622524 L263.341918,72.5224524 L266.806918,71.7678524 C267.712767,71.4736753 268.68847,71.4736753 269.594318,71.7678524 L272.581918,72.4762524 L272.581918,70.0276524 C272.581918,69.1771339 273.2714,68.4876524 274.121918,68.4876524 C274.972437,68.4876524 275.661918,69.1771339 275.661918,70.0276524 L275.661918,73.5234524 C275.661918,74.7992302 274.627696,75.8334524 273.351918,75.8334524 Z M267.515318,57.2610523 L273.675318,51.1010523 C274.198575,50.4900415 274.163394,49.5792333 273.594566,49.0104049 C273.025738,48.4415766 272.114929,48.406396 271.503918,48.9296523 L266.421918,53.9808523 L264.435318,51.9942523 C263.83145,51.3903842 262.852387,51.3903842 262.248518,51.9942523 C261.64465,52.5981205 261.64465,53.5771842 262.248518,54.1810523 L265.328518,57.2610523 C265.929176,57.8581467 266.899261,57.8581467 267.499918,57.2610523 L267.515318,57.2610523 Z" id="Certificate" transform="translate(267.986188, 57.374667) scale(-1, 1) translate(-267.986188, -57.374667) "></path>
                    </g>
                </g>
            </g>
        </g>
    </g>
</svg>