<?xml version="1.0" encoding="UTF-8"?>
<svg width="31px" height="21px" viewBox="0 0 31 21" version="1.1" xmlns="http://www.w3.org/2000/svg" xmlns:xlink="http://www.w3.org/1999/xlink">
    <title>Change</title>
    <g id="Main_pages" stroke="none" stroke-width="1" fill="none" fill-rule="evenodd">
        <g id="dashboard_members_teacher_select" transform="translate(-433.000000, -72.000000)" fill="#FFFFFF" fill-rule="nonzero">
            <g id="Group-6" transform="translate(316.000000, 50.000000)">
                <g id="Group-5" transform="translate(268.500000, 32.500000) scale(-1, 1) translate(-268.500000, -32.500000) ">
                    <g id="Group-3-Copy-3" transform="translate(241.000000, 0.000000)">
                        <path d="M175.383333,27.2482772 L176.795125,27.2482772 L174.021917,30.0665229 C173.770042,30.3224884 173.770042,30.7385964 174.021917,30.9945619 C174.1485,31.1218883 174.313833,31.1862079 174.479167,31.1862079 C174.6445,31.1862079 174.809833,31.1218883 174.935125,30.9958745 L178.810125,27.0579438 C178.861792,27.0054381 178.896667,26.9424312 178.927667,26.8781117 C178.932833,26.8662979 178.943167,26.858422 178.948333,26.8466082 C178.981917,26.7652243 178.998708,26.6785898 178.998708,26.5919554 C178.998708,26.5919554 178.998708,26.5919554 178.998708,26.5919554 C178.998708,26.5893301 178.997417,26.5880174 178.997417,26.5853922 C178.996125,26.5026956 178.980625,26.4199991 178.949625,26.3425531 C178.916042,26.2598565 178.866958,26.1863485 178.80625,26.1246543 L174.936417,22.1919741 C174.684542,21.9360086 174.275083,21.9360086 174.023208,22.1919741 C173.771333,22.4479396 173.771333,22.8640476 174.023208,23.1200131 L176.793833,25.9356336 L175.383333,25.9356336 C170.764333,25.9356336 166.486333,27.9676058 163.5,31.502555 C160.512375,27.9662932 156.234375,25.9356336 151.615375,25.9356336 L148.645833,25.9356336 C148.289333,25.9356336 148,26.2296657 148,26.5919554 C148,26.954245 148.289333,27.2482772 148.645833,27.2482772 L151.615375,27.2482772 C155.916625,27.2482772 159.897542,29.1647368 162.643625,32.4988514 C159.897542,35.8329661 155.916625,37.7494257 151.615375,37.7494257 L148.645833,37.7494257 C148.289333,37.7494257 148,38.0434579 148,38.4057475 C148,38.7680371 148.289333,39.0620693 148.645833,39.0620693 L151.615375,39.0620693 C156.496583,39.0620693 161.013542,36.8174488 164.008917,32.901833 C166.758875,29.3091276 170.905125,27.2482772 175.383333,27.2482772 Z M178.963833,38.2219774 C178.957375,38.2009751 178.959958,38.1786602 178.950917,38.1589705 C178.917333,38.0736487 178.866958,37.998828 178.802375,37.9358211 L174.935125,34.0057663 C174.68325,33.7498008 174.273792,33.7498008 174.021917,34.0057663 C173.770042,34.2617318 173.770042,34.6778398 174.021917,34.9338053 L176.792542,37.7494257 L175.384625,37.7494257 C171.873875,37.7494257 168.478083,36.4289063 165.823708,34.0293938 C165.556333,33.7865548 165.148167,33.8128077 164.911792,34.0832122 C164.674125,34.3536168 164.698667,34.7684122 164.96475,35.0099386 C167.8555,37.6220993 171.556125,39.0620693 175.384625,39.0620693 L176.795125,39.0620693 L174.021917,41.880315 C173.770042,42.1362805 173.770042,42.5523885 174.021917,42.808354 C174.1485,42.9356805 174.313833,43 174.479167,43 C174.6445,43 174.809833,42.9356805 174.935125,42.8096667 L178.810125,38.871736 C178.826917,38.8546716 178.833375,38.831044 178.848875,38.812667 C178.887625,38.7640992 178.926375,38.7155314 178.949625,38.6577751 C178.971583,38.6052693 178.975458,38.547513 178.983208,38.492382 C178.987083,38.4621912 179,38.4359383 179,38.4057475 C179,38.341428 178.980625,38.282359 178.963833,38.2219774 Z" id="Change"></path>
                    </g>
                </g>
            </g>
        </g>
    </g>
</svg>