<?xml version="1.0" encoding="UTF-8"?>
<svg width="17px" height="15px" viewBox="0 0 17 15" version="1.1" xmlns="http://www.w3.org/2000/svg" xmlns:xlink="http://www.w3.org/1999/xlink">
    <title>Download</title>
    <g id="Symbols" stroke="none" stroke-width="1" fill="none" fill-rule="evenodd">
        <g id="path_item" transform="translate(-809.000000, -46.000000)" fill="#FFFFFF" fill-rule="nonzero">
            <g id="Group-32" transform="translate(522.000000, 54.000000) scale(-1, 1) translate(-522.000000, -54.000000) ">
                <g id="Group-29" transform="translate(19.000000, 6.000000)">
                    <g id="Group-25-Copy" transform="translate(188.000000, 28.000000)">
                        <path d="M25.875,27 L13.125,27 C11.9513949,27 11,26.0406102 11,24.8571429 L11,23.0071429 C11.0015816,22.6288737 11.1518753,22.2666788 11.4179167,22 L12.6291667,20.7785714 C12.9102052,20.5358737 13.3291375,20.5521912 13.5907739,20.8160263 C13.8524104,21.0798613 13.8685919,21.5023141 13.6279167,21.7857143 L12.4166667,23.0071429 L12.4166667,24.8571429 C12.4166667,25.251632 12.7337983,25.5714286 13.125,25.5714286 L25.875,25.5714286 C26.2662017,25.5714286 26.5833333,25.251632 26.5833333,24.8571429 L26.5833333,23.0071429 L25.3720833,21.7857143 C25.1314081,21.5023141 25.1475896,21.0798613 25.4092261,20.8160263 C25.6708625,20.5521912 26.0897948,20.5358737 26.3708333,20.7785714 L27.5820833,22 C27.8481247,22.2666788 27.9984184,22.6288737 28,23.0071429 L28,24.8571429 C28,26.0406102 27.0486051,27 25.875,27 Z M20.24375,22.5071429 L24.2529167,18.4285714 C24.4935919,18.1451712 24.4774104,17.7227184 24.2157739,17.4588834 C23.9541375,17.1950484 23.5352052,17.1787309 23.2541667,17.4214286 L20.45625,20.2785714 L20.45625,12.7142857 C20.45625,12.3197966 20.1391184,12 19.7479167,12 C19.356715,12 19.0395713,12.3197966 19.0395713,12.7142857 L19.0395713,22 C19.0379098,22.2901893 19.2105068,22.5525572 19.4762839,22.6638364 C19.742061,22.7751156 20.0481859,22.7131857 20.2508333,22.5071429 L20.24375,22.5071429 Z M17.73625,19.9785714 C18.0108875,19.6999732 18.0108875,19.2500268 17.73625,18.9714286 L16.2345833,17.4571429 C15.9572315,17.2815953 15.5967043,17.3206403 15.3626436,17.5515738 C15.1285829,17.7825072 15.0820073,18.1451258 15.25,18.4285714 L16.7375,19.9785714 C17.0137765,20.2555169 17.4599735,20.2555169 17.73625,19.9785714 Z M18.2391667,20.4857143 C18.5138042,20.2071161 18.5138042,19.7571696 18.2391667,19.4785714 L16.7375,17.9571429 C16.4597468,17.679028 16.0110055,17.680627 15.7352083,17.9607143 C15.4594112,18.2408016 15.4609968,18.6933137 15.73875,18.9714286 L17.2404167,20.4857143 C17.5166932,20.7626597 17.9628901,20.7626597 18.2391667,20.4857143 Z" id="Download"></path>
                    </g>
                </g>
            </g>
        </g>
    </g>
</svg>