<?xml version="1.0" encoding="UTF-8"?>
<svg width="14px" height="14px" viewBox="0 0 14 14" version="1.1" xmlns="http://www.w3.org/2000/svg" xmlns:xlink="http://www.w3.org/1999/xlink">
    <title>Combined Shape</title>
    <g id="Main_pages" stroke="none" stroke-width="1" fill="none" fill-rule="evenodd">
        <g id="dashboard_members_teacher_Veiw" transform="translate(-666.000000, -665.000000)" fill="#FFFFFF" fill-rule="nonzero">
            <g id="Group-15" transform="translate(720.000000, 512.500000) scale(-1, 1) translate(-720.000000, -512.500000) translate(359.000000, 271.000000)">
                <g id="Group-16" transform="translate(101.000000, 372.000000)">
                    <g id="Group-3-Copy-4" transform="translate(148.000000, 0.000000)">
                        <g id="Group-5" transform="translate(143.000000, 13.000000)">
                            <path d="M21.23088,16.85856 L22.44984,18.6 L21.71088,18.6 L21.71088,19.8 C21.71088,21.52032 20.3112,22.92 18.59088,22.92 L18.59088,22.92 L12.11088,22.92 C10.4712,22.92 9.12312,21.64872 9,20.04 L9,20.04 L9.96432,20.04 C10.08408,21.11856 11.00088,21.96 12.11088,21.96 L12.11088,21.96 L18.59088,21.96 C19.782,21.96 20.75088,20.99088 20.75088,19.8 L20.75088,19.8 L20.75088,18.6 L20.01192,18.6 L21.23088,16.85856 Z M14.60136,16.57512 L15.6396,20.52024 L15.34608,20.52024 L14.55408,19.53024 L14.84904,18.94008 L14.05056,18.67392 L14.25696,16.81776 C14.36448,16.72752 14.4804,16.6476 14.60136,16.57512 L14.60136,16.57512 Z M13.70232,17.46384 L13.53096,19.00632 L14.17248,19.22016 L13.98744,19.59 L14.73144,20.52 L13.31088,20.52 L13.31088,18.84 C13.31088,18.33528 13.4556,17.86512 13.70232,17.46384 L13.70232,17.46384 Z M18.19944,17.46384 C18.44616,17.86512 18.59088,18.33528 18.59088,18.84 L18.59088,18.84 L18.59088,20.52 L17.17032,20.52 L17.91432,19.59 L17.72928,19.22016 L18.3708,19.00632 Z M17.30016,16.57488 C17.42112,16.64736 17.53704,16.72728 17.64456,16.81752 L17.64456,16.81752 L17.85096,18.67368 L17.05248,18.93984 L17.34744,19.53 L16.55544,20.52 L16.26216,20.52 Z M15.95088,16.2 C16.27056,16.2 16.5756,16.26 16.85952,16.3644 L16.85952,16.3644 L15.95088,19.81728 L15.04224,16.3644 C15.32616,16.26 15.6312,16.2 15.95088,16.2 Z M15.95088,11.88 C17.0112667,11.88 17.87088,12.7396133 17.87088,13.8 C17.87088,14.8603867 17.0112667,15.72 15.95088,15.72 C14.8904933,15.72 14.03088,14.8603867 14.03088,13.8 C14.03088,12.7396133 14.8904933,11.88 15.95088,11.88 Z M19.79088,9 C21.43056,9 22.77864,10.27128 22.90176,11.88 L22.90176,11.88 L21.93744,11.88 C21.81768,10.80144 20.90088,9.96 19.79088,9.96 L19.79088,9.96 L13.31088,9.96 C12.11976,9.96 11.15088,10.92912 11.15088,12.12 L11.15088,12.12 L11.15088,13.32 L11.88984,13.32 L10.67088,15.06144 L9.45192,13.32 L10.19088,13.32 L10.19088,12.12 C10.19088,10.39968 11.59056,9 13.31088,9 L13.31088,9 Z M19.79088,10.92 C20.45256,10.92 20.99088,11.45832 20.99088,12.12 L20.99088,12.12 L20.99088,12.36 L20.51088,12.36 L20.51088,12.12 C20.51088,11.72304 20.18784,11.4 19.79088,11.4 L19.79088,11.4 L19.07088,11.4 L19.07088,10.92 Z M18.59088,10.92 L18.59088,11.4 L18.11088,11.4 L18.11088,10.92 L18.59088,10.92 Z" id="Combined-Shape"></path>
                        </g>
                    </g>
                </g>
            </g>
        </g>
    </g>
</svg>