<?xml version="1.0" encoding="UTF-8"?>
<svg width="19px" height="15px" viewBox="0 0 19 15" version="1.1" xmlns="http://www.w3.org/2000/svg" xmlns:xlink="http://www.w3.org/1999/xlink">
    <title>Shape</title>
    <g id="Symbols" stroke="none" stroke-width="1" fill="none" fill-rule="evenodd">
        <g id="Rquest_item_1" transform="translate(-546.000000, -34.000000)" fill="#000000" fill-rule="nonzero">
            <g id="Group-3" transform="translate(542.000000, 40.500000) scale(-1, 1) translate(-542.000000, -40.500000) ">
                <g id="Group-4" transform="translate(245.000000, 28.000000)">
                    <g id="email-outlined" transform="translate(274.799993, 6.300000)">
                        <path d="M16.1999996,0 L1.79999995,0 C0.805887429,0 0,0.805887429 0,1.79999995 L0,12.5999997 C0,13.5941122 0.805887429,14.3999996 1.79999995,14.3999996 L16.1999996,14.3999996 C17.1941121,14.3999996 18,13.5941122 18,12.5999997 L18,1.79999995 C18,0.805887429 17.1941121,0 16.1999996,0 Z M16.1999996,1.79999995 L16.1999996,4.40999988 L9.58499975,9.04499976 C9.23321286,9.28915635 8.76678666,9.28915635 8.41499978,9.04499976 L1.79999995,4.40999988 L1.79999995,1.79999995 L16.1999996,1.79999995 Z M1.79999995,12.5999997 L1.79999995,6.29999983 L7.5149998,10.2959997 C8.40685668,10.919415 9.59314284,10.919415 10.4849997,10.2959997 L16.1999996,6.29999983 L16.1999996,12.5999997 L1.79999995,12.5999997 Z" id="Shape"></path>
                    </g>
                </g>
            </g>
        </g>
    </g>
</svg>