<?xml version="1.0" encoding="UTF-8"?>
<svg width="29px" height="19px" viewBox="0 0 29 19" version="1.1" xmlns="http://www.w3.org/2000/svg" xmlns:xlink="http://www.w3.org/1999/xlink">
    <title>eye</title>
    <g id="Symbols" stroke="none" stroke-width="1" fill="none" fill-rule="evenodd">
        <g id="User_teacher" transform="translate(-1025.000000, -32.000000)" fill="#FFFFFF" fill-rule="nonzero">
            <g id="User">
                <g id="Group-29" transform="translate(542.500000, 41.000000) scale(-1, 1) translate(-542.500000, -41.000000) translate(17.000000, 9.000000)">
                    <g id="Group-7" transform="translate(0.000000, 4.000000)">
                        <path d="M42.711432,27.6305085 C42.5193857,27.3728814 41.0790378,25.3762712 38.6784581,23.3474576 C35.3496542,20.5135593 31.8288039,19 28.5,19 C25.1711961,19 21.6503458,20.5135593 18.3215419,23.3474576 C15.824939,25.4728814 14.3525834,27.5661017 14.288568,27.6305085 C13.9364829,28.0813559 13.8724675,28.8542373 14.288568,29.3694915 C14.4806143,29.6271186 15.9209622,31.6237288 18.3215419,33.6525424 C21.6503458,36.4864407 25.1711961,38 28.5,38 C31.8288039,38 35.3496542,36.4864407 38.6784581,33.6525424 C41.175061,31.5271186 42.6474166,29.4338983 42.711432,29.3694915 C43.0635171,28.9186441 43.1275325,28.1457627 42.711432,27.6305085 Z M41.6871847,28.5966102 C41.6231692,28.6932203 35.8617779,36.7118644 28.5,36.7118644 C21.1382221,36.7118644 15.3768308,28.6932203 15.3128153,28.5966102 C15.3128153,28.5644068 15.2808076,28.5644068 15.2808076,28.5644068 C15.2487999,28.5322034 15.2808076,28.4355932 15.3128153,28.3711864 C15.3768308,28.3067797 21.1382221,20.2881356 28.5,20.2881356 C35.8617779,20.2881356 41.6231692,28.3067797 41.6871847,28.4033898 C41.6871847,28.4355932 41.7191924,28.4355932 41.7191924,28.4355932 C41.7191924,28.4677966 41.7191924,28.5644068 41.6871847,28.5966102 Z M28.5,22.8644068 C25.3312347,22.8644068 22.7386086,25.4084746 22.7386086,28.5 C22.7386086,31.5915254 25.3312347,34.1355932 28.5,34.1355932 C31.6687653,34.1355932 34.2613914,31.5915254 34.2613914,28.5 C34.2613914,25.4084746 31.6687653,22.8644068 28.5,22.8644068 Z M28.5,32.8474576 C26.0354048,32.8474576 24.0189178,30.8830508 24.0189178,28.5 C24.0189178,26.1169492 26.0354048,24.1525424 28.5,24.1525424 C30.9645952,24.1525424 32.9810822,26.1169492 32.9810822,28.5 C32.9810822,30.8830508 30.9645952,32.8474576 28.5,32.8474576 Z M30.1003865,28.5 C30.1003865,29.4016949 29.3962164,30.1101695 28.5,30.1101695 C27.6037836,30.1101695 26.8996135,29.4016949 26.8996135,28.5 C26.8996135,27.5983051 27.6037836,26.8898305 28.5,26.8898305 C29.3962164,26.8898305 30.1003865,27.5983051 30.1003865,28.5 Z" id="eye"></path>
                    </g>
                </g>
            </g>
        </g>
    </g>
</svg>