<?xml version="1.0" encoding="UTF-8"?>
<svg width="189px" height="52px" viewBox="0 0 189 52" version="1.1" xmlns="http://www.w3.org/2000/svg" xmlns:xlink="http://www.w3.org/1999/xlink">
    <title>Group 48</title>
    <defs>
        <polygon id="path-1" points="0 51.8310027 188.238736 51.8310027 188.238736 0 0 0"></polygon>
    </defs>
    <g id="Symbols" stroke="none" stroke-width="1" fill="none" fill-rule="evenodd">
        <g id="Full_logo" transform="translate(-48.000000, -35.000000)">
            <g id="Group-48">
                <g transform="translate(48.000000, 35.000000)">
                    <path d="M69.9283062,21.7853777 C70.6771062,21.7853777 71.2621063,21.1769777 71.2621063,20.4047776 C71.2621063,19.6793776 70.6539402,19.0709776 69.9283062,19.0709776 C69.1795062,19.0709776 68.5479401,19.6559776 68.5479401,20.4047776 C68.5479401,21.2003777 69.1561062,21.7853777 69.9283062,21.7853777" id="Fill-1" fill="#FFFFFF"></path>
                    <path d="M73.8594596,35.0766486 C73.0640936,35.0766486 72.4790935,35.6616486 72.4790935,36.4104487 C72.4790935,37.1590147 73.0640936,37.7676487 73.8594596,37.7676487 C74.5850936,37.7676487 75.1932597,37.1590147 75.1932597,36.4104487 C75.1932597,35.7084486 74.5850936,35.0766486 73.8594596,35.0766486" id="Fill-3" fill="#FFFFFF"></path>
                    <path d="M70.1623062,30.7944952 L68.6881061,30.7944952 C66.55894,30.7944952 65.669506,29.9518611 65.669506,27.986495 C65.669506,26.324861 66.605506,25.2718609 68.0563061,25.2718609 C69.5071062,25.2718609 70.1859402,26.1610609 70.1859402,28.056695 L70.1859402,30.7944952 L70.1623062,30.7944952 Z M75.8719065,29.1798951 C75.8719065,30.3730612 75.4273065,30.7944952 74.1639404,30.7944952 L72.7129063,30.7944952 L72.7129063,27.775895 C72.7129063,24.7338949 71.1451063,23.1192948 68.2201061,23.1192948 C64.6399059,23.1192948 63.0019058,25.6228609 63.0019058,28.079861 C63.0019058,29.8818951 63.5869059,31.2388612 64.6633059,31.9644952 C65.903506,32.7834953 66.933106,32.9470613 69.2731062,32.9470613 L74.2809404,32.9470613 C76.9483066,32.9470613 78.4459066,31.9408612 78.4459066,29.2498611 L78.4459066,23.1192948 L75.8485065,23.1192948 L75.8485065,29.1798951 L75.8719065,29.1798951 Z" id="Fill-5" fill="#FFFFFF"></path>
                    <path d="M66.7928464,21.7853777 C67.5414125,21.7853777 68.1264125,21.1769777 68.1264125,20.4047776 C68.1264125,19.6793776 67.5182465,19.0709776 66.7928464,19.0709776 C66.0440464,19.0709776 65.4590464,19.6559776 65.4590464,20.4047776 C65.4590464,21.2003777 65.9972464,21.7853777 66.7928464,21.7853777" id="Fill-7" fill="#FFFFFF"></path>
                    <path d="M88.695154,28.0799546 C88.695154,25.6229545 87.1039539,23.1191544 83.5237537,23.1191544 L81.4879536,23.1191544 L81.4879536,25.2719545 L83.7343537,25.2719545 C85.1851538,25.2719545 86.1211538,26.3249546 86.1211538,27.9865886 L86.1211538,30.7945888 L79.4053535,30.7945888 L79.4053535,32.9471549 L88.695154,32.9471549 L88.695154,28.0799546 Z" id="Fill-9" fill="#FFFFFF"></path>
                    <path d="M76.9483066,35.0766486 C76.1995065,35.0766486 75.6145065,35.6616486 75.6145065,36.4104487 C75.6145065,37.1590147 76.1995065,37.7676487 76.9483066,37.7676487 C77.6971066,37.7676487 78.3289066,37.1590147 78.3289066,36.4104487 C78.3289066,35.7084486 77.7205066,35.0766486 76.9483066,35.0766486" id="Fill-11" fill="#FFFFFF"></path>
                    <mask id="mask-2" fill="white">
                        <use xlink:href="#path-1"></use>
                    </mask>
                    <g id="Clip-14"></g>
                    <polygon id="Fill-13" fill="#FFFFFF" mask="url(#mask-2)" points="175.415535 32.9706017 177.942969 32.9706017 177.942969 18.3456009 175.415535 18.3456009"></polygon>
                    <path d="M176.258005,35.0766486 L176.258005,37.5100147 C177.077005,37.6506487 177.662005,37.6974487 178.223371,37.6974487 C181.733372,37.6974487 183.441806,36.1060147 183.441806,32.8068485 L183.441806,24.078648 L180.821006,24.078648 L180.821006,32.8536485 C180.821006,34.5150486 179.885005,35.5210146 178.434205,35.5210146 C177.521371,35.5210146 176.843005,35.2870146 176.585371,35.2170486 L176.258005,35.0766486 Z" id="Fill-15" fill="#FFFFFF" mask="url(#mask-2)"></path>
                    <polygon id="Fill-16" fill="#FFFFFF" mask="url(#mask-2)" points="185.103136 32.9706017 187.630336 32.9706017 187.630336 19.913401 185.103136 19.913401"></polygon>
                    <path d="M147.920463,25.2953779 C149.371263,25.2953779 150.026464,26.1845779 150.026464,28.079978 L150.026464,30.8177782 L148.575897,30.8177782 C146.446263,30.8177782 145.557063,29.9753781 145.557063,28.009778 C145.557063,26.348378 146.469897,25.2953779 147.920463,25.2953779 L147.920463,25.2953779 Z M166.640464,28.056578 C166.640464,26.1845779 167.319064,25.2719779 168.770098,25.2719779 C170.220899,25.2719779 171.156899,26.348378 171.156899,27.986378 C171.156899,29.9519781 170.267465,30.7943782 168.161464,30.7943782 L166.640464,30.7943782 L166.640464,28.056578 Z M144.574263,31.9877782 C145.814463,32.8067783 146.844063,32.9705783 149.207463,32.9705783 L150.073264,32.9705783 C150.050098,34.6553784 149.090463,35.4977784 147.288897,35.4977784 C146.469897,35.4977784 145.487097,35.3807784 144.434097,35.0297784 L144.270063,34.9829784 L144.270063,37.4165785 C145.557063,37.6505785 146.540097,37.7441785 147.429063,37.7441785 C150.869098,37.7441785 152.647264,36.1529785 152.694064,32.9939783 L167.506264,32.9939783 C171.601265,32.9939783 173.754065,31.9409782 173.754065,28.126778 C173.754065,25.6697779 172.163099,23.1659778 168.582898,23.1659778 C165.681064,23.1659778 164.090098,24.7571779 164.090098,27.822578 L164.090098,30.8411782 L161.796898,30.8411782 C162.124264,30.1859782 162.335098,29.4137781 162.335098,28.4543781 C162.335098,26.301578 160.954264,23.7977778 157.163464,23.7977778 L156.836098,23.7977778 L161.773264,18.3689775 L158.731264,18.3689775 C156.882898,20.4515777 154.098064,23.4701778 153.770464,23.7743778 L153.770464,25.9505779 L157.350898,25.9505779 C158.450464,25.9505779 159.761098,26.371778 159.761098,28.3373781 C159.761098,30.1625782 158.942098,30.8411782 156.742264,30.8411782 L152.647264,30.8411782 L152.647264,27.775778 C152.647264,24.7337779 151.079464,23.1191778 148.154463,23.1191778 C144.574263,23.1191778 142.936263,25.6229779 142.936263,28.079978 C142.913097,29.8817781 143.498097,31.2623782 144.574263,31.9877782 L144.574263,31.9877782 Z" id="Fill-17" fill="#FFFFFF" mask="url(#mask-2)"></path>
                    <path d="M106.643002,30.6306484 C106.268368,30.6306484 103.554202,28.0566482 103.554202,26.5356482 C103.554202,25.6932481 105.168802,25.2486481 106.713202,25.2486481 C108.187402,25.2486481 109.731802,25.6932481 109.731802,26.5356482 C109.755202,28.0330142 107.157802,30.6306484 106.643002,30.6306484 L106.643002,30.6306484 Z M96.9554012,30.7944484 L95.4812011,30.7944484 C93.351801,30.7944484 92.462367,29.9520483 92.462367,27.9864482 C92.462367,26.3250482 93.398367,25.2720481 94.8494011,25.2720481 C96.3002012,25.2720481 96.9788012,26.1610141 96.9788012,28.0330142 L96.9788012,30.7944484 L96.9554012,30.7944484 Z M129.668369,32.9470145 C130.768403,32.9470145 131.891369,32.6898485 132.500003,32.3388485 C133.319003,31.8708484 133.670003,31.0518484 133.740203,30.6306484 C133.833803,30.3030484 133.857203,29.9520483 133.857203,29.2500483 L133.857203,18.3456477 L131.259803,18.3456477 L131.259803,29.1798483 C131.259803,30.3730144 130.815203,30.7944484 129.551369,30.7944484 L128.943203,30.7944484 C128.522003,30.7944484 128.100803,30.7008484 127.632803,30.5370484 C127.679369,30.2094484 127.726403,29.8350483 127.726403,29.3904483 L127.726403,24.078648 L125.175803,24.078648 L125.175803,29.2266483 C125.175803,30.3498484 124.684403,30.8178484 123.514403,30.8178484 C123.093203,30.8178484 122.672003,30.7710484 122.227402,30.6306484 C122.274202,30.2560144 122.321002,29.9050143 122.321002,29.3670483 L122.321002,24.078648 L119.770402,24.078648 L119.770402,29.2266483 C119.770402,30.2328484 119.513002,30.6540484 118.787368,30.7944484 L117.477202,30.7944484 C117.290002,30.7944484 116.822002,30.8178484 116.822002,30.5604484 L116.822002,24.055248 L114.271402,24.055248 L114.271402,30.7710484 L109.965802,30.7710484 C111.369802,29.2968483 112.212202,27.7056482 112.212202,26.5120142 C112.212202,24.219048 109.451002,23.049048 106.689802,23.049048 C103.952002,23.049048 101.167401,24.219048 101.167401,26.5120142 C101.167401,28.1268482 102.618201,29.9050143 103.460368,30.7710484 L99.5294013,30.7710484 L99.5294013,27.7758482 C99.5294013,24.7338481 97.9613672,23.119248 95.0600011,23.119248 C91.4798009,23.119248 89.8883668,25.6230481 89.8883668,28.0800482 C89.8883668,29.8818483 90.4502009,31.2390484 91.5032009,31.9644484 C92.743401,32.7834485 93.773001,32.9470145 96.1130011,32.9470145 L96.9788012,32.9470145 C96.9554012,34.6320486 96.0194011,35.4744486 94.194201,35.4744486 C93.375201,35.4744486 92.392401,35.3574486 91.3394009,35.0064486 L91.1753669,34.9596486 L91.1753669,37.3930147 C92.462367,37.6270147 93.445401,37.7208487 94.3343671,37.7208487 C97.7744012,37.7208487 99.5528013,36.1296487 99.5993673,32.9706485 L116.962402,32.9706485 C117.453802,33.0174485 117.968368,33.0640145 118.483402,33.0640145 C119.466202,33.0640145 120.191368,32.9004485 120.893368,32.5026485 C121.806202,32.8770485 122.906003,33.0640145 123.982403,33.0640145 C124.965203,33.0640145 125.784203,32.8770485 126.392369,32.4558485 C127.235003,32.8300145 128.264369,32.9940485 129.458003,32.9940485 L129.668369,32.9940485 L129.668369,32.9470145 Z" id="Fill-18" fill="#FFFFFF" mask="url(#mask-2)"></path>
                    <polygon id="Fill-19" fill="#FFFFFF" mask="url(#mask-2)" points="135.822733 32.9706017 138.349933 32.9706017 138.349933 18.3456009 135.822733 18.3456009"></polygon>
                    <path d="M188.238853,17.6202243 L186.834853,17.6202243 C186.249853,17.5968243 186.109219,17.4798243 186.109219,17.0352243 C186.109219,16.5204243 186.273253,16.4268242 186.881419,16.4268242 C187.279219,16.4268242 187.560253,16.5204243 187.981219,16.8246243 L187.981219,15.5844242 L187.794253,15.4908242 C187.490053,15.3504242 187.209253,15.3036242 186.858253,15.3036242 C185.571253,15.3036242 184.845853,15.9120242 184.845853,17.0586243 C184.845853,17.3160243 184.892419,17.4798243 184.962853,17.6202243 L184.494852,17.6202243 L184.494852,18.7434244 L188.238853,18.7434244 L188.238853,17.6202243 Z" id="Fill-20" fill="#FFFFFF" mask="url(#mask-2)"></path>
                    <path d="M168.419005,49.5144961 C166.898005,49.5144961 165.704371,48.2740621 165.704371,46.799862 C165.704371,45.3258959 166.898005,44.1088619 168.419005,44.1088619 C169.893205,44.1088619 171.110005,45.3024959 171.110005,46.799862 C171.110005,48.2976961 169.893205,49.5144961 168.419005,49.5144961 M168.419005,41.8158958 C165.681205,41.8158958 163.434805,44.0620619 163.434805,46.799862 C163.434805,49.5378961 165.681205,51.7840623 168.419005,51.7840623 C171.156805,51.7840623 173.379805,49.5378961 173.379805,46.799862 C173.379805,44.0620619 171.156805,41.8158958 168.419005,41.8158958" id="Fill-21" fill="#FFFFFF" mask="url(#mask-2)"></path>
                    <path d="M150.167004,41.6988021 C149.067204,41.6988021 147.944004,41.9328022 147.054804,42.2838022 C146.329404,41.8626022 145.627404,41.6988021 144.621204,41.6988021 C143.35737,41.6988021 142.07037,41.8626022 140.666369,42.3540022 L140.409203,42.4476022 L140.409203,51.5970027 L142.913004,51.5970027 L142.913004,44.0856023 C143.427804,43.9218023 143.802204,43.8516023 144.317004,43.8516023 C145.557204,43.8516023 145.908204,44.2494023 145.908204,45.5364023 L145.908204,51.5970027 L148.435404,51.5970027 L148.435404,45.3726023 C148.435404,44.8110023 148.412004,44.4366023 148.318404,44.1090023 C148.809804,43.9452023 149.20737,43.8516023 149.652204,43.8516023 C150.822204,43.8516023 151.360404,44.3898023 151.360404,45.5364023 L151.360404,51.5970027 L153.864204,51.5970027 L153.864204,45.3492023 C153.864204,44.1090023 153.677004,43.3836022 153.115404,42.7752022 C152.48337,42.0966022 151.454004,41.6988021 150.167004,41.6988021" id="Fill-22" fill="#FFFFFF" mask="url(#mask-2)"></path>
                    <path d="M160.158851,49.6314962 C158.497217,49.6314962 157.538051,48.6018961 157.538051,46.799862 C157.538051,44.9514959 158.497217,43.8984959 160.182251,43.8984959 C160.533251,43.8984959 160.814051,43.9450619 161.094851,44.0154959 C161.094851,44.0154959 161.609417,44.1558959 162.054251,44.5068959 L163.107251,42.7048618 C162.522251,42.2368618 161.867051,42.0264958 161.633051,41.9560618 C160.977851,41.7688617 160.041851,41.7220617 160.041851,41.7220617 C157.046417,41.7220617 155.034251,43.8048959 155.034251,46.893696 C155.034251,49.8654962 156.929417,51.7840623 159.901217,51.7840623 C159.901217,51.7840623 161.890217,51.8778963 163.200851,50.6376962 L161.960417,49.0464961 C161.305217,49.4676961 160.837217,49.6314962 160.158851,49.6314962" id="Fill-23" fill="#FFFFFF" mask="url(#mask-2)"></path>
                    <path d="M127.656156,41.7924958 C124.099356,41.7924958 122.437956,43.3600618 122.437956,46.682862 L122.437956,51.5736963 L124.988556,51.5736963 L124.988556,46.870062 L124.988556,46.636062 C124.988556,44.9514959 125.947956,43.9218959 127.422156,43.9218959 C128.030556,43.9218959 128.521956,44.0388959 128.849556,44.1088619 L129.434556,41.8858618 C128.451756,41.7924958 127.656156,41.7924958 127.656156,41.7924958" id="Fill-24" fill="#FFFFFF" mask="url(#mask-2)"></path>
                    <path d="M136.454463,46.6829556 C136.454463,44.8109555 135.729063,43.8749555 134.278263,43.8749555 C132.804063,43.8749555 131.844897,44.9747555 131.844897,46.6127556 C131.844897,48.6017557 132.804063,49.4675557 134.933463,49.4675557 L136.478097,49.4675557 L136.478097,46.6829556 L136.454463,46.6829556 Z M138.958263,46.4255556 L138.958263,51.5969559 L135.542097,51.5969559 C133.178463,51.5969559 132.149097,51.4331558 130.932063,50.6141558 C129.855896,49.8887558 129.270896,48.5081557 129.270896,46.7297556 C129.270896,44.2727555 130.885263,41.7689553 134.489097,41.7689553 C137.390463,41.7689553 138.958263,43.3835554 138.958263,46.4255556 L138.958263,46.4255556 Z" id="Fill-25" fill="#FFFFFF" mask="url(#mask-2)"></path>
                    <path d="M118.483309,46.6829556 C118.483309,44.7875555 117.804943,43.8749555 116.330509,43.8749555 C114.856309,43.8749555 113.896908,44.9747555 113.896908,46.6127556 C113.896908,48.6017557 114.856309,49.4675557 116.985943,49.4675557 L118.506943,49.4675557 L118.506943,46.6829556 L118.483309,46.6829556 Z M121.057309,46.4255556 L121.057309,51.5969559 L117.664309,51.5969559 C115.300909,51.5969559 114.271308,51.4331558 113.054508,50.6141558 C111.978108,49.8887558 111.393108,48.5081557 111.393108,46.7297556 C111.393108,44.2727555 113.007942,41.7689553 116.611309,41.7689553 C119.512909,41.7689553 121.057309,43.3835554 121.057309,46.4255556 L121.057309,46.4255556 Z" id="Fill-26" fill="#FFFFFF" mask="url(#mask-2)"></path>
                    <path d="M67.6584593,45.6768024 C66.1374592,45.2322023 65.5290592,44.9748023 65.5290592,44.4834023 C65.5290592,43.9686023 66.3012592,43.6878022 67.2372593,43.6878022 C68.1732593,43.6878022 69.0860934,43.8984023 69.7644594,44.1324023 L70.3494594,41.9562022 C69.3432594,41.7222021 68.1264593,41.5818021 67.3074593,41.5818021 C64.6164591,41.5818021 63.142259,42.7986022 63.142259,44.6238023 C63.142259,45.5364023 63.3998931,46.7766024 66.2310592,47.5722024 C67.8924593,48.0636025 68.5010933,48.1104025 68.5010933,48.6720025 C68.5010933,49.2804025 67.4480933,49.7250026 66.2544592,49.7250026 C65.0142591,49.7250026 63.7508931,49.1868025 63.002093,48.8124025 L63.002093,51.1758026 C63.9144591,51.5502027 65.0610591,51.8310027 66.2078932,51.8310027 C69.1560594,51.8310027 70.8878934,50.5908026 70.8878934,48.6486025 C70.8878934,47.1744024 69.9984594,46.3788024 67.6584593,45.6768024" id="Fill-27" fill="#FFFFFF" mask="url(#mask-2)"></path>
                    <path d="M88.9993072,47.9466493 C88.9993072,49.1634493 88.5313072,49.6080494 87.2443071,49.6080494 L87.1039071,49.6080494 C85.816907,49.6080494 85.348907,49.1634493 85.348907,47.9466493 L85.348907,41.909449 L82.8685069,41.909449 L82.8685069,48.1338493 C82.8685069,51.0120494 84.4831069,51.8076495 86.9869071,51.8076495 L87.4081071,51.8076495 C90.0759412,51.8076495 91.6201073,51.0588494 91.6201073,48.1338493 L91.6201073,41.909449 L89.0461072,41.909449 L89.0461072,47.9466493 L88.9993072,47.9466493 Z" id="Fill-28" fill="#FFFFFF" mask="url(#mask-2)"></path>
                    <path d="M105.028308,38.3759552 C104.279508,38.3759552 103.694508,38.9609552 103.694508,39.7097552 C103.694508,40.4585553 104.279508,41.0669553 105.028308,41.0669553 C105.777108,41.0669553 106.362108,40.4819553 106.362108,39.7097552 C106.385508,38.9845892 105.777108,38.3759552 105.028308,38.3759552" id="Fill-29" fill="#FFFFFF" mask="url(#mask-2)"></path>
                    <polygon id="Fill-30" fill="#FFFFFF" mask="url(#mask-2)" points="103.811531 51.5970027 106.268531 51.5970027 106.268531 42.1902022 103.811531 42.1902022"></polygon>
                    <path d="M78.9373067,46.6829556 C78.9373067,44.8109555 78.2119066,43.8749555 76.7611065,43.8749555 C75.2869065,43.8749555 74.3275064,44.9747555 74.3275064,46.6127556 C74.3275064,48.6017557 75.2869065,49.4675557 77.4163066,49.4675557 L78.9609407,49.4675557 L78.9609407,46.6829556 L78.9373067,46.6829556 Z M81.4179408,46.4255556 L81.4179408,51.5969559 L78.0013066,51.5969559 C75.6379065,51.5969559 74.6083064,51.4331558 73.3915064,50.6141558 C72.3151063,49.8887558 71.7301063,48.5081557 71.7301063,46.7297556 C71.7301063,44.2727555 73.3449404,41.7689553 76.9483066,41.7689553 C79.8499067,41.7689553 81.4179408,43.3835554 81.4179408,46.4255556 L81.4179408,46.4255556 Z" id="Fill-31" fill="#FFFFFF" mask="url(#mask-2)"></path>
                    <path d="M99.8101545,46.7298024 C99.8101545,44.7174023 99.2485545,43.8984023 97.8445544,43.8984023 C96.3703544,43.8984023 95.4109543,44.9982023 95.4109543,46.6362024 C95.4109543,48.6252025 96.3469544,49.4910025 98.4529545,49.4910025 L99.7867545,49.4910025 L99.7867545,46.7298024 L99.8101545,46.7298024 Z M102.220355,38.188802 L102.220355,51.5970027 L99.1081545,51.5970027 C96.7447544,51.5970027 95.7151543,51.4332026 94.4983543,50.6142026 C93.4219542,49.8888026 92.8369542,48.5082025 92.8369542,46.7298024 C92.8369542,43.7346023 94.8493543,41.7924022 97.7743544,41.7924022 L98.0317544,41.7924022 C98.6869545,41.7924022 99.2953545,41.9796022 99.8335545,42.3306022 L99.8335545,38.188802 L102.220355,38.188802 Z" id="Fill-32" fill="#FFFFFF" mask="url(#mask-2)"></path>
                    <g id="Group" mask="url(#mask-2)" fill="#FFFFFF">
                        <g transform="translate(-0.000094, -0.000047)">
                            <path d="M26.0209417,16.450271 C25.7869417,16.333271 25.5763417,16.380071 25.5293077,16.5438711 C25.5061417,16.7076711 25.6463077,16.9182711 25.8803077,17.0352711 C26.1143077,17.1522711 26.3251418,17.1054711 26.3719418,16.9416711 C26.3953418,16.7778711 26.2549418,16.5672711 26.0209417,16.450271" id="Fill-33"></path>
                            <path d="M25.6699417,17.8542711 C25.4123077,17.7372711 25.1551417,17.7840711 25.1083417,17.9712711 C25.0613077,18.1584711 25.2253417,18.4158711 25.5061417,18.5562712 C25.7633077,18.6966712 26.0209417,18.6264712 26.0677417,18.4392711 C26.1143077,18.2286711 25.9507417,17.9946711 25.6699417,17.8542711" id="Fill-34"></path>
                            <path d="M29.0394015,13.3614241 C28.8290355,13.2444241 28.6418355,13.2678241 28.6182015,13.3848241 C28.5950355,13.5486241 28.7352015,13.7124241 28.9460355,13.8294241 C29.1564015,13.9464241 29.3438355,13.9230241 29.3670015,13.7826241 C29.3904015,13.6422241 29.2500015,13.4784241 29.0394015,13.3614241" id="Fill-35"></path>
                            <path d="M27.9162482,18.9774244 C27.6822482,18.8838244 27.4718822,18.9306244 27.4248482,19.0944244 C27.3780482,19.2582244 27.5418482,19.4922244 27.7758482,19.6092244 C28.0098482,19.7262244 28.2204483,19.6794244 28.2672483,19.4922244 C28.3140483,19.3284244 28.1502482,19.0944244 27.9162482,18.9774244" id="Fill-36"></path>
                            <path d="M29.9520951,20.007001 C29.7180951,19.890001 29.5308951,19.936801 29.4840951,20.100601 C29.4372951,20.287801 29.6010951,20.5218011 29.8350951,20.6388011 C30.0690951,20.7558011 30.2796952,20.7090011 30.3030952,20.5218011 C30.3264952,20.358001 30.1860952,20.124001 29.9520951,20.007001" id="Fill-37"></path>
                            <path d="M26.3719418,14.9994242 C26.1613417,14.9058242 25.9507417,14.9292242 25.8803077,15.0696242 C25.8571417,15.2100242 25.9973077,15.4206242 26.2313077,15.5376242 C26.4653078,15.6546242 26.6527418,15.6312242 26.6993078,15.4674242 C26.7463418,15.3270242 26.6059418,15.1164242 26.3719418,14.9994242" id="Fill-38"></path>
                            <path d="M26.7229418,13.6656943 C26.4889418,13.5486943 26.3017418,13.5720943 26.2549418,13.7124943 C26.2081417,13.8762943 26.3719418,14.0634943 26.5823078,14.1804943 C26.8163078,14.2740943 27.0037418,14.2740943 27.0503078,14.1102943 C27.0739418,13.9698943 26.9333078,13.7826943 26.7229418,13.6656943" id="Fill-39"></path>
                            <path d="M32.4090953,18.0648477 C32.1984953,17.9478477 32.0112952,17.9712477 31.9878952,18.1584477 C31.9644952,18.3222477 32.1282953,18.5328478 32.3388953,18.6498478 C32.5494953,18.7668478 32.7366953,18.7200478 32.7600953,18.5562478 C32.7834953,18.3924477 32.6196953,18.1818477 32.4090953,18.0648477" id="Fill-40"></path>
                            <path d="M32.5729421,16.6608477 C32.3623421,16.5438477 32.1983081,16.5672477 32.1517421,16.7310477 C32.1283421,16.8948477 32.2921421,17.0820477 32.5027421,17.1990477 C32.7367421,17.3160477 32.9003081,17.2926477 32.9239421,17.1288477 C32.9239421,16.9650477 32.7833081,16.7778477 32.5729421,16.6608477" id="Fill-41"></path>
                            <path d="M32.6664017,15.2100008 C32.4324017,15.0930008 32.2452017,15.1164008 32.2220357,15.2802008 C32.1984017,15.4206008 32.3622017,15.6546008 32.5962017,15.7716008 C32.8302017,15.8886008 33.0174017,15.8652008 33.0410357,15.7014008 C33.0642017,15.5376008 32.9004017,15.3270008 32.6664017,15.2100008" id="Fill-42"></path>
                            <path d="M30.8647888,14.2974241 C30.6541888,14.1804241 30.4901548,14.2038241 30.4669888,14.3442241 C30.4433548,14.5080241 30.5839888,14.6718242 30.7943548,14.7888242 C31.0051888,14.9058242 31.1689888,14.8824242 31.1921548,14.7420242 C31.2157888,14.5782242 31.0751548,14.4144241 30.8647888,14.2974241" id="Fill-43"></path>
                            <path d="M32.2452485,19.5624244 C32.0112484,19.4454244 31.8240484,19.4922244 31.7772484,19.6560244 C31.7772484,19.8198244 31.9178824,20.0538244 32.1518825,20.1708244 C32.3858825,20.2878244 32.5728485,20.2410244 32.5962485,20.0772244 C32.6198825,19.8900244 32.4558485,19.6794244 32.2452485,19.5624244" id="Fill-44"></path>
                            <path d="M31.987942,20.9898479 C31.730308,20.8494479 31.496308,20.9196479 31.473142,21.1302479 C31.449742,21.3408479 31.636942,21.5982479 31.894342,21.7386479 C32.1751421,21.8556479 32.3857421,21.8088479 32.4091421,21.5982479 C32.4091421,21.3876479 32.2453421,21.1302479 31.987942,20.9898479" id="Fill-45"></path>
                            <path d="M27.0504014,12.308424 C26.8164014,12.191424 26.5824014,12.214824 26.5590014,12.331824 C26.5122014,12.495624 26.6760014,12.7062241 26.9100014,12.8232241 C27.1440014,12.9636241 27.3548354,12.9168241 27.4014014,12.7764241 C27.4482014,12.6360241 27.2844014,12.425424 27.0504014,12.308424" id="Fill-46"></path>
                            <path d="M49.3974025,24.8040013 C49.1870365,24.6402013 48.9998365,24.3828013 48.9762025,24.1956012 C48.9294025,24.0084012 49.0700365,23.9616012 49.2804025,24.1020012 C49.4910025,24.2424012 49.6782026,24.4998013 49.7018366,24.7104013 C49.7484026,24.8976013 49.6080026,24.9444013 49.3974025,24.8040013 L49.3974025,24.8040013 Z M48.8360365,34.6320018 C48.6720025,34.4916018 48.5318365,34.2342018 48.5082025,34.0236018 C48.5082025,33.8130017 48.6252025,33.7662017 48.7890025,33.8832017 C48.9530365,34.0236018 49.0932025,34.2810018 49.0932025,34.4916018 C49.1168365,34.7022018 48.9998365,34.7726358 48.8360365,34.6320018 L48.8360365,34.6320018 Z M47.7128365,23.7510012 C47.4552024,23.5872012 47.2448364,23.2830012 47.2212024,23.0724012 C47.1980364,22.8618012 47.3618364,22.7916012 47.5958364,22.9554012 C47.8298365,23.0958012 48.0402025,23.4000012 48.0870025,23.6340012 C48.1340365,23.8446012 47.9700025,23.9148012 47.7128365,23.7510012 L47.7128365,23.7510012 Z M46.9170024,33.2280017 C46.7300364,33.1110017 46.5660024,32.8068017 46.5428364,32.5962017 C46.5192024,32.3622017 46.6598364,32.2920017 46.8470364,32.4326357 C47.0340024,32.5728017 47.1980364,32.8536017 47.2212024,33.0642017 C47.2448364,33.2982017 47.1042024,33.3686357 46.9170024,33.2280017 L46.9170024,33.2280017 Z M46.7532024,30.6072016 C46.9404024,30.7476016 47.1042024,31.0050016 47.1278364,31.2156016 C47.1510024,31.4262016 47.0108364,31.4730016 46.8234024,31.3560016 C46.6362024,31.2156016 46.4724024,30.9582016 46.4490024,30.7476016 C46.4258364,30.5370016 46.5660024,30.4902016 46.7532024,30.6072016 L46.7532024,30.6072016 Z M46.0512024,24.1722012 C45.8172024,24.0084012 45.5832023,23.7042012 45.5600363,23.4702012 C45.5600363,23.2596012 45.7238364,23.1894012 45.9810024,23.3532012 C46.2384024,23.5170012 46.4490024,23.7978012 46.4724024,24.0318012 C46.4724024,24.2658012 46.3088364,24.3360013 46.0512024,24.1722012 L46.0512024,24.1722012 Z M45.0920363,32.0346016 C44.8344023,31.8708016 44.6472023,31.5432016 44.6240363,31.2858016 C44.6240363,31.0286356 44.7878363,30.9348016 45.0218363,31.0986016 C45.2558363,31.2626356 45.4430363,31.5666016 45.4898363,31.8476356 C45.4898363,32.1048017 45.3260363,32.1986357 45.0920363,32.0346016 L45.0920363,32.0346016 Z M43.9920023,49.7952026 C43.7348363,49.5612026 43.5240022,49.0698025 43.5240022,48.6720025 C43.5008362,48.2508025 43.6880362,48.1106365 43.9452023,48.3210025 C44.2028363,48.5316025 44.3900363,49.0230025 44.4132023,49.4442025 C44.4132023,49.8656366 44.2494023,50.0058026 43.9920023,49.7952026 L43.9920023,49.7952026 Z M43.1030362,44.1090023 C42.7520362,43.8516023 42.4478362,43.2900022 42.4478362,42.8220022 C42.4478362,42.3540022 42.7050022,42.1902022 43.0560022,42.4242022 C43.4070022,42.6816022 43.6880362,43.2432022 43.7112022,43.7112022 C43.7112022,44.1792023 43.4540362,44.3666363 43.1030362,44.1090023 L43.1030362,44.1090023 Z M42.7520362,46.8468024 C42.4478362,46.6128024 42.1902022,46.0980024 42.1902022,45.6536363 C42.1902022,45.2088023 42.4242022,45.0686363 42.7284022,45.2790023 C43.0328362,45.5130023 43.2900022,46.0278024 43.2900022,46.4726364 C43.2900022,46.9170024 43.0560022,47.0808024 42.7520362,46.8468024 L42.7520362,46.8468024 Z M42.5880022,21.1770011 C42.9390022,21.3876011 43.2432022,21.7620011 43.2668362,22.0896011 C43.2900022,22.3938012 43.0328362,22.4640012 42.6582022,22.2534011 C42.3072022,22.0428011 42.0030022,21.6450011 41.9798362,21.3408011 C41.9798362,21.0366011 42.2370022,20.9664011 42.5880022,21.1770011 L42.5880022,21.1770011 Z M42.4944022,19.819801 C42.7988362,20.007001 43.0328362,20.311201 43.0560022,20.5686011 C43.0560022,20.8026011 42.8454022,20.8494011 42.5412022,20.6856011 C42.2370022,20.4984011 42.0030022,20.170801 41.9798362,19.936801 C41.9798362,19.702801 42.1902022,19.656001 42.4944022,19.819801 L42.4944022,19.819801 Z M41.6520021,13.6890007 C41.4882021,13.5954007 41.3712021,13.4550007 41.3480361,13.3380007 C41.3480361,13.2210007 41.4650361,13.2210007 41.6288361,13.3146007 C41.7924022,13.4082007 41.9330362,13.5486007 41.9330362,13.6656007 C41.9330362,13.7826007 41.8160362,13.7826007 41.6520021,13.6890007 L41.6520021,13.6890007 Z M41.1140361,28.0332014 C40.7160021,27.7992014 40.4120361,27.3546014 40.4120361,26.9802014 C40.4120361,26.6058014 40.7160021,26.5122014 41.0904021,26.7228014 C41.4650361,26.9568014 41.7690021,27.4248014 41.7924022,27.7758014 C41.7924022,28.1502014 41.5118361,28.2672015 41.1140361,28.0332014 L41.1140361,28.0332014 Z M40.6928361,28.8288015 C40.6928361,28.6182015 40.8564021,28.5716355 41.0670021,28.6886355 C41.2778361,28.8288015 41.4414021,29.0862015 41.4414021,29.2736355 C41.4414021,29.4606015 41.2778361,29.5308015 41.0670021,29.4138015 C40.8564021,29.2968015 40.6928361,29.0396355 40.6928361,28.8288015 L40.6928361,28.8288015 Z M41.1140361,35.3576358 C41.4414021,35.5680018 41.6990361,36.0360019 41.7222021,36.4572019 C41.7222021,36.8550019 41.4650361,36.9956359 41.1140361,36.7848019 C40.7862021,36.5508019 40.5054021,36.0828019 40.5054021,35.6850018 C40.5054021,35.2872018 40.7630361,35.1468018 41.1140361,35.3576358 L41.1140361,35.3576358 Z M41.0438361,39.663002 C40.6224021,39.382202 40.2950361,38.773802 40.2950361,38.282636 C40.3182021,37.7910019 40.6224021,37.6038019 41.0438361,37.8612019 C41.4650361,38.118602 41.7690021,38.703602 41.7924022,39.218636 C41.7690021,39.733202 41.4650361,39.9206361 41.0438361,39.663002 L41.0438361,39.663002 Z M41.0438361,42.3306022 C40.6692021,42.0732022 40.3650021,41.5116021 40.3650021,41.0202021 C40.3884021,40.5288021 40.6928361,40.3650021 41.0670021,40.5990021 C41.4414021,40.8566361 41.7458361,41.4180021 41.7222021,41.8860022 C41.7222021,42.4008022 41.4414021,42.5880022 41.0438361,42.3306022 L41.0438361,42.3306022 Z M40.9268361,44.7176363 C40.6460361,44.5302023 40.4352021,44.1090023 40.4352021,43.7346023 C40.4352021,43.3602022 40.6460361,43.2432022 40.9268361,43.4070022 C41.2074021,43.5942022 41.3948361,44.0156363 41.4180021,44.3898023 C41.4180021,44.7408023 41.2074021,44.8812023 40.9268361,44.7176363 L40.9268361,44.7176363 Z M41.5350021,25.7868013 C41.5350021,26.0676013 41.3010021,26.1378013 40.9970361,25.9740013 C40.6928361,25.7868013 40.4352021,25.4358013 40.4352021,25.1550013 C40.4352021,24.8742013 40.6692021,24.8040013 40.9734021,24.9678013 C41.2778361,25.1550013 41.5118361,25.5060013 41.5350021,25.7868013 L41.5350021,25.7868013 Z M40.9734021,22.6980012 C40.6224021,22.5108012 40.3182021,22.1130011 40.3182021,21.8088011 C40.3182021,21.5280011 40.5758361,21.4578011 40.9268361,21.6450011 C41.2778361,21.8556011 41.5584021,22.2534011 41.5820361,22.5108012 C41.6052021,22.8150012 41.3244021,22.9086012 40.9734021,22.6980012 L40.9734021,22.6980012 Z M40.8564021,20.124001 C41.2542021,20.334601 41.5820361,20.7558011 41.6052021,21.0834011 C41.6052021,21.4110011 41.3010021,21.5046011 40.9032021,21.2706011 C40.4820021,21.0366011 40.1780361,20.6154011 40.1544021,20.287801 C40.1544021,19.960201 40.4588361,19.913401 40.8564021,20.124001 L40.8564021,20.124001 Z M40.3884021,13.2912007 C40.5758361,13.3848007 40.7160021,13.5486007 40.7630361,13.7124007 C40.7630361,13.8528007 40.6224021,13.8528007 40.4352021,13.7358007 C40.2248361,13.6188007 40.0610361,13.4550007 40.0610361,13.3146007 C40.0610361,13.1742007 40.2012021,13.1742007 40.3884021,13.2912007 L40.3884021,13.2912007 Z M39.054836,20.287801 C38.586836,20.030401 38.235836,19.562401 38.235836,19.211401 C38.235836,18.883801 38.586836,18.813601 39.031202,19.047601 C39.476036,19.305001 39.827036,19.773001 39.8502021,20.100601 C39.8502021,20.4516011 39.522836,20.5452011 39.054836,20.287801 L39.054836,20.287801 Z M39.101402,21.7854011 C38.680202,21.5514011 38.352836,21.1068011 38.352836,20.7558011 C38.352836,20.404801 38.680202,20.334601 39.101402,20.5686011 C39.522836,20.8026011 39.8502021,21.2472011 39.8502021,21.5748011 C39.8502021,21.9258011 39.522836,22.0194011 39.101402,21.7854011 L39.101402,21.7854011 Z M38.937836,35.7086358 C38.446202,35.4042018 38.095202,34.7726358 38.095202,34.2342018 C38.118836,33.6960017 38.493002,33.5088017 38.984402,33.7896017 C39.476036,34.0706358 39.827036,34.7022018 39.827036,35.2638018 C39.803402,35.8020018 39.429002,35.9892019 38.937836,35.7086358 L38.937836,35.7086358 Z M38.797202,38.095202 C38.399402,37.8378019 38.095202,37.2996019 38.095202,36.8316019 C38.118836,36.3636019 38.446202,36.1998019 38.844002,36.4338019 C39.242036,36.6678019 39.546002,37.2060019 39.546002,37.6740019 C39.522836,38.142002 39.195002,38.329202 38.797202,38.095202 L38.797202,38.095202 Z M38.703836,40.5288021 C38.399402,40.3416021 38.189036,39.9206361 38.189036,39.546002 C38.212202,39.195002 38.446202,39.054602 38.750402,39.218636 C39.054836,39.405602 39.265202,39.826802 39.265202,40.2012021 C39.242036,40.5522021 39.008036,40.7160021 38.703836,40.5288021 L38.703836,40.5288021 Z M37.2060019,20.8026011 C36.7380019,20.5452011 36.3870019,20.053801 36.3870019,19.679401 C36.4104019,19.328401 36.7850359,19.234801 37.2530359,19.492201 C37.7210359,19.749601 38.072036,20.241001 38.072036,20.5920011 C38.048402,20.9664011 37.6740019,21.0600011 37.2060019,20.8026011 L37.2060019,20.8026011 Z M36.4104019,21.2472011 C36.4340359,20.9196011 36.7380019,20.8494011 37.1360359,21.0600011 C37.5102019,21.2706011 37.8144019,21.6918011 37.8144019,22.0194011 C37.7910019,22.3236011 37.4870359,22.4172012 37.0890019,22.2066011 C36.6912019,21.9726011 36.4104019,21.5748011 36.4104019,21.2472011 L36.4104019,21.2472011 Z M37.0422019,23.9616012 C36.5978359,23.7042012 36.2700019,23.2128012 36.2700019,22.8384012 C36.2934019,22.4640012 36.6444019,22.3704012 37.0890019,22.6044012 C37.5338359,22.8384012 37.8612019,23.3064012 37.8612019,23.7042012 C37.8380359,24.1020012 37.4870359,24.1956012 37.0422019,23.9616012 L37.0422019,23.9616012 Z M36.9720019,25.6932013 C36.5742019,25.4826013 36.2934019,25.0380013 36.2934019,24.6870013 C36.3170359,24.3360013 36.6210019,24.2424012 37.0190359,24.4530013 C37.4168359,24.6636013 37.7210359,25.1082013 37.6974019,25.4358013 C37.6740019,25.8102013 37.3700359,25.9038013 36.9720019,25.6932013 L36.9720019,25.6932013 Z M36.9020359,27.5652014 C36.4808359,27.3312014 36.1764019,26.8632014 36.2000359,26.4888014 C36.2232019,26.1378013 36.5510359,26.0208013 36.9488359,26.2316353 C37.3464019,26.4656354 37.6508359,26.9100014 37.6508359,27.2846354 C37.6272019,27.6588014 37.3230019,27.7992014 36.9020359,27.5652014 L36.9020359,27.5652014 Z M36.7614019,31.9646356 C36.2700019,31.7070016 35.9190018,31.1220016 35.9424018,30.6306016 C35.9660359,30.1626016 36.3638359,29.9988015 36.8318359,30.2562016 C37.2998359,30.5370016 37.6508359,31.0986016 37.6508359,31.5666016 C37.6272019,32.0580016 37.2530359,32.2218017 36.7614019,31.9646356 L36.7614019,31.9646356 Z M36.5510359,34.2342018 C36.1062019,33.9768017 35.7788358,33.4152017 35.8020018,32.9472017 C35.8490358,32.4792017 36.2000359,32.3156357 36.6444019,32.5496357 C37.0890019,32.8068017 37.4168359,33.3450017 37.3932019,33.8130017 C37.3700359,34.3046358 36.9954019,34.4682018 36.5510359,34.2342018 L36.5510359,34.2342018 Z M36.4572019,36.4572019 C36.2000359,36.3168019 35.9892019,35.9658019 36.0128359,35.6616018 C36.0360019,35.3808018 36.2468359,35.2638018 36.5274019,35.4042018 C36.8082019,35.5446018 36.9954019,35.8956018 36.9720019,36.1766359 C36.9488359,36.4806019 36.7380019,36.5976019 36.4572019,36.4572019 L36.4572019,36.4572019 Z M34.7960358,26.6292014 C34.2578358,26.3486354 33.8600357,25.7400013 33.9068357,25.2720013 C33.9534017,24.8040013 34.3748358,24.6636013 34.9130358,24.9444013 C35.4278358,25.2252013 35.8254018,25.8102013 35.8020018,26.2782014 C35.7788358,26.7462014 35.3340018,26.9100014 34.7960358,26.6292014 L34.7960358,26.6292014 Z M34.6320018,28.5480015 C34.1408358,28.2672015 33.7898357,27.7056014 33.8130017,27.2376014 C33.8832017,26.7930014 34.2810018,26.6292014 34.7724018,26.8866014 C35.2404018,27.1440014 35.6150358,27.7056014 35.5680018,28.1736014 C35.5448358,28.6416015 35.1234018,28.8056355 34.6320018,28.5480015 L34.6320018,28.5480015 Z M34.4682018,30.6776356 C34.0238358,30.4200016 33.7194017,29.9052015 33.7430357,29.4840015 C33.7898357,29.0628015 34.1408358,28.8990015 34.5852018,29.1330015 C35.0300358,29.3670015 35.3340018,29.8818015 35.3108358,30.3266356 C35.2872018,30.7476016 34.9130358,30.9116356 34.4682018,30.6776356 L34.4682018,30.6776356 Z M34.2578358,32.6430017 C33.9770357,32.5026017 33.7898357,32.1986357 33.8130017,31.9176016 C33.8364017,31.6368016 34.0704018,31.5432016 34.3280358,31.6836016 C34.5852018,31.8240016 34.7724018,32.1516017 34.7724018,32.4090017 C34.7490018,32.6666357 34.5384018,32.7836357 34.2578358,32.6430017 L34.2578358,32.6430017 Z M36.8784019,28.1036354 C37.2998359,28.3376355 37.6272019,28.8522015 37.6272019,29.2736355 C37.6040359,29.6946015 37.2530359,29.8350015 36.8082019,29.6010015 C36.3638359,29.3436015 36.0360019,28.8288015 36.0594019,28.4076015 C36.0830359,28.0098014 36.4340359,27.8696354 36.8784019,28.1036354 L36.8784019,28.1036354 Z M36.0594019,21.0600011 C36.0360019,21.4578011 35.6382018,21.5514011 35.1470358,21.2940011 C34.6554018,21.0132011 34.3044018,20.5218011 34.3280358,20.124001 C34.3512018,19.749601 34.7490018,19.656001 35.2404018,19.913401 C35.7320358,20.170801 36.0830359,20.6856011 36.0594019,21.0600011 L36.0594019,21.0600011 Z M33.7194017,25.2018013 C33.6728357,25.7400013 33.1580357,25.9038013 32.5494017,25.5996013 C31.9410016,25.2720013 31.5200356,24.6402013 31.5668356,24.1020012 C31.6440556,23.6770572 32.0097976,23.5118532 32.4637577,23.6234712 C32.1448157,23.3733252 31.9042636,23.0478312 31.7772016,22.7214012 C31.5200356,22.9554012 31.0988356,22.9788012 30.6308356,22.7448012 C30.1860016,22.4874012 29.8118355,22.1130011 29.6712015,21.6918011 C29.4210555,21.8965511 29.0155335,21.9222911 28.5632115,21.7086491 C29.1079635,22.0280591 29.4561555,22.5898932 29.3904015,23.0724012 C29.2970355,23.5872012 28.7352015,23.7510012 28.1034014,23.4468012 C27.4718354,23.1192012 27.0740354,22.4874012 27.1674014,21.9726011 C27.3038234,21.4954751 27.8158154,21.3529691 28.4022195,21.6232391 C27.9962294,21.3847931 27.6929654,21.0241991 27.5652014,20.6622011 C27.2844014,20.8728011 26.8632014,20.8962011 26.3720354,20.6622011 C25.8102013,20.381401 25.4360353,19.890001 25.3658353,19.445401 C25.1695093,19.677295 24.8231893,19.758493 24.4214113,19.670509 C24.8159353,19.990153 25.0349593,20.4282011 24.9444013,20.8260011 C24.8274013,21.3174011 24.2190012,21.4812011 23.5640352,21.1770011 C22.9088352,20.8728011 22.5110352,20.241001 22.6512012,19.749601 C22.7628192,19.359523 23.1699792,19.209763 23.6487432,19.302895 C23.1870612,18.951193 22.9369152,18.4527729 23.0490012,18.0414009 C23.1660012,17.6436009 23.5640352,17.5032009 24.0552012,17.5734009 C23.6340012,17.2224009 23.4234012,16.8012009 23.5170012,16.4268008 C23.6108352,16.0992008 23.9618352,15.9588008 24.3830353,16.0056008 C24.0320352,15.7014008 23.8448352,15.3036008 23.9382012,14.9994008 C24.0552012,14.6250008 24.5000353,14.5080007 25.0380013,14.6718008 C24.5700013,14.3442007 24.2892012,13.8762007 24.3830353,13.5252007 C24.4764013,13.2210007 24.8274013,13.1040007 25.2488353,13.1976007 C24.8877733,12.9041647 24.7031473,12.5466126 24.7532233,12.2695566 C24.6306073,12.6123666 24.1207212,12.6572947 23.5640352,12.4020006 C23.0022012,12.1212006 22.6512012,11.6532006 22.7450352,11.3022006 C22.8852012,10.9512006 23.4000012,10.9044006 23.9618352,11.1618006 C24.5070553,11.4346446 24.8283373,11.8829886 24.7609453,12.2302446 C24.8596933,11.9101326 25.2766813,11.8418046 25.7870353,12.0042006 C25.3422013,11.7234006 25.1082013,11.3256006 25.1784013,11.0448006 C25.2954013,10.7406006 25.7634013,10.6938006 26.3484014,10.9512006 C26.8632014,11.2320006 27.2378354,11.6766006 27.1674014,12.0042006 C27.2610014,11.6766006 27.7058354,11.6532006 28.2440355,11.9106006 C28.6884015,12.1446006 28.9928355,12.4956006 29.0630355,12.7998007 C29.1989895,12.6250026 29.5137195,12.5976246 29.8977135,12.7267927 C29.4924255,12.4499706 29.2329195,12.0779106 29.2734015,11.7936006 C29.3438355,11.4894006 29.7650355,11.4426006 30.2798356,11.7234006 C30.7710016,11.9808006 31.1220016,12.4254006 31.0988356,12.7530007 C31.0604596,13.0026787 30.7520476,13.0756867 30.3586936,12.9526027 C30.7136716,13.1882407 30.9699016,13.5127987 31.0284016,13.8060007 C31.1922016,13.6188007 31.5432016,13.6188007 31.9644016,13.8294007 C32.3858357,14.0634007 32.7132017,14.4378007 32.7834017,14.7654008 C32.9240357,14.5548007 33.2750357,14.5314007 33.7194017,14.7654008 C34.2110358,15.0462008 34.5852018,15.5142008 34.5620358,15.8652008 C34.5150018,16.1694008 34.2110358,16.2396008 33.7898357,16.0992008 C34.1810838,16.3535588 34.4548638,16.7218749 34.5213198,17.0410509 C34.6495518,16.8367689 35.0049978,16.8238989 35.4278358,17.0352009 C35.9424018,17.3160009 36.3170359,17.8074009 36.3170359,18.1818009 C36.2934019,18.556201 35.8722018,18.649801 35.3574018,18.3690009 C34.9233318,18.1321929 34.5753738,17.7294789 34.4904318,17.3843289 C34.3930878,17.5647429 34.1572158,17.6290929 33.8600357,17.5734009 C34.1630658,17.8364169 34.3783458,18.1691649 34.4164878,18.466111 C34.5346578,18.2112849 34.9029738,18.1787589 35.3574018,18.4158009 C35.8722018,18.696601 36.2700019,19.211401 36.2700019,19.632601 C36.2468359,20.053801 35.8254018,20.147401 35.2872018,19.866601 C34.8007158,19.591651 34.4323998,19.126459 34.3827918,18.745741 C34.2716418,19.009693 33.9545717,19.094869 33.5322017,18.954001 C34.0002017,19.305001 34.3044018,19.796401 34.2810018,20.194201 C34.2342018,20.5218011 33.9770357,20.6856011 33.6024017,20.6388011 C33.9091757,20.9249831 34.1083098,21.2825351 34.1384958,21.6024131 C34.2346698,21.2357351 34.6502538,21.1510271 35.1702018,21.4110011 C35.7084018,21.7152011 36.1298359,22.2768011 36.1062019,22.7448012 C36.0830359,23.2128012 35.6150358,23.3532012 35.0532018,23.0490012 C34.5456558,22.7740512 34.1754678,22.2707171 34.1251578,21.8307971 C34.0598718,22.1380391 33.7736897,22.2707171 33.3684017,22.2066011 C33.7105097,22.5084612 33.9475517,22.9139832 33.9927137,23.2745772 C34.1239878,22.9270872 34.5437838,22.8543132 35.0532018,23.1192012 C35.6150358,23.4234012 36.0360019,24.0318012 36.0128359,24.5466013 C35.9660359,25.0380013 35.4980358,25.2018013 34.9130358,24.8976013 C34.4008098,24.6109513 34.0144758,24.0912372 33.9573797,23.6365752 C33.8392097,23.9452212 33.5010797,24.0570732 33.0754337,23.9400732 C33.4877417,24.2749272 33.7573097,24.7674973 33.7194017,25.2018013 L33.7194017,25.2018013 Z M32.4090017,27.3312014 C31.9178356,27.0738014 31.5900016,26.5590014 31.6370356,26.1144013 C31.7070016,25.6932013 32.1050357,25.5528013 32.5962017,25.7868013 C33.0642017,26.0442013 33.3920357,26.5590014 33.3684017,26.9802014 C33.2982017,27.4248014 32.9004017,27.5652014 32.4090017,27.3312014 L32.4090017,27.3312014 Z M32.1750017,29.1096015 C31.9178356,28.9692015 31.7304016,28.6886355 31.7540356,28.4310015 C31.7772016,28.1970015 32.0112016,28.1036354 32.2688357,28.2438015 C32.5260017,28.3842015 32.7132017,28.6886355 32.6900357,28.8990015 C32.6664017,29.1566355 32.4324017,29.2500015 32.1750017,29.1096015 L32.1750017,29.1096015 Z M31.4030356,24.0084012 C31.3328356,24.4296013 30.9114016,24.5466013 30.4200016,24.3126013 C29.9288355,24.0552012 29.6010015,23.5404012 29.6480355,23.1426012 C29.7180015,22.7214012 30.1392016,22.6044012 30.6308356,22.8384012 C31.1220016,23.0958012 31.4498356,23.5872012 31.4030356,24.0084012 L31.4030356,24.0084012 Z M30.9350356,25.7634013 C30.8648356,26.0910013 30.5370016,26.2080013 30.1628356,26.0208013 C29.7882015,25.8336013 29.5310355,25.4124013 29.5778355,25.1082013 C29.6480355,24.7806013 29.9754015,24.6636013 30.3500356,24.8508013 C30.7242016,25.0380013 30.9818356,25.4358013 30.9350356,25.7634013 L30.9350356,25.7634013 Z M30.5604016,27.8696354 C30.5138356,28.1970015 30.2094016,28.3140015 29.8350015,28.1502014 C29.4840015,27.9630014 29.2268355,27.5652014 29.2734015,27.2142014 C29.3202015,26.8866014 29.6480355,26.7930014 29.9990355,26.9568014 C30.3500356,27.1440014 30.6072016,27.5418014 30.5604016,27.8696354 L30.5604016,27.8696354 Z M30.0690015,30.0222015 C30.0222015,30.3732016 29.7180015,30.4902016 29.3438355,30.3266356 C28.9692015,30.1626016 28.7352015,29.7416355 28.8054015,29.3906355 C28.8522015,29.0628015 29.1800355,28.9458015 29.5310355,29.1096015 C29.8820355,29.2968015 30.1160355,29.6712015 30.0690015,30.0222015 L30.0690015,30.0222015 Z M29.5778355,32.4090017 C29.5074015,32.7366017 29.2032015,32.8770017 28.8758355,32.7132017 C28.5248355,32.5496357 28.3140015,32.1516017 28.3842015,31.8476356 C28.4544015,31.5198016 28.7588355,31.3796356 29.0862015,31.5432016 C29.4140355,31.7070016 29.6244015,32.0816357 29.5778355,32.4090017 L29.5778355,32.4090017 Z M28.9692015,34.7490018 C28.9224015,35.0766018 28.6182015,35.2170018 28.3140015,35.0766018 C27.9864014,34.9128018 27.7992014,34.5618018 27.8460014,34.2342018 C27.9162014,33.9066017 28.1970015,33.7662017 28.5012015,33.9066017 C28.8290355,34.0706358 29.0160015,34.4216358 28.9692015,34.7490018 L28.9692015,34.7490018 Z M28.2672015,37.5806359 C28.2204015,37.8846019 27.9630014,38.048636 27.6590354,37.908002 C27.3548354,37.7676019 27.1674014,37.4166019 27.2378354,37.0890019 C27.2844014,36.7616359 27.5420354,36.6210019 27.8460014,36.7616359 C28.1270354,36.9018019 28.3140015,37.2528019 28.2672015,37.5806359 L28.2672015,37.5806359 Z M26.9334014,33.8366357 C26.8400354,34.2810018 26.4420014,34.4682018 26.0210353,34.2810018 C25.5998353,34.0706358 25.3422013,33.6026357 25.4360353,33.1578017 C25.5294013,32.7366017 25.9272013,32.5496357 26.3484014,32.7366017 C26.7698354,32.9238017 27.0270014,33.4152017 26.9334014,33.8366357 L26.9334014,33.8366357 Z M26.3018354,36.7848019 C26.2080013,37.1826019 25.8338353,37.3932019 25.4124013,37.2296359 C25.0148353,37.0422019 24.7572013,36.5508019 24.8510353,36.1296019 C24.9444013,35.7086358 25.3422013,35.4978018 25.7400013,35.6850018 C26.1380353,35.8722018 26.3720354,36.3402019 26.3018354,36.7848019 L26.3018354,36.7848019 Z M25.5530353,39.9206361 C25.4592013,40.3416021 25.1082013,40.5522021 24.7572013,40.3886361 C24.3830353,40.2246021 24.1722012,39.780002 24.2660352,39.358802 C24.3594013,38.961002 24.7104013,38.750636 25.0614013,38.914202 C25.4124013,39.078002 25.6230013,39.499202 25.5530353,39.9206361 L25.5530353,39.9206361 Z M24.8040013,43.1028022 C24.7104013,43.4772022 24.4062013,43.6878022 24.1020012,43.5708022 C23.7980352,43.4306362 23.6108352,43.0560022 23.7042012,42.6582022 C23.7980352,42.2838022 24.1020012,42.0966022 24.4062013,42.2136022 C24.7104013,42.3540022 24.8978353,42.7286362 24.8040013,43.1028022 L24.8040013,43.1028022 Z M23.3064012,35.8956018 C23.0022012,35.7552018 22.8384012,35.4042018 22.9088352,35.0766018 C23.0022012,34.7726358 23.2830012,34.6320018 23.5872012,34.7490018 C23.8914012,34.8896358 24.0552012,35.2170018 23.9850012,35.5446018 C23.8914012,35.8956018 23.6108352,36.0360019 23.3064012,35.8956018 L23.3064012,35.8956018 Z M22.5578352,24.4764013 C22.2770351,24.3360013 22.1130011,24.0552012 22.1832011,23.8212012 C22.2534011,23.5872012 22.5110352,23.4936012 22.7918352,23.6340012 C23.0724012,23.7744012 23.2362012,24.0318012 23.1660012,24.2892012 C23.0960352,24.5232013 22.8384012,24.6168013 22.5578352,24.4764013 L22.5578352,24.4764013 Z M21.7854011,21.3876011 C21.6450011,21.8088011 21.1302011,21.9492011 20.5688351,21.7152011 C20.007001,21.4578011 19.703035,20.9430011 19.843201,20.4984011 C19.983835,20.100601 20.4984011,19.960201 21.0600011,20.194201 C21.5982011,20.4516011 21.9024011,20.9430011 21.7854011,21.3876011 L21.7854011,21.3876011 Z M21.0368351,23.3532012 C20.8962011,23.7510012 20.4282011,23.8914012 19.937035,23.6808012 C19.445401,23.4468012 19.164835,22.9788012 19.281835,22.5810012 C19.422001,22.1832011 19.890001,22.0662011 20.381401,22.2768011 C20.8494011,22.4874012 21.1302011,22.9554012 21.0368351,23.3532012 L21.0368351,23.3532012 Z M20.007001,25.0146013 C19.913401,25.2720013 19.632835,25.3656013 19.328401,25.2252013 C19.024201,25.0848013 18.860401,24.8040013 18.954001,24.5466013 C19.047835,24.2892012 19.352035,24.1956012 19.632835,24.3360013 C19.937035,24.4764013 20.100835,24.7572013 20.007001,25.0146013 L20.007001,25.0146013 Z M18.0414009,20.4984011 C17.5268349,20.264401 17.2460349,19.819801 17.3862009,19.422001 C17.5268349,19.071001 18.0180009,18.954001 18.533035,19.164601 C19.024201,19.398601 19.305001,19.843201 19.188001,20.217601 C19.047835,20.5920011 18.556201,20.7090011 18.0414009,20.4984011 L18.0414009,20.4984011 Z M18.556201,22.2534011 C18.3924009,22.6980012 17.8310349,22.8384012 17.2692009,22.6044012 C16.7078349,22.3470011 16.4034008,21.8322011 16.5672009,21.3876011 C16.7544009,20.9898011 17.2928349,20.8494011 17.8542009,21.0600011 C18.3924009,21.2940011 18.696835,21.8088011 18.556201,22.2534011 L18.556201,22.2534011 Z M17.6904009,24.3594013 C17.5268349,24.7806013 17.0120349,24.9444013 16.4970008,24.7338013 C15.9822008,24.4998013 15.7014008,24.0084012 15.8652008,23.5638012 C16.0290008,23.1660012 16.5440349,23.0022012 17.0588349,23.2128012 C17.5734009,23.4468012 17.8542009,23.9148012 17.6904009,24.3594013 L17.6904009,24.3594013 Z M16.6140009,26.2080013 C16.5204009,26.4888014 16.1930348,26.5826354 15.8652008,26.4656354 C15.5610008,26.3250014 15.3740348,26.0208013 15.4910348,25.7400013 C15.6080348,25.4592013 15.9120008,25.3656013 16.2398348,25.4826013 C16.5440349,25.6230013 16.7078349,25.9272013 16.6140009,26.2080013 L16.6140009,26.2080013 Z M14.6720348,21.4110011 C14.1570007,21.2004011 13.8762007,20.7324011 14.0400007,20.334601 C14.2040347,19.960201 14.7188348,19.819801 15.2334008,20.030401 C15.7250348,20.241001 16.0058348,20.7090011 15.8652008,21.0834011 C15.7014008,21.4812011 15.1868348,21.6216011 14.6720348,21.4110011 L14.6720348,21.4110011 Z M15.0230348,23.1894012 C14.8358348,23.6106012 14.2974007,23.7744012 13.7592007,23.5638012 C13.2210007,23.3298012 12.9638347,22.8384012 13.1274007,22.4172012 C13.3148347,22.0194011 13.8762007,21.8556011 14.3910007,22.0662011 C14.9060348,22.2768011 15.1868348,22.7682012 15.0230348,23.1894012 L15.0230348,23.1894012 Z M14.0634007,25.4592013 C13.8762007,25.8804013 13.3614007,26.0442013 12.8700007,25.8570013 C12.3788346,25.6464013 12.1212006,25.1784013 12.3084006,24.7572013 C12.4722006,24.3594013 12.9870007,24.1956012 13.4784007,24.3828013 C13.9700347,24.5934013 14.2040347,25.0614013 14.0634007,25.4592013 L14.0634007,25.4592013 Z M13.0104007,27.4716014 C12.8700007,27.7992014 12.4722006,27.9396014 12.0980346,27.7992014 C11.7234006,27.6356354 11.5362006,27.2846354 11.6768346,26.9568014 C11.8170006,26.6058014 12.2150346,26.4888014 12.5892006,26.6292014 C12.9638347,26.7930014 13.1274007,27.1440014 13.0104007,27.4716014 L13.0104007,27.4716014 Z M11.3724006,24.6168013 C11.2320006,24.9210013 10.8110346,25.0614013 10.4130005,24.9210013 C10.0152005,24.7572013 9.82800051,24.4062013 9.99203451,24.1020012 C10.1558345,23.7744012 10.5770345,23.6574012 10.9512006,23.7978012 C11.3258346,23.9616012 11.5130346,24.2892012 11.3724006,24.6168013 L11.3724006,24.6168013 Z M10.5770345,26.8398014 C10.3662005,27.2610014 9.82800051,27.4482014 9.33683448,27.2610014 C8.82203445,27.0738014 8.61120044,26.5826354 8.79840045,26.1612013 C9.00900046,25.7634013 9.54720049,25.5762013 10.0388345,25.7634013 C10.5300005,25.9506013 10.7640006,26.4186014 10.5770345,26.8398014 L10.5770345,26.8398014 Z M9.54720049,28.9458015 C9.40703448,29.2736355 9.00900046,29.4138015 8.63483444,29.2736355 C8.26020043,29.1096015 8.07300042,28.7586015 8.21340042,28.4310015 C8.37720043,28.0800014 8.77500045,27.9630014 9.12600047,28.1036354 C9.50040049,28.2672015 9.6642005,28.6182015 9.54720049,28.9458015 L9.54720049,28.9458015 Z M7.6988344,11.8872006 C7.58183439,12.0510006 7.30103438,12.0978006 7.02000036,12.0276006 C6.73920035,11.9340006 6.62220034,11.7702006 6.71603435,11.6064006 C6.80940035,11.4192006 7.11383437,11.3724006 7.39440038,11.4660006 C7.67520039,11.5596006 7.7922004,11.7234006 7.6988344,11.8872006 L7.6988344,11.8872006 Z M7.39440038,28.0098014 C7.23083437,28.3140015 6.83303435,28.4546355 6.48203433,28.3376355 C6.13103432,28.1970015 5.99040031,27.8696354 6.13103432,27.5652014 C6.29483432,27.2610014 6.69240034,27.1206014 7.04340036,27.2376014 C7.39440038,27.3780014 7.53503439,27.6822014 7.39440038,28.0098014 L7.39440038,28.0098014 Z M6.48203433,30.2328016 C6.31800033,30.5370016 5.94383431,30.6776356 5.61600029,30.5606356 C5.28840027,30.4436356 5.17140027,30.1158015 5.31203427,29.8116015 C5.47583428,29.5308015 5.8500003,29.3906355 6.17783432,29.5076355 C6.50520033,29.6246355 6.62220034,29.9520015 6.48203433,30.2328016 L6.48203433,30.2328016 Z M4.28220022,12.3786006 C4.16520021,12.5190006 3.8844002,12.5892006 3.60383419,12.5190006 C3.32303417,12.4488006 3.20603416,12.2850006 3.32303417,12.1212006 C3.44003418,11.9808006 3.74400019,11.9106006 4.00140021,11.9808006 C4.25903422,12.0510006 4.37603423,12.2148006 4.28220022,12.3786006 L4.28220022,12.3786006 Z M3.9080342,31.4496016 C3.76740019,31.7070016 3.41640018,31.8240016 3.13583416,31.7306356 C2.85503415,31.6368016 2.73803414,31.3560016 2.87820015,31.0986016 C3.01883416,30.8412016 3.36983417,30.7242016 3.65040019,30.8178016 C3.9312002,30.9116356 4.04820021,31.1922016 3.9080342,31.4496016 L3.9080342,31.4496016 Z M5.8032003,12.7998007 C5.9202003,12.6360007 6.22440032,12.5658006 6.50520033,12.6594007 C6.78600035,12.7530007 6.90300036,12.9402007 6.80940035,13.1040007 C6.69240034,13.2678007 6.38820033,13.3380007 6.10740031,13.2444007 C5.8268343,13.1508007 5.68620029,12.9636007 5.8032003,12.7998007 L5.8032003,12.7998007 Z M6.36503433,3.32280017 C6.48203433,3.20580016 6.78600035,3.15900016 7.09020036,3.25260017 C7.37100038,3.34620017 7.51140039,3.51000018 7.39440038,3.65040019 C7.27740037,3.76740019 6.97320036,3.8142002 6.66900034,3.72060019 C6.36503433,3.62700019 6.24803432,3.46320018 6.36503433,3.32280017 L6.36503433,3.32280017 Z M8.35403443,13.5954007 C8.49420044,13.3848007 8.84520046,13.3146007 9.17303447,13.4316007 C9.50040049,13.5486007 9.6642005,13.7826007 9.54720049,13.9932007 C9.43020049,14.2038007 9.07920047,14.2740007 8.72820045,14.1570007 C8.40083443,14.0400007 8.23703442,13.8060007 8.35403443,13.5954007 L8.35403443,13.5954007 Z M8.61120044,4.11840021 C8.75183445,3.9546002 9.12600047,3.9078002 9.45383449,4.02480021 C9.8048345,4.14180021 9.96840051,4.35240022 9.85140051,4.51620023 C9.7344005,4.68000024 9.36000048,4.70340024 9.00900046,4.60980024 C8.65800045,4.49280023 8.49420044,4.28220022 8.61120044,4.11840021 L8.61120044,4.11840021 Z M10.5770345,12.8466007 C10.4364005,13.0806007 9.99203451,13.1742007 9.59400049,13.0338007 C9.19620047,12.8934007 8.98583446,12.5892006 9.12600047,12.3552006 C9.26640048,12.0978006 9.6878345,12.0276006 10.1090345,12.1680006 C10.5068345,12.3084006 10.7172006,12.6126006 10.5770345,12.8466007 L10.5770345,12.8466007 Z M10.2728345,6.10740031 C10.4130005,5.96700031 10.7640006,5.9202003 11.1150006,6.03720031 C11.4660006,6.15420032 11.6300346,6.38820033 11.5130346,6.55200034 C11.3960346,6.71580035 11.0450346,6.76260035 10.6940346,6.64560034 C10.3430345,6.52860034 10.1558345,6.29460032 10.2728345,6.10740031 L10.2728345,6.10740031 Z M10.8810006,4.86720025 C11.0214006,4.65660024 11.4660006,4.63320024 11.8640346,4.77360025 C12.2618346,4.93740025 12.4722006,5.19480027 12.3552006,5.40540028 C12.2150346,5.59260029 11.7938346,5.63940029 11.3724006,5.49900028 C10.9512006,5.33520027 10.7408346,5.07780026 10.8810006,4.86720025 L10.8810006,4.86720025 Z M13.3850347,6.73920035 C13.8294007,6.90300036 14.0400007,7.20720037 13.9230007,7.44120038 C13.7828347,7.67520039 13.3380007,7.7220004 12.8934007,7.55820039 C12.4490346,7.39440038 12.2150346,7.09020036 12.3552006,6.85620035 C12.4958346,6.62220034 12.9402007,6.57540034 13.3850347,6.73920035 L13.3850347,6.73920035 Z M12.9870007,5.61600029 C13.1510347,5.40540028 13.6190347,5.35860028 14.0870347,5.54580029 C14.5550347,5.73300029 14.7890348,6.06060031 14.6484008,6.29460032 C14.5080007,6.52860034 14.0168347,6.57540034 13.5488347,6.38820033 C13.0808347,6.20100032 12.8232007,5.8734003 12.9870007,5.61600029 L12.9870007,5.61600029 Z M15.6080348,7.58160039 C16.0524008,7.7688004 16.2864008,8.09640042 16.1694008,8.33040043 C16.0290008,8.56440044 15.5844008,8.61120044 15.1400348,8.44740043 C14.6952008,8.26020043 14.4380347,7.93260041 14.5782008,7.6986004 C14.6952008,7.44120038 15.1632008,7.39440038 15.6080348,7.58160039 L15.6080348,7.58160039 Z M15.3972008,6.59880034 C15.5142008,6.41160033 15.8888348,6.38820033 16.2630008,6.55200034 C16.6374009,6.71580035 16.8248349,6.97320036 16.7310009,7.18380037 C16.6140009,7.37100038 16.2398348,7.39440038 15.8652008,7.23060037 C15.4910348,7.06680036 15.2802008,6.78600035 15.3972008,6.59880034 L15.3972008,6.59880034 Z M17.7608349,8.42400043 C18.2288349,8.63460044 18.509401,8.98560046 18.3924009,9.26640048 C18.2520009,9.52380049 17.7840009,9.59400049 17.2928349,9.38340048 C16.8012009,9.17280047 16.5204009,8.79840045 16.6610349,8.51760044 C16.8012009,8.26020043 17.2692009,8.21340042 17.7608349,8.42400043 L17.7608349,8.42400043 Z M17.5032009,7.46460038 C17.6202009,7.27740037 17.9480349,7.25400037 18.2754009,7.39440038 C18.603001,7.53480039 18.790201,7.7922004 18.696835,7.95600041 C18.603001,8.11980042 18.2990349,8.16660042 17.9480349,8.02620041 C17.6202009,7.88580041 17.4330009,7.62840039 17.5032009,7.46460038 L17.5032009,7.46460038 Z M18.767035,9.45360049 C18.907201,9.17280047 19.398835,9.12600047 19.890001,9.33660048 C20.381401,9.57060049 20.6858351,9.96840051 20.5688351,10.2726005 C20.4518351,10.5768005 19.960201,10.6236005 19.445401,10.3896005 C18.930835,10.1556005 18.626401,9.7578005 18.767035,9.45360049 L18.767035,9.45360049 Z M19.703035,2.05920011 C19.890001,2.12940011 20.007001,2.24640012 19.983835,2.34000012 C19.960201,2.43360013 19.796401,2.45700013 19.609201,2.36340012 C19.422001,2.29320012 19.305001,2.17620011 19.328401,2.05920011 C19.352035,1.9890001 19.515835,1.9890001 19.703035,2.05920011 L19.703035,2.05920011 Z M20.007001,4.02480021 C20.054035,3.9078002 20.264401,3.9078002 20.4984011,4.00140021 C20.7324011,4.09500021 20.8962011,4.23540022 20.8494011,4.37580023 C20.8028351,4.49280023 20.5920011,4.49280023 20.358001,4.39920023 C20.124001,4.30560022 19.960201,4.14180021 20.007001,4.02480021 L20.007001,4.02480021 Z M20.5220351,3.27600017 C20.5688351,3.18240016 20.7560351,3.18240016 20.9430011,3.25260017 C21.1538351,3.34620017 21.2708351,3.46320018 21.2472011,3.58020018 C21.2240351,3.69720019 21.0368351,3.69720019 20.8260011,3.60360019 C20.6154011,3.51000018 20.4750011,3.39300017 20.5220351,3.27600017 L20.5220351,3.27600017 Z M21.7152011,5.40540028 C22.0194011,5.52240028 22.2068351,5.73300029 22.1832011,5.8968003 C22.1364011,6.06060031 21.8790011,6.08400031 21.5750351,5.96700031 C21.2708351,5.8500003 21.0834011,5.63940029 21.1070351,5.47560028 C21.1538351,5.33520027 21.4110011,5.28840027 21.7152011,5.40540028 L21.7152011,5.40540028 Z M21.6684011,4.68000024 C21.7152011,4.56300023 21.9260351,4.56300023 22.1364011,4.63320024 C22.3704012,4.72680024 22.5110352,4.86720025 22.4874012,4.98420026 C22.4408352,5.10120026 22.2534011,5.12460026 22.0194011,5.03100026 C21.7854011,4.93740025 21.6450011,4.79700025 21.6684011,4.68000024 L21.6684011,4.68000024 Z M22.5110352,7.11360037 C22.5810012,6.92640036 22.8852012,6.92640036 23.1894012,7.09020036 C23.5170012,7.25400037 23.7042012,7.51140039 23.6574012,7.6986004 C23.5872012,7.88580041 23.3064012,7.88580041 22.9790352,7.7220004 C22.6512012,7.55820039 22.4408352,7.30080038 22.5110352,7.11360037 L22.5110352,7.11360037 Z M23.0258352,6.29460032 C23.0724012,6.13080032 23.2830012,6.13080032 23.5170012,6.27120032 C23.7510012,6.38820033 23.9150352,6.57540034 23.8680012,6.71580035 C23.8212012,6.85620035 23.6108352,6.85620035 23.3768352,6.73920035 C23.1428352,6.62220034 22.9790352,6.43500033 23.0258352,6.29460032 L23.0258352,6.29460032 Z M23.3064012,10.1088005 C23.4000012,9.85140051 23.8448352,9.82800051 24.3128353,10.0386005 C24.7808353,10.2726005 25.0614013,10.6470005 24.9912013,10.9278006 C24.8978353,11.2086006 24.4764013,11.2554006 23.9850012,11.0214006 C23.5170012,10.7874006 23.2130352,10.3896005 23.3064012,10.1088005 L23.3064012,10.1088005 Z M22.4874012,8.82180045 C22.1130011,8.63460044 21.8790011,8.33040043 21.9728351,8.14320042 C22.0662011,7.93260041 22.3940352,7.93260041 22.7682012,8.09640042 C23.1428352,8.28360043 23.3532012,8.56440044 23.2830012,8.77500045 C23.1894012,8.98560046 22.8620352,9.00900046 22.4874012,8.82180045 L22.4874012,8.82180045 Z M21.7152011,9.33660048 C21.7854011,9.21960047 22.0430351,9.19620047 22.2770351,9.31320048 C22.5342012,9.43020049 22.6748352,9.6408005 22.6280352,9.7812005 C22.5810012,9.92160051 22.3238351,9.94500051 22.0662011,9.82800051 C21.8090351,9.7110005 21.6450011,9.50040049 21.7152011,9.33660048 L21.7152011,9.33660048 Z M22.6280352,11.2086006 C22.5110352,11.4894006 22.0662011,11.5596006 21.5750351,11.3256006 C21.0834011,11.0916006 20.7792011,10.6938006 20.8962011,10.3896005 C21.0132011,10.1322005 21.4580351,10.0854005 21.9492011,10.2960005 C22.4408352,10.5300005 22.7214012,10.9278006 22.6280352,11.2086006 L22.6280352,11.2086006 Z M23.1192012,13.7358007 C22.5342012,13.4550007 22.1832011,12.9402007 22.3002011,12.5892006 C22.4172012,12.2148006 22.9554012,12.1446006 23.5404012,12.4254006 C24.1020012,12.7062007 24.4530013,13.1976007 24.3594013,13.5720007 C24.2424012,13.9464007 23.7042012,14.0166007 23.1192012,13.7358007 L23.1192012,13.7358007 Z M22.6280352,15.0462008 C22.0898351,14.7888008 21.7620011,14.3208007 21.8790011,13.9464007 C21.9960011,13.6188007 22.5110352,13.5486007 23.0258352,13.7826007 C23.5640352,14.0400007 23.8680012,14.5080007 23.7744012,14.8590008 C23.6574012,15.2100008 23.1660012,15.3036008 22.6280352,15.0462008 L22.6280352,15.0462008 Z M22.1130011,16.6608009 C21.4812011,16.3566008 21.1302011,15.8184008 21.2472011,15.3972008 C21.4110011,14.9760008 21.9960011,14.8824008 22.6044012,15.1632008 C23.2130352,15.4440008 23.5640352,15.9822008 23.4470352,16.4034008 C23.3064012,16.8246009 22.7450352,16.9416009 22.1130011,16.6608009 L22.1130011,16.6608009 Z M21.5982011,18.3456009 C20.9430011,18.0414009 20.5688351,17.4564009 20.7324011,17.0118009 C20.8730351,16.5672009 21.4812011,16.4502008 22.1130011,16.7310009 C22.7450352,17.0352009 23.1192012,17.5968009 22.9790352,18.0414009 C22.8384012,18.486001 22.2300011,18.626401 21.5982011,18.3456009 L21.5982011,18.3456009 Z M20.288035,18.696601 C20.4518351,18.2754009 21.0132011,18.1584009 21.5982011,18.4158009 C22.1832011,18.696601 22.5110352,19.234801 22.3940352,19.656001 C22.2534011,20.100601 21.6920351,20.241001 21.0834011,19.960201 C20.4750011,19.679401 20.147401,19.141201 20.288035,18.696601 L20.288035,18.696601 Z M19.328401,17.0352009 C18.884035,16.8246009 18.603001,16.4268008 18.720001,16.0992008 C18.837001,15.7950008 19.281835,15.7014008 19.726201,15.9120008 C20.171035,16.1226008 20.4282011,16.4970008 20.334835,16.8246009 C20.217835,17.1288009 19.773001,17.2224009 19.328401,17.0352009 L19.328401,17.0352009 Z M18.0882009,17.6436009 C18.2288349,17.3394009 18.696835,17.2458009 19.141201,17.4330009 C19.609201,17.6436009 19.866835,18.0648009 19.749835,18.3924009 C19.609201,18.720001 19.164835,18.837001 18.696835,18.626401 C18.2288349,18.4158009 17.9712009,17.9946009 18.0882009,17.6436009 L18.0882009,17.6436009 Z M18.650035,12.0744006 C19.001035,12.2382006 19.188001,12.5190006 19.118035,12.7296007 C19.024201,12.9402007 18.673201,13.0104007 18.3222009,12.8466007 C17.9712009,12.6828007 17.7608349,12.4020006 17.8542009,12.1914006 C17.9480349,11.9808006 18.2990349,11.9340006 18.650035,12.0744006 L18.650035,12.0744006 Z M19.960201,11.4894006 C19.820035,11.7702006 19.352035,11.8404006 18.860401,11.6298006 C18.3690009,11.3958006 18.0882009,11.0214006 18.2052009,10.7172006 C18.3222009,10.4130005 18.813835,10.3662005 19.305001,10.5768005 C19.796401,10.7874006 20.077201,11.1852006 19.960201,11.4894006 L19.960201,11.4894006 Z M21.0368351,15.2568008 C20.9198351,15.5844008 20.4282011,15.6780008 19.913401,15.4674008 C19.398835,15.2334008 19.118035,14.7888008 19.235035,14.4612007 C19.375201,14.1102007 19.866835,14.0400007 20.358001,14.2506007 C20.8494011,14.4846007 21.1538351,14.9058008 21.0368351,15.2568008 L21.0368351,15.2568008 Z M20.8730351,12.8934007 C21.3174011,13.1040007 21.5750351,13.4784007 21.4812011,13.7592007 C21.3642011,14.0400007 20.9430011,14.1102007 20.4984011,13.8996007 C20.054035,13.6890007 19.796401,13.3146007 19.890001,13.0338007 C20.007001,12.7530007 20.4282011,12.7062007 20.8730351,12.8934007 L20.8730351,12.8934007 Z M21.4110011,11.4894006 C21.9260351,11.7468006 22.2534011,12.1680006 22.1364011,12.4956006 C22.0194011,12.8232007 21.5048351,12.8934007 20.9664011,12.6594007 C20.4282011,12.4020006 20.124001,11.9574006 20.241001,11.6298006 C20.381401,11.3022006 20.8962011,11.2554006 21.4110011,11.4894006 L21.4110011,11.4894006 Z M20.6858351,6.41160033 C20.7324011,6.29460032 20.9664011,6.24780032 21.2472011,6.36480033 C21.5280011,6.48180033 21.7152011,6.66900034 21.6684011,6.80940035 C21.6218351,6.94980036 21.3878351,6.99660036 21.1070351,6.87960035 C20.8260011,6.76260035 20.6390351,6.57540034 20.6858351,6.41160033 L20.6858351,6.41160033 Z M20.7560351,8.89200046 C20.6858351,9.05580047 20.405035,9.07920047 20.124001,8.93880046 C19.843201,8.79840045 19.656001,8.58780044 19.726201,8.42400043 C19.796401,8.26020043 20.054035,8.23680042 20.358001,8.37720043 C20.6390351,8.51760044 20.8028351,8.72820045 20.7560351,8.89200046 L20.7560351,8.89200046 Z M17.6904009,14.3442007 C17.2928349,14.1570007 17.0588349,13.8294007 17.1758349,13.5720007 C17.2928349,13.2912007 17.6904009,13.2210007 18.0882009,13.4082007 C18.486001,13.5954007 18.720001,13.9230007 18.603001,14.1804007 C18.486001,14.4378007 18.0882009,14.5080007 17.6904009,14.3442007 L17.6904009,14.3442007 Z M16.9650009,15.9354008 C16.5440349,15.7482008 16.3100348,15.3972008 16.4270348,15.1164008 C16.5672009,14.8590008 16.9884009,14.7888008 17.3862009,14.9526008 C17.7840009,15.1398008 18.0180009,15.4674008 17.9244009,15.7482008 C17.8074009,16.0290008 17.3862009,16.0992008 16.9650009,15.9354008 L16.9650009,15.9354008 Z M16.4034008,17.1990009 C16.1460008,17.0820009 16.0058348,16.8714009 16.0760348,16.6842009 C16.1930348,16.5438009 16.4270348,16.4970008 16.6842009,16.5906009 C16.9418349,16.7076009 17.0588349,16.9182009 16.9884009,17.0820009 C16.9182009,17.2692009 16.6610349,17.3160009 16.4034008,17.1990009 L16.4034008,17.1990009 Z M15.1400348,18.509401 C15.2570348,18.2520009 15.6080348,18.1584009 15.9822008,18.2988009 C16.3332008,18.4392009 16.5204009,18.766801 16.4270348,19.024201 C16.3100348,19.281601 15.9590348,19.375201 15.5844008,19.234801 C15.2334008,19.071001 15.0230348,18.766801 15.1400348,18.509401 L15.1400348,18.509401 Z M15.2570348,9.45360049 C15.1400348,9.6408005 14.7890348,9.6876005 14.4144007,9.54720049 C14.0400007,9.40680048 13.8530347,9.14940047 13.9700347,8.93880046 C14.1102007,8.75160045 14.4612007,8.70480045 14.8122008,8.84520046 C15.1632008,8.98560046 15.3504008,9.24300048 15.2570348,9.45360049 L15.2570348,9.45360049 Z M16.0992008,9.8046005 C16.2398348,9.54720049 16.6610349,9.50040049 17.0820009,9.6876005 C17.5032009,9.87480051 17.7372009,10.2024005 17.6438349,10.4598005 C17.5268349,10.7172006 17.1054009,10.7640006 16.6610349,10.5768005 C16.2162008,10.3896005 15.9822008,10.0620005 16.0992008,9.8046005 L16.0992008,9.8046005 Z M16.2630008,13.1742007 C16.1460008,13.4082007 15.7718348,13.4550007 15.3972008,13.3146007 C15.0230348,13.1508007 14.8122008,12.8700007 14.9292008,12.6360007 C15.0462008,12.4020006 15.4208348,12.3552006 15.7950008,12.4956006 C16.1694008,12.6594007 16.3568348,12.9402007 16.2630008,13.1742007 L16.2630008,13.1742007 Z M14.5550347,14.9760008 C14.0870347,14.7888008 13.8294007,14.3910007 13.9700347,14.0868007 C14.1102007,13.7826007 14.6018348,13.6890007 15.0698348,13.8762007 C15.5378348,14.0634007 15.7950008,14.4378007 15.6548348,14.7654008 C15.5142008,15.0696008 15.0230348,15.1632008 14.5550347,14.9760008 L14.5550347,14.9760008 Z M13.6658347,15.7014008 C13.7592007,15.5376008 14.0168347,15.4908008 14.2740007,15.5844008 C14.5314007,15.7014008 14.6720348,15.9120008 14.5782008,16.0758008 C14.4848347,16.2396008 14.2272007,16.3098008 13.9700347,16.1928008 C13.7124007,16.0758008 13.5720007,15.8652008 13.6658347,15.7014008 L13.6658347,15.7014008 Z M13.0572007,12.2850006 C12.7764007,12.1680006 12.6360007,11.9574006 12.7298347,11.7936006 C12.8232007,11.6064006 13.1040007,11.5596006 13.3850347,11.6766006 C13.6658347,11.7936006 13.8060007,11.9808006 13.7124007,12.1680006 C13.6190347,12.3318006 13.3380007,12.3786006 13.0572007,12.2850006 L13.0572007,12.2850006 Z M12.0980346,15.1164008 C12.0042006,15.3036008 11.7000006,15.3738008 11.3960346,15.2568008 C11.0918346,15.1398008 10.9512006,14.9058008 11.0450346,14.7186008 C11.1384006,14.5314007 11.4428346,14.4612007 11.7470346,14.5782008 C12.0278346,14.6952008 12.1914006,14.9058008 12.0980346,15.1164008 L12.0980346,15.1164008 Z M12.0980346,13.9932007 C11.6532006,13.8294007 11.4192006,13.5018007 11.5830006,13.2210007 C11.7234006,12.9402007 12.1680006,12.8700007 12.6128346,13.0338007 C13.0572007,13.1976007 13.2680347,13.5252007 13.1274007,13.8060007 C12.9870007,14.0634007 12.5190006,14.1570007 12.0980346,13.9932007 L12.0980346,13.9932007 Z M24.1722012,22.4874012 C24.0552012,22.9086012 23.5640352,23.0490012 23.0490012,22.8150012 C22.5342012,22.5576012 22.2300011,22.0662011 22.3238351,21.6450011 C22.4640012,21.2238011 22.9320012,21.1068011 23.4470352,21.3408011 C23.9618352,21.5748011 24.2660352,22.0896011 24.1722012,22.4874012 L24.1722012,22.4874012 Z M24.5232013,32.6430017 C24.4530013,32.9472017 24.1254012,33.1110017 23.7980352,32.9706017 C23.4702012,32.8302017 23.2830012,32.4558017 23.3532012,32.1282017 C23.4470352,31.8006016 23.7510012,31.6836016 24.0788352,31.8240016 C24.4062013,31.9646356 24.5934013,32.3388017 24.5232013,32.6430017 L24.5232013,32.6430017 Z M24.2892012,30.3732016 C23.9382012,30.2096356 23.7278352,29.8350015 23.7980352,29.5076355 C23.8914012,29.1798015 24.2190012,29.0628015 24.5700013,29.2032015 C24.9210013,29.3670015 25.1082013,29.7416355 25.0380013,30.0690015 C24.9680353,30.3966016 24.6402013,30.5370016 24.2892012,30.3732016 L24.2892012,30.3732016 Z M24.9210013,26.7930014 C25.2954013,26.9568014 25.5060013,27.3546014 25.4360353,27.6822014 C25.3658353,28.0332014 25.0148353,28.1502014 24.6402013,27.9866354 C24.2660352,27.8226014 24.0552012,27.4248014 24.1254012,27.0738014 C24.2190012,26.7462014 24.5468353,26.6292014 24.9210013,26.7930014 L24.9210013,26.7930014 Z M25.3190353,24.6402013 C25.6932013,24.8274013 25.9272013,25.2018013 25.8570013,25.5294013 C25.7634013,25.8570013 25.4360353,25.9740013 25.0614013,25.7868013 C24.6870013,25.5996013 24.4530013,25.2252013 24.5232013,24.8976013 C24.6170353,24.5934013 24.9444013,24.4764013 25.3190353,24.6402013 L25.3190353,24.6402013 Z M25.7634013,22.5810012 C26.1380353,22.7682012 26.3952014,23.1660012 26.3250014,23.4702012 C26.2314013,23.7978012 25.8804013,23.9148012 25.4828353,23.7276012 C25.0850353,23.5404012 24.8510353,23.1426012 24.9210013,22.8150012 C25.0148353,22.5108012 25.3658353,22.3938012 25.7634013,22.5810012 L25.7634013,22.5810012 Z M26.9334014,21.7620011 C26.8400354,22.1832011 26.3720354,22.3002011 25.8570013,22.0662011 C25.3658353,21.8322011 25.0380013,21.3174011 25.1318353,20.9196011 C25.2488353,20.5218011 25.7168353,20.404801 26.2080013,20.6388011 C26.6994014,20.8728011 27.0270014,21.3642011 26.9334014,21.7620011 L26.9334014,21.7620011 Z M27.5420354,31.4262016 C27.4250354,31.8942016 27.0038354,32.0816357 26.5122014,31.8708016 C26.0210353,31.6368016 25.7168353,31.0986016 25.8102013,30.6306016 C25.9040353,30.1626016 26.3484014,29.9988015 26.8400354,30.2096356 C27.3080354,30.4436356 27.6120014,30.9582016 27.5420354,31.4262016 L27.5420354,31.4262016 Z M26.9802014,29.4372015 C26.4890354,29.2032015 26.1612013,28.6416015 26.2550354,28.1970015 C26.3484014,27.7526354 26.8164014,27.5886014 27.3080354,27.7992014 C27.7992014,28.0332014 28.1034014,28.5716355 28.0332014,29.0396355 C27.9398354,29.4840015 27.4950014,29.6712015 26.9802014,29.4372015 L26.9802014,29.4372015 Z M27.0504014,23.8680012 C27.1440014,23.4234012 27.6120014,23.3064012 28.1270354,23.5404012 C28.6418355,23.7978012 28.9692015,24.3360013 28.8990015,24.7806013 C28.8054015,25.2018013 28.3374015,25.3656013 27.8228354,25.1082013 C27.3080354,24.8508013 26.9570354,24.3126013 27.0504014,23.8680012 L27.0504014,23.8680012 Z M27.7058354,25.6230013 C28.1970015,25.8804013 28.5248355,26.3952014 28.4544015,26.8632014 C28.3842015,27.3078014 27.9398354,27.4716014 27.4014014,27.2376014 C26.8868354,26.9802014 26.5590014,26.4420014 26.6528354,25.9740013 C26.7462014,25.5294013 27.2142014,25.3890013 27.7058354,25.6230013 L27.7058354,25.6230013 Z M24.6638353,8.96220046 C25.0614013,9.17280047 25.3190353,9.50040049 25.2720013,9.7344005 C25.2020353,9.96840051 24.8274013,9.99180051 24.4062013,9.8046005 C23.9850012,9.59400049 23.7278352,9.26640048 23.7980352,9.00900046 C23.8680012,8.79840045 24.2424012,8.77500045 24.6638353,8.96220046 L24.6638353,8.96220046 Z M24.9210013,8.00280041 C25.2020353,8.14320042 25.3890013,8.40060043 25.3658353,8.56440044 C25.3190353,8.72820045 25.0614013,8.75160045 24.7808353,8.58780044 C24.5000353,8.42400043 24.3128353,8.19000042 24.3360013,8.02620041 C24.3830353,7.88580041 24.6402013,7.8624004 24.9210013,8.00280041 L24.9210013,8.00280041 Z M25.7870353,9.99180051 C25.8570013,9.8046005 26.1848353,9.7812005 26.5358354,9.96840051 C26.8868354,10.1556005 27.1440014,10.4598005 27.0740354,10.6704005 C27.0038354,10.8810006 26.6760014,10.9044006 26.3250014,10.7172006 C25.9508353,10.5300005 25.7168353,10.2258005 25.7870353,9.99180051 L25.7870353,9.99180051 Z M27.6120014,10.9278006 C27.6590354,10.7172006 27.9864014,10.6938006 28.3610355,10.8810006 C28.7352015,11.0682006 28.9692015,11.3958006 28.9460355,11.6064006 C28.8990015,11.8404006 28.5714015,11.8638006 28.1970015,11.6766006 C27.8228354,11.4894006 27.5652014,11.1618006 27.6120014,10.9278006 L27.6120014,10.9278006 Z M28.6418355,9.85140051 C28.9692015,10.0386005 29.2032015,10.3194005 29.1800355,10.5066005 C29.1330015,10.6938006 28.8290355,10.7172006 28.5012015,10.5534005 C28.1502014,10.3662005 27.9398354,10.0854005 27.9630014,9.87480051 C28.0100354,9.7110005 28.3140015,9.6876005 28.6418355,9.85140051 L28.6418355,9.85140051 Z M28.9460355,8.91540046 C29.2268355,9.07920047 29.4372015,9.31320048 29.4140355,9.47700049 C29.3670015,9.6408005 29.1330015,9.6408005 28.8290355,9.50040049 C28.5248355,9.33660048 28.3374015,9.10260047 28.3610355,8.93880046 C28.4078355,8.77500045 28.6418355,8.77500045 28.9460355,8.91540046 L28.9460355,8.91540046 Z M29.2032015,8.00280041 C29.4608355,8.14320042 29.6480355,8.35380043 29.6244015,8.49420044 C29.5778355,8.65800045 29.3670015,8.63460044 29.0862015,8.49420044 C28.8290355,8.35380043 28.6418355,8.14320042 28.6650015,7.97940041 C28.7120355,7.8624004 28.9460355,7.8624004 29.2032015,8.00280041 L29.2032015,8.00280041 Z M28.9460355,7.18380037 C28.9928355,7.04340036 29.2032015,7.06680036 29.4372015,7.18380037 C29.6712015,7.32420038 29.8584015,7.48800039 29.8350015,7.65180039 C29.8118355,7.7922004 29.6010015,7.7688004 29.3438355,7.65180039 C29.0862015,7.51140039 28.9224015,7.32420038 28.9460355,7.18380037 L28.9460355,7.18380037 Z M29.2500015,6.41160033 C29.2734015,6.27120032 29.4608355,6.29460032 29.6712015,6.41160033 C29.8820355,6.52860034 30.0458355,6.69240034 30.0222015,6.80940035 C29.9990355,6.92640036 29.8118355,6.90300036 29.6010015,6.80940035 C29.3904015,6.69240034 29.2268355,6.52860034 29.2500015,6.41160033 L29.2500015,6.41160033 Z M29.4840015,5.73300029 C29.5074015,5.61600029 29.6712015,5.63940029 29.8820355,5.7564003 C30.0924015,5.8734003 30.2330356,6.01380031 30.2094016,6.13080032 C30.1860016,6.24780032 30.0222015,6.22440032 29.8118355,6.10740031 C29.6010015,5.99040031 29.4608355,5.8500003 29.4840015,5.73300029 L29.4840015,5.73300029 Z M30.0924015,5.07780026 C30.2798356,5.17140027 30.3968356,5.31180027 30.3732016,5.40540028 C30.3500356,5.49900028 30.2094016,5.47560028 30.0222015,5.38200028 C29.8350015,5.28840027 29.7180015,5.14800026 29.7414015,5.05440026 C29.7650355,4.96080026 29.9052015,4.98420026 30.0924015,5.07780026 L30.0924015,5.07780026 Z M31.0284016,7.11360037 C31.3328356,7.27740037 31.5432016,7.53480039 31.5432016,7.6986004 C31.5200356,7.8624004 31.2624016,7.8624004 30.9350356,7.6986004 C30.6308356,7.53480039 30.3968356,7.27740037 30.4200016,7.11360037 C30.4670356,6.92640036 30.7242016,6.94980036 31.0284016,7.11360037 L31.0284016,7.11360037 Z M31.1454016,6.34140033 C31.4262016,6.50520033 31.6370356,6.69240034 31.6134016,6.87960035 C31.5900016,7.04340036 31.3560016,7.02000036 31.0752016,6.85620035 C30.7944016,6.69240034 30.5840356,6.48180033 30.6072016,6.31800033 C30.6308356,6.15420032 30.8648356,6.17760032 31.1454016,6.34140033 L31.1454016,6.34140033 Z M30.7944016,5.49900028 C30.8180356,5.38200028 31.0284016,5.40540028 31.2624016,5.54580029 C31.4964016,5.68620029 31.6838356,5.8500003 31.6602016,5.99040031 C31.6370356,6.13080032 31.4262016,6.10740031 31.1922016,5.96700031 C30.9350356,5.8266003 30.7710016,5.66280029 30.7944016,5.49900028 L30.7944016,5.49900028 Z M30.9582016,4.79700025 C30.9818356,4.65660024 31.1690356,4.70340024 31.3794016,4.82040025 C31.6134016,4.93740025 31.7772016,5.10120026 31.7540356,5.24160027 C31.7304016,5.35860028 31.5432016,5.33520027 31.3328356,5.21820027 C31.0988356,5.07780026 30.9350356,4.93740025 30.9582016,4.79700025 L30.9582016,4.79700025 Z M31.1220016,4.04820021 C31.1454016,3.9546002 31.3092016,3.9780002 31.4964016,4.09500021 C31.6838356,4.21200022 31.8240016,4.32900022 31.8240016,4.44600023 C31.8008356,4.56300023 31.6602016,4.51620023 31.4498356,4.39920023 C31.2624016,4.28220022 31.0988356,4.14180021 31.1220016,4.04820021 L31.1220016,4.04820021 Z M31.2860356,3.36960017 C31.3092016,3.27600017 31.4262016,3.32280017 31.6134016,3.41640018 C31.7772016,3.51000018 31.9178356,3.62700019 31.8942016,3.72060019 C31.8710356,3.8142002 31.7540356,3.76740019 31.5668356,3.67380019 C31.4030356,3.58020018 31.2624016,3.46320018 31.2860356,3.36960017 L31.2860356,3.36960017 Z M32.2688357,9.31320048 C32.0348356,9.19620047 31.8474016,9.00900046 31.8710356,8.84520046 C31.9178356,8.70480045 32.1050357,8.72820045 32.3390357,8.84520046 C32.5730357,8.98560046 32.7368357,9.17280047 32.7132017,9.31320048 C32.7132017,9.45360049 32.5028357,9.43020049 32.2688357,9.31320048 L32.2688357,9.31320048 Z M31.7772016,9.7812005 C31.8008356,9.61740049 32.0112016,9.61740049 32.2688357,9.7578005 C32.5260017,9.89820051 32.7132017,10.1088005 32.6900357,10.2726005 C32.6664017,10.4364005 32.4560357,10.4364005 32.1984017,10.2960005 C31.9410016,10.1556005 31.7540356,9.94500051 31.7772016,9.7812005 L31.7772016,9.7812005 Z M32.2452017,10.7406006 C32.5260017,10.9044006 32.7132017,11.1384006 32.6900357,11.3256006 C32.6664017,11.4894006 32.4324017,11.5128006 32.1518357,11.3490006 C31.8710356,11.1852006 31.6602016,10.9278006 31.6838356,10.7640006 C31.7304016,10.6002005 31.9644016,10.6002005 32.2452017,10.7406006 L32.2452017,10.7406006 Z M32.0814017,12.4722006 C31.7540356,12.2850006 31.5200356,12.0042006 31.5432016,11.7936006 C31.5668356,11.5830006 31.8474016,11.5830006 32.1750017,11.7468006 C32.5028357,11.9340006 32.7368357,12.2148006 32.7132017,12.4254006 C32.6900357,12.6126006 32.4090017,12.6360007 32.0814017,12.4722006 L32.0814017,12.4722006 Z M32.1050357,12.8232007 C32.4560357,13.0338007 32.7132017,13.3380007 32.6900357,13.5720007 C32.6430017,13.8060007 32.3622017,13.8294007 31.9880356,13.6422007 C31.6370356,13.4550007 31.3794016,13.1274007 31.4030356,12.8934007 C31.4498356,12.6594007 31.7540356,12.6360007 32.1050357,12.8232007 L32.1050357,12.8232007 Z M30.7710016,8.54100044 C30.4434016,8.35380043 30.1860016,8.07300042 30.2330356,7.88580041 C30.2798356,7.7220004 30.5604016,7.7220004 30.8880016,7.90920041 C31.2158356,8.09640042 31.4498356,8.37720043 31.4262016,8.54100044 C31.4030356,8.72820045 31.1220016,8.72820045 30.7710016,8.54100044 L30.7710016,8.54100044 Z M30.6308356,9.50040049 C30.2562016,9.31320048 30.0222015,8.98560046 30.0458355,8.79840045 C30.0924015,8.58780044 30.3968356,8.58780044 30.7478356,8.77500045 C31.0988356,8.96220046 31.3560016,9.26640048 31.3328356,9.47700049 C31.3092016,9.6876005 30.9818356,9.6876005 30.6308356,9.50040049 L30.6308356,9.50040049 Z M31.1220016,11.5596006 C31.0752016,11.8170006 30.7242016,11.8404006 30.2798356,11.6298006 C29.8584015,11.3958006 29.5542015,11.0214006 29.6010015,10.7874006 C29.6712015,10.5300005 30.0222015,10.5066005 30.4434016,10.7172006 C30.8648356,10.9512006 31.1454016,11.3022006 31.1220016,11.5596006 L31.1220016,11.5596006 Z M30.4670356,10.5534005 C30.0690015,10.3428005 29.7882015,9.99180051 29.8350015,9.7812005 C29.8820355,9.54720049 30.2094016,9.54720049 30.6072016,9.7344005 C30.9818356,9.94500051 31.2624016,10.2726005 31.2390016,10.5066005 C31.1922016,10.7406006 30.8648356,10.7640006 30.4670356,10.5534005 L30.4670356,10.5534005 Z M32.3622017,7.93260041 C32.5730357,8.04960041 32.7368357,8.21340042 32.7132017,8.35380043 C32.7132017,8.49420044 32.5260017,8.47080044 32.3154017,8.35380043 C32.1050357,8.23680042 31.9644016,8.07300042 31.9644016,7.93260041 C31.9880356,7.7922004 32.1518357,7.8156004 32.3622017,7.93260041 L32.3622017,7.93260041 Z M32.4090017,7.11360037 C32.5962017,7.23060037 32.7368357,7.37100038 32.7368357,7.46460038 C32.7132017,7.60500039 32.5730357,7.58160039 32.3622017,7.46460038 C32.1750017,7.34760038 32.0348356,7.20720037 32.0348356,7.09020036 C32.0580016,6.97320036 32.2220357,6.99660036 32.4090017,7.11360037 L32.4090017,7.11360037 Z M32.4560357,6.29460032 C32.6198357,6.38820033 32.7368357,6.50520033 32.7600017,6.62220034 C32.7368357,6.71580035 32.5962017,6.69240034 32.4324017,6.59880034 C32.2452017,6.50520033 32.1282017,6.36480033 32.1282017,6.27120032 C32.1518357,6.17760032 32.2920017,6.20100032 32.4560357,6.29460032 L32.4560357,6.29460032 Z M33.7662017,13.7358007 C34.1172018,13.9230007 34.3748358,14.2272007 34.3512018,14.4612007 C34.3280358,14.6952008 34.0470018,14.7420008 33.6960017,14.5548007 C33.3450017,14.3676007 33.0878357,14.0400007 33.1110017,13.8060007 C33.1344017,13.5954007 33.4152017,13.5486007 33.7662017,13.7358007 L33.7662017,13.7358007 Z M35.4980358,15.8184008 C35.9190018,16.0524008 36.2468359,16.4502008 36.2468359,16.7544009 C36.2468359,17.0586009 35.8958358,17.1288009 35.4510018,16.8948009 C35.0064018,16.6608009 34.6790358,16.2396008 34.7022018,15.9354008 C34.7258358,15.6312008 35.0768358,15.5844008 35.4980358,15.8184008 L35.4980358,15.8184008 Z M35.5680018,14.6484008 C35.9424018,14.8356008 36.2232019,15.2100008 36.2232019,15.4908008 C36.2000359,15.7482008 35.8958358,15.7950008 35.5212018,15.5844008 C35.1470358,15.3738008 34.8660018,14.9994008 34.8660018,14.7420008 C34.8894018,14.4846007 35.1938358,14.4378007 35.5680018,14.6484008 L35.5680018,14.6484008 Z M35.6150358,13.5954007 C35.8958358,13.7592007 36.1298359,14.0400007 36.1298359,14.2272007 C36.1062019,14.4378007 35.8722018,14.4612007 35.5680018,14.2974007 C35.2640358,14.1102007 35.0532018,13.8294007 35.0532018,13.6422007 C35.0768358,13.4550007 35.3108358,13.4316007 35.6150358,13.5954007 L35.6150358,13.5954007 Z M37.2294019,18.0882009 C37.6508359,18.3222009 37.978202,18.766801 38.001836,19.094401 C37.978202,19.422001 37.6508359,19.492201 37.2060019,19.258201 C36.7614019,19.024201 36.4340359,18.579601 36.4340359,18.2520009 C36.4572019,17.9244009 36.7850359,17.8542009 37.2294019,18.0882009 L37.2294019,18.0882009 Z M37.6508359,17.5266009 C37.6272019,17.6904009 37.4634019,17.7138009 37.2294019,17.5968009 C36.9954019,17.4798009 36.8318359,17.2458009 36.8318359,17.0820009 C36.8318359,16.9182009 36.9954019,16.8948009 37.2294019,17.0118009 C37.4634019,17.1288009 37.6508359,17.3628009 37.6508359,17.5266009 L37.6508359,17.5266009 Z M37.2530359,15.6546008 C37.5570019,15.8184008 37.7910019,16.0992008 37.7678359,16.3332008 C37.7678359,16.5438009 37.5338359,16.5906009 37.2294019,16.4268008 C36.9252019,16.2630008 36.6912019,15.9588008 36.6912019,15.7482008 C36.7148359,15.5142008 36.9488359,15.4908008 37.2530359,15.6546008 L37.2530359,15.6546008 Z M37.2762019,14.4612007 C37.6040359,14.6484008 37.8612019,14.9526008 37.8848359,15.1866008 C37.8612019,15.3972008 37.6040359,15.4440008 37.2762019,15.2568008 C36.9488359,15.0696008 36.6912019,14.7654008 36.6912019,14.5314007 C36.6912019,14.3208007 36.9488359,14.2974007 37.2762019,14.4612007 L37.2762019,14.4612007 Z M37.2762019,13.4316007 C37.5570019,13.5954007 37.7910019,13.8528007 37.7910019,14.0634007 C37.7910019,14.2506007 37.5804019,14.2740007 37.2762019,14.1102007 C36.9954019,13.9464007 36.7614019,13.6656007 36.7614019,13.4784007 C36.7614019,13.2912007 36.9954019,13.2678007 37.2762019,13.4316007 L37.2762019,13.4316007 Z M38.961002,31.5198016 C39.382202,31.7772016 39.686402,32.3156357 39.710036,32.7366017 C39.686402,33.2046017 39.359036,33.3450017 38.937836,33.1110017 C38.493002,32.8536017 38.189036,32.3156357 38.189036,31.8708016 C38.212202,31.4262016 38.540036,31.2858016 38.961002,31.5198016 L38.961002,31.5198016 Z M38.657036,27.6588014 C38.657036,27.4716014 38.820836,27.4016354 39.031202,27.5186354 C39.242036,27.6356354 39.405836,27.8928014 39.405836,28.1036354 C39.405836,28.2906015 39.242036,28.3608015 39.031202,28.2438015 C38.820836,28.1036354 38.657036,27.8696354 38.657036,27.6588014 L38.657036,27.6588014 Z M38.984402,29.5076355 C39.288836,29.6946015 39.522836,30.0456015 39.522836,30.3498016 C39.522836,30.6540016 39.288836,30.7476016 38.984402,30.5838016 C38.680202,30.3966016 38.446202,30.0456015 38.446202,29.7416355 C38.446202,29.4372015 38.680202,29.3436015 38.984402,29.5076355 L38.984402,29.5076355 Z M39.031202,25.6230013 C39.382202,25.8102013 39.663002,26.2316353 39.663002,26.5356014 C39.663002,26.8632014 39.382202,26.9568014 39.031202,26.7696014 C38.680202,26.5590014 38.399402,26.1612013 38.399402,25.8336013 C38.423036,25.5294013 38.680202,25.4358013 39.031202,25.6230013 L39.031202,25.6230013 Z M39.733202,24.7338013 C39.733202,25.0380013 39.476036,25.1316013 39.125036,24.9444013 C38.774036,24.7338013 38.516402,24.3594013 38.516402,24.0552012 C38.516402,23.7510012 38.774036,23.6808012 39.125036,23.8680012 C39.452402,24.0552012 39.710036,24.4296013 39.733202,24.7338013 L39.733202,24.7338013 Z M39.031202,23.1192012 C38.727002,22.9554012 38.493002,22.6278012 38.493002,22.3704012 C38.493002,22.1364011 38.727002,22.0662011 39.031202,22.2300011 C39.335402,22.3938012 39.569402,22.7214012 39.569402,22.9554012 C39.569402,23.2128012 39.335402,23.2830012 39.031202,23.1192012 L39.031202,23.1192012 Z M38.891036,13.3380007 C39.125036,13.4550007 39.288836,13.6422007 39.288836,13.7826007 C39.288836,13.9464007 39.125036,13.9464007 38.891036,13.8294007 C38.680202,13.7124007 38.493002,13.5252007 38.493002,13.3614007 C38.493002,13.2210007 38.680202,13.2210007 38.891036,13.3380007 L38.891036,13.3380007 Z M38.984402,14.9994008 C38.727002,14.8590008 38.516402,14.6016008 38.516402,14.4378007 C38.516402,14.2740007 38.727002,14.2506007 38.984402,14.3910007 C39.242036,14.5314007 39.452402,14.7888008 39.429002,14.9526008 C39.452402,15.1164008 39.242036,15.1398008 38.984402,14.9994008 L38.984402,14.9994008 Z M38.586836,15.5610008 C38.586836,15.3972008 38.750402,15.3972008 38.961002,15.5142008 C39.171836,15.6546008 39.335402,15.8418008 39.359036,15.9822008 C39.359036,16.1460008 39.195002,16.1460008 38.984402,16.0290008 C38.774036,15.9120008 38.586836,15.7248008 38.586836,15.5610008 L38.586836,15.5610008 Z M39.008036,17.9478009 C39.265202,18.0882009 39.452402,18.3456009 39.452402,18.532801 C39.452402,18.720001 39.265202,18.766801 39.008036,18.626401 C38.774036,18.486001 38.563202,18.2286009 38.563202,18.0414009 C38.563202,17.8542009 38.750402,17.8074009 39.008036,17.9478009 L39.008036,17.9478009 Z M40.5290361,14.6952008 C40.3418361,14.5782008 40.1780361,14.4378007 40.1780361,14.2974007 C40.1780361,14.1804007 40.2950361,14.1804007 40.4820021,14.2740007 C40.6692021,14.3910007 40.8098361,14.5548007 40.8330021,14.6718008 C40.8330021,14.7888008 40.7160021,14.7888008 40.5290361,14.6952008 L40.5290361,14.6952008 Z M41.3010021,19.515601 C41.3244021,19.749601 41.1140361,19.796401 40.8330021,19.632601 C40.5758361,19.468801 40.3418361,19.188001 40.3418361,18.977401 C40.3418361,18.766801 40.5290361,18.743401 40.8098361,18.883801 C41.0904021,19.047601 41.3010021,19.328401 41.3010021,19.515601 L41.3010021,19.515601 Z M42.9158362,26.9802014 C42.7050022,26.8398014 42.5180362,26.5826354 42.5180362,26.3718014 C42.5180362,26.1612013 42.6818362,26.1144013 42.8922022,26.2316353 C43.1030362,26.3486354 43.2668362,26.6292014 43.2900022,26.8398014 C43.2900022,27.0506354 43.1262022,27.1206014 42.9158362,26.9802014 L42.9158362,26.9802014 Z M42.1902022,22.9320012 C42.1902022,22.6980012 42.4010362,22.6278012 42.6818362,22.7916012 C42.9624022,22.9554012 43.1964022,23.2830012 43.2200362,23.5404012 C43.2200362,23.7744012 43.0092022,23.8446012 42.7284022,23.6808012 C42.4478362,23.4936012 42.2138362,23.1894012 42.1902022,22.9320012 L42.1902022,22.9320012 Z M43.1030362,30.7242016 C42.8690362,30.5606356 42.6818362,30.2796016 42.6818362,30.0456015 C42.6818362,29.8116015 42.8454022,29.7416355 43.0560022,29.8818015 C43.2900022,30.0222015 43.4540362,30.3030016 43.4772022,30.5606356 C43.5008362,30.7946356 43.3370362,30.8646016 43.1030362,30.7242016 L43.1030362,30.7242016 Z M43.0092022,29.1330015 C42.6818362,28.9226355 42.4010362,28.4778015 42.3774022,28.1502014 C42.3774022,27.7992014 42.6350362,27.7056014 42.9624022,27.9162014 C43.2900022,28.1268014 43.5710362,28.5480015 43.5942022,28.8990015 C43.5942022,29.2266015 43.3602022,29.3436015 43.0092022,29.1330015 L43.0092022,29.1330015 Z M44.1792023,20.7090011 C44.5538363,20.9196011 44.8580363,21.3408011 44.8812023,21.6216011 C44.9048363,21.9258011 44.6472023,21.9960011 44.2730363,21.7854011 C43.9220363,21.5514011 43.5942022,21.1536011 43.5710362,20.8494011 C43.5474022,20.5686011 43.8050363,20.4984011 44.1792023,20.7090011 L44.1792023,20.7090011 Z M44.4132023,23.2830012 C44.0622023,23.0724012 43.7814023,22.6746012 43.7580023,22.3938012 C43.7348363,22.0896011 43.9920023,22.0428011 44.3198363,22.2300011 C44.6708363,22.4172012 44.9280023,22.8150012 44.9750363,23.1192012 C44.9982023,23.4234012 44.7642023,23.4936012 44.4132023,23.2830012 L44.4132023,23.2830012 Z M45.4194023,30.0926355 C45.4430363,30.3966016 45.2322023,30.4902016 44.9280023,30.3030016 C44.6472023,30.0926355 44.3900363,29.6946015 44.3664023,29.3906355 C44.3430023,29.0862015 44.5538363,28.9926015 44.8580363,29.1798015 C45.1620023,29.3670015 45.4194023,29.7648015 45.4194023,30.0926355 L45.4194023,30.0926355 Z M45.8640024,21.7620011 C46.1918364,21.9726011 46.4724024,22.3470011 46.4960364,22.6278012 C46.5192024,22.9086012 46.3088364,22.9554012 45.9810024,22.7682012 C45.6534023,22.5576012 45.3960023,22.1832011 45.3492023,21.9024011 C45.3024023,21.6216011 45.5364023,21.5748011 45.8640024,21.7620011 L45.8640024,21.7620011 Z M-6.03961325e-14,51.5970027 L51.5970027,51.5970027 L51.5970027,-3.55271368e-15 L-6.03961325e-14,-3.55271368e-15 L-6.03961325e-14,51.5970027 Z" id="Fill-47"></path>
                        </g>
                    </g>
                </g>
            </g>
        </g>
    </g>
</svg>