<?xml version="1.0" encoding="UTF-8"?>
<svg width="16px" height="16px" viewBox="0 0 16 16" version="1.1" xmlns="http://www.w3.org/2000/svg" xmlns:xlink="http://www.w3.org/1999/xlink">
    <title>Shape</title>
    <g id="Symbols" stroke="none" stroke-width="1" fill="none" fill-rule="evenodd">
        <g id="course_item" transform="translate(-436.000000, -32.000000)" fill="#000000" fill-rule="nonzero">
            <g id="Group-7" transform="translate(514.000000, 55.000000) scale(-1, 1) translate(-514.000000, -55.000000) translate(433.000000, 25.000000)">
                <g id="user-big">
                    <g id="Group-5">
                        <path d="M146.99758,11 C146.99758,8.79086089 148.78844,7 150.99758,7 C153.206718,7 154.99758,8.79086089 154.99758,11 C154.99758,13.2091386 153.206718,15 150.99758,15 C148.78844,15 146.99758,13.2091386 146.99758,11 L146.99758,11 Z M158.909579,21.8399991 L157.397579,18.8079993 C156.719409,17.4546357 155.335352,16.5999994 153.821579,16.5999994 L148.173579,16.5999994 C146.659807,16.5999994 145.27575,17.4546357 144.59758,18.8079993 L143.08558,21.8399991 C142.960804,22.0876137 142.973144,22.3821814 143.11819,22.6184933 C143.263237,22.8548053 143.520305,22.9991599 143.79758,22.999999 L158.197579,22.999999 C158.474853,22.9991599 158.731922,22.8548053 158.876968,22.6184933 C159.022015,22.3821814 159.034354,22.0876137 158.909579,21.8399991 Z" id="Shape"></path>
                    </g>
                </g>
            </g>
        </g>
    </g>
</svg>