<?xml version="1.0" encoding="UTF-8"?>
<svg width="45px" height="29px" viewBox="0 0 45 29" version="1.1" xmlns="http://www.w3.org/2000/svg" xmlns:xlink="http://www.w3.org/1999/xlink">
    <title>memebers</title>
    <g id="Main_pages" stroke="none" stroke-width="1" fill="none" fill-rule="evenodd">
        <g id="dashboard_statistics_Overview" transform="translate(-796.000000, -357.000000)" fill="#FFFFFF" fill-rule="nonzero">
            <g id="Group-12" transform="translate(707.000000, 498.500000) scale(-1, 1) translate(-707.000000, -498.500000) translate(311.000000, 271.000000)">
                <g id="Group-4">
                    <g id="Group-2-Copy" transform="translate(64.500001, 33.000001)">
                        <g id="ic-people-outline-48px" transform="translate(198.400004, 53.900001)">
                            <path d="M31,15.7142861 C28.5900006,15.7142861 24.8500005,16.3723218 22,17.6883932 C19.1500004,16.3723218 15.4100003,15.7142861 13,15.7142861 C8.67000019,15.7142861 0,17.8455361 0,22.0982148 L0,27.5000006 L44,27.5000006 L44,22.0982148 C44,17.8455361 35.3300008,15.7142861 31,15.7142861 Z M23.0000001,24.553572 L3.00000007,24.553572 L3.00000007,22.0982148 C3.00000007,21.0473219 8.12000018,18.6607147 13.0000001,18.6607147 C17.8800004,18.6607147 23.0000001,21.0473219 23.0000001,22.0982148 L23.0000001,24.553572 Z M41.0000009,24.553572 L26.0000006,24.553572 L26.0000006,22.0982148 C26.0000006,21.2044647 25.6000006,20.408929 24.9600005,19.7017861 C26.7300006,19.1125004 28.8900006,18.6607147 31.0000007,18.6607147 C35.8800008,18.6607147 41.0000009,21.0473219 41.0000009,22.0982148 L41.0000009,24.553572 Z M13.0000001,13.7500003 C16.8700004,13.7500003 20.0000001,10.6660717 20.0000001,6.87500015 C20.0000001,3.08392864 16.8700004,0 13.0000001,0 C9.1400002,0 6.00000013,3.08392864 6.00000013,6.87500015 C6.00000013,10.6660717 9.1400002,13.7500003 13.0000001,13.7500003 Z M13.0000002,2.94642864 C15.2100003,2.94642864 17.0000002,4.70446439 17.0000002,6.87500015 C17.0000002,9.04553591 15.2100003,10.8035717 13.0000002,10.8035717 C10.7900002,10.8035717 9.0000002,9.04553591 9.0000002,6.87500015 C9.0000002,4.70446439 10.7900002,2.94642864 13.0000002,2.94642864 Z M31.0000005,13.7500003 C34.8700008,13.7500003 38.0000005,10.6660717 38.0000005,6.87500015 C38.0000005,3.08392864 34.8700008,0 31.0000005,0 C27.1400006,0 24.0000005,3.08392864 24.0000005,6.87500015 C24.0000005,10.6660717 27.1400006,13.7500003 31.0000005,13.7500003 Z M31.0000006,2.94642864 C33.2100007,2.94642864 35.0000006,4.70446439 35.0000006,6.87500015 C35.0000006,9.04553591 33.2100007,10.8035717 31.0000006,10.8035717 C28.7900006,10.8035717 27.0000006,9.04553591 27.0000006,6.87500015 C27.0000006,4.70446439 28.7900006,2.94642864 31.0000006,2.94642864 Z" id="memebers"></path>
                        </g>
                    </g>
                </g>
            </g>
        </g>
    </g>
</svg>