<?xml version="1.0" encoding="UTF-8"?>
<svg width="18px" height="20px" viewBox="0 0 18 20" version="1.1" xmlns="http://www.w3.org/2000/svg" xmlns:xlink="http://www.w3.org/1999/xlink">
    <title>mute_mic</title>
    <defs>
        <filter id="filter-1">
            <feColorMatrix in="SourceGraphic" type="matrix" values="0 0 0 0 0.964706 0 0 0 0 0.725490 0 0 0 0 0.000000 0 0 0 1.000000 0"></feColorMatrix>
        </filter>
    </defs>
    <g id="Symbols" stroke="none" stroke-width="1" fill="none" fill-rule="evenodd">
        <g id="Mic_Off" transform="translate(-11.000000, -10.000000)">
            <g filter="url(#filter-1)">
                <g>
                    <g id="mic" transform="translate(11.000000, 10.000000)" fill="#F6B900" fill-rule="nonzero">
                        <path d="M17.85,18.32 L17.32,18.85 C17.2292667,18.9466772 17.1025859,19.0015186 16.97,19.0015186 C16.8374141,19.0015186 16.7107333,18.9466772 16.62,18.85 L12.79,15 C11.9250503,15.4731959 10.9784196,15.7785607 10,15.9 L10,18 L11.5,18 C11.7761424,18 12,18.2238576 12,18.5 L12,19.5 C12,19.7761424 11.7761424,20 11.5,20 L6.5,20 C6.22385763,20 6,19.7761424 6,19.5 L6,18.5 C6,18.2238576 6.22385763,18 6.5,18 L8,18 L8,15.93 L8,15.93 C5.46826601,15.6001998 3.2425011,14.0903892 2,11.86 C1.95075716,11.7312133 1.95075716,11.5887867 2,11.46 C2.04691109,11.3283039 2.14395588,11.2204764 2.27,11.16 L3.17,10.74 C3.40519251,10.620984 3.69239574,10.7093542 3.82,10.94 C5.31220535,13.57937 8.53898651,14.6907215 11.34,13.53 L9.74,11.93 C9.49617731,11.9772081 9.24834991,12.0006512 9,12 C6.790861,12 5,10.209139 5,8 L5,7.24 L0.15,2.38 C0.0533227742,2.28926667 -0.00151864589,2.16258591 -0.00151864589,2.03 C-0.00151864589,1.89741409 0.0533227742,1.77073333 0.15,1.68 L0.68,1.15 C0.770733332,1.05332277 0.89741409,0.998481354 1.03,0.998481354 C1.16258591,0.998481354 1.28926667,1.05332277 1.38,1.15 L17.85,17.62 C17.9466772,17.7107333 18.0015186,17.8374141 18.0015186,17.97 C18.0015186,18.1025859 17.9466772,18.2292667 17.85,18.32 Z M13.0000166,8 L13.0000166,4 C13.0000166,1.790861 11.209139,0 9,0 C7.34832164,0.00646814356 5.87046688,1.0274592 5.28,2.57 L12.55,9.84 C12.8473975,9.27238675 13.0018613,8.64080155 13.0000166,8 L13.0000166,8 Z M16,11.86 C16.0492428,11.7312133 16.0492428,11.5887867 16,11.46 C15.9530889,11.3283039 15.8560441,11.2204764 15.73,11.16 L14.83,10.74 C14.5948075,10.620984 14.3076043,10.7093542 14.18,10.94 C14.11,11.06 14.04,11.18 13.96,11.3 L15.39,12.73 C15.6143678,12.4553322 15.8182501,12.1645493 16,11.86 Z" id="mute_mic"></path>
                    </g>
                </g>
            </g>
        </g>
    </g>
</svg>