<?xml version="1.0" encoding="UTF-8"?>
<svg width="25px" height="19px" viewBox="0 0 25 19" version="1.1" xmlns="http://www.w3.org/2000/svg" xmlns:xlink="http://www.w3.org/1999/xlink">
    <title>open_book</title>
    <defs>
        <linearGradient x1="100%" y1="78.125%" x2="0%" y2="21.875%" id="linearGradient-1">
            <stop stop-color="#0C9EE2" offset="0%"></stop>
            <stop stop-color="#06E8A7" offset="100%"></stop>
        </linearGradient>
    </defs>
    <g id="Main_pages" stroke="none" stroke-width="1" fill="none" fill-rule="evenodd">
        <g id="dashboard_statistics_Overview" transform="translate(-921.000000, -120.000000)" fill="url(#linearGradient-1)" fill-rule="nonzero">
            <g id="kpis" transform="translate(320.000000, 61.000000)">
                <g id="carbs" transform="translate(555.000000, 0.000000)">
                    <g id="carbs-icon" transform="translate(25.200001, 35.200001)">
                        <g id="apple" transform="translate(33.100001, 33.000000) scale(-1, 1) translate(-33.100001, -33.000000) translate(21.100001, 24.000000)">
                            <g id="open-book">
                                <path d="M23.1413304,2.91556822 C23.6147866,2.91556822 24,3.2937282 24,3.75851513 L24,3.75851513 L24,17.1571349 C24,17.4148739 23.882343,17.6550019 23.6772514,17.8156425 C23.4714326,17.9766798 23.2059771,18.0360177 22.9490874,17.9785837 C20.8917067,17.5183185 17.2816743,16.9832464 13.857178,17.8063611 C15.837225,15.9666489 18.6330324,15.6411632 20.3286341,15.6371967 C21.5362341,15.6342616 22.5186213,14.6690691 22.5186213,13.4854054 L22.5186213,13.4854054 L22.5186213,2.91556822 Z M1.48137872,2.91556822 L1.48137872,13.4854054 C1.48137872,14.6690691 2.46384668,15.6342616 3.67136589,15.6371174 C5.36696756,15.6410838 8.16277495,15.9664902 10.1427412,17.8061231 C6.71840646,16.9830084 3.10829329,17.5180012 1.05091263,17.9783457 C0.793618833,18.0359384 0.528405819,17.9763625 0.322748561,17.8154046 C0.117656962,17.6547639 -8.8817842e-14,17.4147152 -8.8817842e-14,17.1568969 L-8.8817842e-14,17.1568969 L-8.8817842e-14,3.75851513 C-8.8817842e-14,3.2937282 0.385294226,2.91556822 0.858669557,2.91556822 L0.858669557,2.91556822 L1.48137872,2.91556822 Z M3.67128509,7.93287139e-05 C5.67484739,0.00468039411 9.31898087,0.460185869 11.2153105,3.45817662 C11.2924825,3.58034284 11.3333715,3.72797358 11.3333715,3.88512376 L11.3333715,3.88512376 L11.3333715,17.1155666 C9.02289906,14.7419722 5.67371607,14.3329534 3.67467904,14.328273 C3.20049562,14.327083 2.81479735,13.9490024 2.81479735,13.4854054 L2.81479735,13.4854054 L2.81479735,0.843184899 C2.81479735,0.616939407 2.90457543,0.404417783 3.06756588,0.244808411 C3.22877855,0.0869442703 3.44227421,7.93287139e-05 3.66926488,7.93287139e-05 L3.66926488,7.93287139e-05 Z M20.3308967,6.92779167e-14 C20.557645,6.92779167e-14 20.7713022,0.0868649416 20.9325149,0.244729082 C21.0955054,0.404338454 21.1852834,0.616860079 21.1852834,0.84310557 L21.1852834,0.84310557 L21.1852834,13.4854054 C21.1852834,13.9489231 20.7995852,14.3270037 20.3254826,14.3281936 C18.3264455,14.332874 14.9772625,14.7418929 12.6667901,17.1154873 L12.6667901,17.1154873 L12.6667901,3.88512376 C12.6667901,3.72797358 12.7075983,3.58034284 12.7847703,3.45817662 C14.6811807,0.460185869 18.3253142,0.00468039411 20.3287957,6.92779167e-14 L20.3287957,6.92779167e-14 Z" id="open_book"></path>
                            </g>
                        </g>
                    </g>
                </g>
            </g>
        </g>
    </g>
</svg>