<?xml version="1.0" encoding="UTF-8"?>
<svg width="18px" height="17px" viewBox="0 0 18 17" version="1.1" xmlns="http://www.w3.org/2000/svg" xmlns:xlink="http://www.w3.org/1999/xlink">
    <title>Path</title>
    <g id="Symbols" stroke="none" stroke-width="1" fill="none" fill-rule="evenodd">
        <g id="Rquest_item_1" transform="translate(-738.000000, -32.000000)" fill="#000000" fill-rule="nonzero">
            <g id="Group-3" transform="translate(542.000000, 40.500000) scale(-1, 1) translate(-542.000000, -40.500000) ">
                <g id="Group-4" transform="translate(245.000000, 28.000000)">
                    <g id="call" transform="translate(83.899998, 4.500000)">
                        <path d="M12.6000002,16.2015615 C11.1116303,16.2002686 9.64648537,15.8324369 8.33400035,15.130561 L7.92900036,14.905561 C5.13067595,13.401038 2.83652354,11.1068856 1.33200053,8.30856118 L1.10700054,7.90356119 C0.38684171,6.5835956 0.00641494752,5.10518916 0,3.6015613 L0,2.99856132 C-0.000379572574,2.5188212 0.190765103,2.05877809 0.531000552,1.72056135 L2.05200051,0.19956139 C2.19971353,0.0506993544 2.40822559,-0.0210512588 2.61626327,0.00539420959 C2.82430096,0.0318396779 3.00822983,0.15347685 3.11400048,0.334561387 L5.13900043,3.80856129 C5.3437785,4.16216099 5.28464738,4.60934008 4.99500043,4.89756127 L3.29400048,6.59856122 C3.15273988,6.73827213 3.11981882,6.95408792 3.21300048,7.12956121 L3.52800047,7.72356119 C4.65933814,9.81916884 6.38033731,11.5370389 8.47800034,12.6645611 L9.07200033,12.9885611 C9.24747361,13.0817427 9.46328941,13.0488217 9.60300031,12.9075611 L11.3040003,11.2065611 C11.5922214,10.9169142 12.0394005,10.857783 12.3930002,11.0625611 L15.8670001,13.087561 C16.0480847,13.1933317 16.1697219,13.3772606 16.1961673,13.5852983 C16.2226128,13.7933359 16.1508622,14.001848 16.0020001,14.149561 L14.4810002,15.670561 C14.1427834,16.0107964 13.6827403,16.2019411 13.2030002,16.2015615 L12.6000002,16.2015615 Z" id="Path"></path>
                    </g>
                </g>
            </g>
        </g>
    </g>
</svg>