<?xml version="1.0" encoding="UTF-8"?>
<svg width="21px" height="21px" viewBox="0 0 21 21" version="1.1" xmlns="http://www.w3.org/2000/svg" xmlns:xlink="http://www.w3.org/1999/xlink">
    <title>Shape</title>
    <g id="Symbols" stroke="none" stroke-width="1" fill="none" fill-rule="evenodd">
        <g id="course_item" transform="translate(-433.000000, -60.000000)" fill="#141821">
            <g id="Group-7" transform="translate(514.000000, 55.000000) scale(-1, 1) translate(-514.000000, -55.000000) translate(433.000000, 25.000000)">
                <g id="user-big-copy" transform="translate(58.000000, 31.000000)">
                    <path d="M94.55,5.05 C94.55,4.470106 94.079915,4 93.5,4 C92.920085,4 92.45,4.470106 92.45,5.05 L92.45,7.15 L87.2,7.15 L84.05,7.1499895 C83.470106,7.1499895 83,7.620085 83,8.1999895 C83,8.7798835 83.4700955,9.2499895 84.05,9.2499895 L85.1,9.25 L85.1,19.75 C85.1,20.90983 86.0402015,21.85 87.2,21.85 L92.45,21.85 L92.45,22.9 L90.35,22.9 C89.770106,22.9 89.3,23.370085 89.3,23.95 C89.3,24.529915 89.770106,25 90.35,25 L93.5,25 L96.65,25 C97.229915,25 97.7,24.529915 97.7,23.95 C97.7,23.370085 97.229915,22.9 96.65,22.9 L94.55,22.9 L94.55,21.85 L99.8,21.85 C100.95983,21.85 101.9,20.90983 101.9,19.75 L101.9,9.25 L102.95,9.25 C103.529915,9.25 104,8.7799045 104,8.2 C104,7.620106 103.529915,7.15 102.95,7.15 L99.8,7.15 L94.55,7.15 L94.55,5.05 Z M93.5,9.25 L89.3,9.25 L87.2,9.25 L87.2,11.35 L87.2,17.65 L87.2,19.75 L89.3,19.75 L93.5,19.75 L97.7,19.75 L99.8,19.75 L99.8,17.65 L99.8,11.35 L99.8,9.25 L97.7,9.25 L93.5,9.25 Z M89.3,12.4 C89.3,11.820106 89.770106,11.35 90.35,11.35 L94.025,11.35 C94.604915,11.35 95.075,11.820106 95.075,12.4 C95.075,12.979915 94.604915,13.45 94.025,13.45 L90.35,13.45 C89.770106,13.45 89.3,12.979915 89.3,12.4 Z M90.35,15.55 C89.770106,15.55 89.3,16.020085 89.3,16.6 C89.3,17.179915 89.7700955,17.65 90.35,17.65 L96.65,17.65 C97.229915,17.65 97.7,17.179915 97.7,16.6 C97.7,16.020085 97.229915,15.55 96.65,15.55 L90.35,15.55 Z" id="Shape"></path>
                </g>
            </g>
        </g>
    </g>
</svg>