<?xml version="1.0" encoding="UTF-8"?>
<svg width="28px" height="41px" viewBox="0 0 28 41" version="1.1" xmlns="http://www.w3.org/2000/svg" xmlns:xlink="http://www.w3.org/1999/xlink">
    <title>Rank</title>
    <g id="Main_pages" stroke="none" stroke-width="1" fill="none" fill-rule="evenodd">
        <g id="dashboard_statistics_full_page" transform="translate(-377.000000, -1296.000000)" fill="#FFFFFF" fill-rule="nonzero">
            <g id="Group-13" transform="translate(311.000000, 929.000000)">
                <g id="Group-11">
                    <g id="Group-6" transform="translate(212.500000, 387.000000) scale(-1, 1) translate(-212.500000, -387.000000) translate(0.000000, 309.000000)">
                        <g id="Group-2-Copy" transform="translate(54.000000, 38.000000)">
                            <g id="Group-2" transform="translate(251.000000, 0.000000)">
                                <path d="M48.7060851,30.6469436 C48.428392,30.1855558 47.8789207,29.9662794 47.3618261,30.1111082 C46.8450429,30.255937 46.4873417,30.7292114 46.4873417,31.2681748 C46.4873417,32.734293 45.3002969,33.9267065 43.8414739,33.9267065 C42.3826509,33.9267065 41.195606,32.734293 41.195606,31.2681748 L41.195606,21.2011638 C41.195606,20.7153772 40.904215,20.2774499 40.4574777,20.0916436 C40.0107404,19.9055244 39.496759,20.0081245 39.1549349,20.3518975 C39.0204467,20.4867166 35.8328904,23.7086106 32.6033066,28.5761729 C30.6986802,31.4464738 29.1788395,34.2936271 28.0861231,37.0384931 C26.7020158,40.5159489 26,43.8448222 26,46.9331484 C26,54.6894671 32.2804728,61 40.0001557,61 C47.7195273,61 54,54.6894671 54,46.9331484 C54.0003114,41.9679908 52.2189658,36.4885814 48.7060851,30.6469436 Z M47.9769849,46.620656 C47.9769849,47.2841159 47.4418341,47.8218281 46.7815345,47.8218281 C46.1215463,47.8218281 45.5860842,47.2841159 45.5860842,46.620656 L45.5860842,44.3744015 L39.6337376,50.3555505 C39.4092794,50.5807703 39.1054358,50.7071436 38.7882057,50.7071436 C38.4712867,50.7071436 38.1671318,50.5807703 37.9429849,50.3555505 L35.1666759,47.5656406 L33.2956716,49.4456001 C32.8286988,49.9148079 32.0718916,49.9148079 31.6049188,49.4456001 C31.137946,48.9763922 31.137946,48.2159627 31.6049188,47.7467548 L34.3214551,45.017529 C34.788428,44.5486341 35.5452352,44.5486341 36.012208,45.0178419 L38.7882057,47.807439 L43.8956427,42.6755563 L41.659777,42.6755563 C40.9994774,42.6755563 40.4643267,42.1378441 40.4643267,41.4743842 C40.4643267,40.8109242 40.9994774,40.273212 41.659777,40.273212 L46.7818459,40.273212 C47.4418341,40.273212 47.9772963,40.8112371 47.9772963,41.4743842 L47.9772963,46.620656 L47.9769849,46.620656 Z" id="Rank"></path>
                            </g>
                        </g>
                    </g>
                </g>
            </g>
        </g>
    </g>
</svg>