<?xml version="1.0" encoding="UTF-8"?>
<svg width="18px" height="18px" viewBox="0 0 18 18" version="1.1" xmlns="http://www.w3.org/2000/svg" xmlns:xlink="http://www.w3.org/1999/xlink">
    <title>Shape</title>
    <g id="Main_pages" stroke="none" stroke-width="1" fill="none" fill-rule="evenodd">
        <g id="dashboard_material_College" transform="translate(-936.000000, -73.000000)" fill="#000000" fill-rule="nonzero">
            <g id="Group-6">
                <g id="Group-5" transform="translate(455.000000, 50.000000)">
                    <g id="Group-4" transform="translate(258.000000, 32.500000) scale(-1, 1) translate(-258.000000, -32.500000) ">
                        <g id="Group-30-Copy" transform="translate(0.000000, 7.000000)">
                            <path d="M34.85,32.44 L30.85,28.44 C30.7204302,28.3073747 30.5761658,28.1899502 30.42,28.09 L29.42,27.4 L29.42,27.4 C31.476924,24.8548608 31.4960262,21.2242585 29.4659975,18.657616 C27.4359689,16.0909735 23.8985929,15.2732884 20.9480998,16.6886541 C17.9976066,18.1040198 16.4214377,21.374697 17.1527311,24.564349 C17.8840245,27.754001 20.7276093,30.0113586 24,30 C25.5880466,30.0004621 27.1290551,29.4609328 28.37,28.47 L28.37,28.47 L29.12,29.47 C29.2089599,29.5987856 29.3093676,29.7192748 29.42,29.83 L33.42,33.83 C33.5138833,33.9246563 33.6416812,33.9778992 33.775,33.9778992 C33.9083188,33.9778992 34.0361167,33.9246563 34.13,33.83 L34.83,33.13 C35.0198312,32.9422338 35.0286367,32.6384465 34.85,32.44 Z M24,28 C21.2385763,28 19,25.7614237 19,23 C19,20.2385763 21.2385763,18 24,18 C26.7614237,18 29,20.2385763 29,23 C29,24.3260824 28.4732158,25.597852 27.5355339,26.5355339 C26.597852,27.4732158 25.3260824,28 24,28 Z" id="Shape"></path>
                        </g>
                    </g>
                </g>
            </g>
        </g>
    </g>
</svg>