<?xml version="1.0" encoding="UTF-8"?>
<svg width="26px" height="26px" viewBox="0 0 26 26" version="1.1" xmlns="http://www.w3.org/2000/svg" xmlns:xlink="http://www.w3.org/1999/xlink">
    <title>Sessions</title>
    <defs>
        <linearGradient x1="100%" y1="100%" x2="0%" y2="0%" id="linearGradient-1">
            <stop stop-color="#0C9EE2" offset="0%"></stop>
            <stop stop-color="#06E8A7" offset="100%"></stop>
        </linearGradient>
    </defs>
    <g id="Main_pages" stroke="none" stroke-width="1" fill="none" fill-rule="evenodd">
        <g id="dashboard_statistics_Overview" transform="translate(-1198.000000, -116.000000)" fill="url(#linearGradient-1)" fill-rule="nonzero">
            <g id="kpis" transform="translate(320.000000, 61.000000)">
                <g id="fat" transform="translate(833.000000, 0.000000)">
                    <g id="fat-icon" transform="translate(24.800021, 35.200001)">
                        <g id="cheeseburger" transform="translate(20.000000, 19.100001)">
                            <path d="M13.1999781,0.699998736 C13.8730944,0.699998736 14.4266965,1.21155384 14.4932674,1.86708237 L14.4999789,1.99999881 L14.4999789,4.59999895 L24.8999795,4.59999895 C25.6179695,4.59999895 26.1999781,5.18203498 26.1999781,5.89999902 C26.1999781,6.5731025 25.6884471,7.12671483 25.0329002,7.19328706 L24.8999795,7.19999874 L23.5999794,7.19999874 L23.5999794,20.1999987 C23.5999794,21.5807498 22.5237774,22.7100576 21.1644116,22.7948849 L20.9999793,22.8 L14.4999789,22.8 L14.4999789,24.1 L17.099979,24.1 C17.8179691,24.1 18.3999791,24.6820101 18.3999791,25.4000001 C18.3999791,26.0731158 17.8884469,26.6267165 17.2328998,26.6932872 L17.099979,26.6999987 L9.29997861,26.6999987 C8.58201457,26.6999987 7.99997854,26.1179901 7.99997854,25.4000001 C7.99997854,24.7268844 8.51153365,24.1732824 9.16706218,24.1067116 L9.29997861,24.1 L11.8999788,24.1 L11.8999788,22.8 L5.3999784,22.8 C4.01926582,22.8 2.88992345,21.723798 2.80509344,20.3644312 L2.79997826,20.1999987 L2.79997826,7.19999874 L1.49997818,7.19998609 C0.782001145,7.19998609 0.199978113,6.61795006 0.199978113,5.89998602 C0.199978113,5.22688255 0.711533219,4.6732699 1.36706175,4.60669763 L1.49997818,4.59998595 L5.3999784,4.59999895 L11.8999788,4.59999895 L11.8999788,1.99999881 C11.8999788,1.28203477 12.4819888,0.699998736 13.1999781,0.699998736 Z M20.9999793,7.19999909 L5.3999784,7.19999909 L5.3999784,20.1999991 L20.9999793,20.1999991 L20.9999793,7.19999909 Z M17.099979,14.9999995 C17.8179691,14.9999995 18.3999791,15.5820096 18.3999791,16.2999996 C18.3999791,17.0179896 17.8179691,17.5999997 17.099979,17.5999997 L17.099979,17.5999997 L9.29997861,17.5999997 C8.58200157,17.5999997 7.99997854,17.0179896 7.99997854,16.2999996 C7.99997854,15.5820096 8.58201457,14.9999995 9.29997861,14.9999995 L9.29997861,14.9999995 Z M13.8499789,9.79999924 C14.5679689,9.79999924 15.1499789,10.3820353 15.1499789,11.0999993 C15.1499789,11.8179893 14.5679689,12.3999994 13.8499789,12.3999994 L9.29997861,12.3999994 C8.58201457,12.3999994 7.99997854,11.8179893 7.99997854,11.0999993 C7.99997854,10.3820353 8.58201457,9.79999924 9.29997861,9.79999924 L13.8499789,9.79999924 Z" id="Sessions"></path>
                        </g>
                    </g>
                </g>
            </g>
        </g>
    </g>
</svg>