<?xml version="1.0" encoding="UTF-8"?>
<svg width="17px" height="18px" viewBox="0 0 17 18" version="1.1" xmlns="http://www.w3.org/2000/svg" xmlns:xlink="http://www.w3.org/1999/xlink">
    <title>Settings</title>
    <g id="Symbols" stroke="none" stroke-width="1" fill="none" fill-rule="evenodd">
        <g id="edit" transform="translate(-11.000000, -11.000000)" fill="#FFFFFF" fill-rule="nonzero">
            <g id="Settings">
                <path d="M20.1284455,28.7099762 L19.4116104,28.7099762 C18.4498218,28.70726 17.6068053,28.0801552 17.3471253,27.1742191 C17.2402331,26.8004857 17.463285,26.4127458 17.8453257,26.3081779 C18.2273664,26.2036099 18.6237248,26.4218117 18.730617,26.7955452 C18.8198706,27.1077671 19.1162716,27.319435 19.4474521,27.3074563 L20.1642873,27.3074563 C20.4954678,27.319435 20.7918688,27.1077671 20.8811224,26.7955452 L21.2108665,25.624461 C21.304124,25.2394918 21.5592532,24.9109609 21.9133649,24.7198511 C22.0280585,24.6707637 22.1427521,24.6076514 22.2574458,24.5445391 C22.3721394,24.4814268 22.4796646,24.411302 22.5871899,24.3411772 C22.9304371,24.0979984 23.3660798,24.0158452 23.7771362,24.1167778 L24.9885875,24.4183144 C25.299305,24.4947473 25.6241405,24.3601952 25.7842745,24.0887279 L26.1283553,23.506692 C26.2895956,23.2343676 26.2456328,22.8903127 26.0208301,22.6651944 L25.1462912,21.8026593 C24.8660818,21.5025989 24.7327074,21.0983847 24.7807053,20.6946875 C24.8020152,20.430962 24.8020152,20.1660027 24.7807053,19.9022772 C24.7443592,19.4956298 24.8909205,19.0936696 25.182133,18.8013178 L26.0566718,17.9317703 C26.2814745,17.706652 26.3254373,17.3625971 26.1641971,17.0902727 L25.8201162,16.5082368 C25.6591656,16.2337541 25.3302421,16.098725 25.0172609,16.1786503 L23.8058096,16.4801869 C23.4002809,16.5787873 22.9709594,16.4993996 22.6302,16.2628 C22.4026295,16.1129522 22.1628811,15.9816124 21.9133649,15.8701011 C21.5569692,15.6851317 21.2967367,15.3618228 21.1965298,14.9795162 L20.8596173,13.794407 C20.7703637,13.4821851 20.4739628,13.2705173 20.1427822,13.282496 L19.4259471,13.282496 C19.0947665,13.2705173 18.7983655,13.4821851 18.709112,13.794407 L18.4223779,14.9654912 C18.3049258,15.3707193 18.0075206,15.7028524 17.6123543,15.8701011 C17.4976607,15.926201 17.3757987,15.9823008 17.2682734,16.0454131 C17.1607482,16.1085255 17.0460545,16.1786503 16.9385293,16.2487751 C16.5952821,16.4919538 16.1596394,16.574107 15.748583,16.4731744 L14.5514684,16.1716378 C14.2407509,16.0952049 13.9159154,16.2297571 13.7557814,16.5012244 L13.4117005,17.0832602 C13.2504603,17.3555846 13.2944231,17.6996395 13.5192258,17.9247578 L14.3937646,18.7872929 C14.6869665,19.0812953 14.833687,19.4862553 14.7951923,19.8952647 C14.7731738,20.1589624 14.7731738,20.4239774 14.7951923,20.687675 C14.8315384,21.0943224 14.6849772,21.4962827 14.3937646,21.7886344 L13.5120575,22.6651944 C13.2872548,22.8903127 13.243292,23.2343676 13.4045322,23.506692 L13.748613,24.0887279 C13.9095637,24.3632106 14.2384872,24.4982397 14.5514684,24.4183144 C14.9354885,24.3214923 15.3270329,24.5475431 15.4260072,24.923213 C15.5249814,25.2988829 15.2939061,25.6819134 14.9098859,25.7787356 C13.9732011,26.0150032 12.9905322,25.6103957 12.5084883,24.7899759 L12.1644075,24.2009276 C11.6935204,23.3874607 11.8278523,22.367597 12.4941516,21.6974721 L13.3686904,20.8279246 C13.3373799,20.4873378 13.3373799,20.1446893 13.3686904,19.8041025 L12.4941516,18.8924801 C11.8208887,18.2199857 11.6862184,17.1918257 12.1644075,16.3749997 L12.5084883,15.7929639 C12.9918666,14.9782379 13.9699634,14.5771719 14.9027176,14.8112166 L16.1141689,15.1127533 C16.2595645,15.0094032 16.4102991,14.9134392 16.565775,14.8252416 C16.7139209,14.7410918 16.8668458,14.6639546 17.0245495,14.5938298 L17.3757987,13.4227456 C17.6335238,12.5115271 18.4809825,11.8804306 19.4474521,11.8799999 L20.1642873,11.8799999 C21.1260758,11.8826922 21.9690923,12.509797 22.2287724,13.4157331 L22.5656849,14.6008422 C22.8862352,14.7421899 23.1932952,14.9111555 23.4832338,15.1057408 L24.6946851,14.8112166 C25.6291062,14.5784413 26.6076871,14.982572 27.0889144,15.7999763 L27.4329952,16.3820122 C27.9148593,17.2005076 27.7800185,18.2328378 27.1032511,18.906505 L26.2143756,19.7830651 C26.2450808,20.1236781 26.2450808,20.4662741 26.2143756,20.8068872 L27.081746,21.6974721 C27.762033,22.3723043 27.8970455,23.4088195 27.4114902,24.2289775 L27.0674093,24.8110133 C26.5840311,25.6257393 25.6059342,26.0268053 24.6731801,25.7927605 L23.4617287,25.4912239 C23.3163332,25.594574 23.1655986,25.690538 23.0101226,25.7787356 C22.8595873,25.8628853 22.7090519,25.9400226 22.5513482,26.0101474 L22.2072673,27.1812316 C21.9434834,28.0893993 21.0935374,28.7144313 20.1284455,28.7099762 Z M23.3470351,20.2949761 C23.3470351,18.3585332 21.7423451,16.788736 19.7628596,16.788736 C17.7833741,16.788736 16.1786841,18.3585332 16.1786841,20.2949761 C16.1786841,22.231419 17.7833741,23.8012162 19.7628596,23.8012162 C21.7423451,23.8012162 23.3470351,22.231419 23.3470351,20.2949761 L23.3470351,20.2949761 Z M21.9133649,20.2949761 C21.9133649,21.4568419 20.9505509,22.3987202 19.7628596,22.3987202 C18.5751683,22.3987202 17.6123543,21.4568419 17.6123543,20.2949761 C17.6123543,19.1331104 18.5751683,18.1912321 19.7628596,18.1912321 C20.9505509,18.1912321 21.9133649,19.1331104 21.9133649,20.2949761 L21.9133649,20.2949761 Z"></path>
            </g>
        </g>
    </g>
</svg>