<?xml version="1.0" encoding="UTF-8"?>
<svg width="34px" height="31px" viewBox="0 0 34 31" version="1.1" xmlns="http://www.w3.org/2000/svg" xmlns:xlink="http://www.w3.org/1999/xlink">
    <title>Star</title>
    <g id="Main_pages" stroke="none" stroke-width="1" fill="none" fill-rule="evenodd">
        <g id="dashboard_statistics_Overview" transform="translate(-387.000000, -357.000000)" fill="#FFFFFF" fill-rule="nonzero">
            <g id="Group-12" transform="translate(707.000000, 498.500000) scale(-1, 1) translate(-707.000000, -498.500000) translate(311.000000, 271.000000)">
                <g id="Group-4-Copy" transform="translate(412.500009, 0.000000)">
                    <g id="Group-2-Copy" transform="translate(28.000000, 36.000000)">
                        <g id="star" transform="translate(242.000000, 50.000000)">
                            <path d="M25.3944673,30.8000007 C25.04176,30.8014365 24.6939987,30.7192845 24.3812652,30.5606321 L17.1441074,26.8859123 C16.7226997,26.6706116 16.2194038,26.6706116 15.797996,26.8859123 L14.1479241,27.7306755 C13.6888408,27.9788416 13.1275772,27.9656361 12.6813658,27.6961699 C12.2351543,27.4267038 11.9740186,26.9432641 11.999029,26.4329622 C12.0240395,25.9226604 12.3312712,25.4655777 12.8018127,25.2386241 L14.4518847,24.3938609 C15.7161079,23.7479588 17.2259956,23.7479588 18.4902188,24.3938609 L24.3667909,27.4068496 L23.2377943,21.042967 C22.9978711,19.675926 23.4631234,18.281416 24.4825854,17.3119296 L29.3025326,12.7220497 L22.7311932,11.7928102 C21.3165625,11.5937487 20.0932471,10.7302543 19.4599979,9.48379085 L16.5651348,3.69716309 L13.6702716,9.48379085 C13.0378829,10.7708559 11.780346,11.6604742 10.3267047,11.8491277 L3.75536542,12.7220497 L8.51741527,17.2274533 C9.54149762,18.199996 10.007139,19.6009388 9.76220642,20.9725701 L8.38714643,28.7443913 C8.29923646,29.2473993 7.94212539,29.6665781 7.45033352,29.8440271 C6.95854165,30.0214761 6.40678385,29.9302366 6.00290195,29.6046775 C5.59902006,29.2791185 5.40437332,28.7687002 5.4922833,28.2656921 L6.86734329,20.4938709 C6.9494423,20.0343362 6.79224891,19.5650779 6.44758813,19.2408055 L0.657861867,13.7357655 C0.0648593766,13.1750457 -0.149158962,12.3353216 0.105902148,11.5700919 C0.360963257,10.8048622 1.04080332,10.2470365 1.85923007,10.1314426 L9.87800094,8.99101233 C10.3487515,8.9222356 10.754641,8.63270468 10.9635746,8.21664608 L14.5532049,1.17695294 C14.9190166,0.456246281 15.6736926,0 16.5,0 C17.3263081,0 18.0809841,0.456246281 18.4467958,1.17695294 L22.0364261,8.21664608 C22.2453597,8.63270468 22.6512492,8.9222356 23.1219998,8.99101233 L31.1407706,10.1314426 C31.9591974,10.2470365 32.6390375,10.8048622 32.8940986,11.5700919 C33.1491597,12.3353216 32.9351413,13.1750457 32.3421388,13.7357655 L26.5524126,19.2408055 C26.2123711,19.562031 26.0555715,20.0248543 26.1326574,20.4797915 L27.5221917,28.3220097 C27.6335317,28.9373655 27.4590329,29.5690923 27.0456231,30.047301 C26.6322132,30.5255096 26.0223317,30.8011087 25.379993,30.8000007 L25.3944673,30.8000007 Z" id="Star"></path>
                        </g>
                    </g>
                </g>
            </g>
        </g>
    </g>
</svg>