<?xml version="1.0" encoding="UTF-8"?>
<svg width="37px" height="40px" viewBox="0 0 37 40" version="1.1" xmlns="http://www.w3.org/2000/svg" xmlns:xlink="http://www.w3.org/1999/xlink">
    <title>timer</title>
    <g id="Main_pages" stroke="none" stroke-width="1" fill="none" fill-rule="evenodd">
        <g id="dashboard_statistics_Overview" transform="translate(-794.000000, -604.000000)" fill="#FFFFFF" fill-rule="nonzero">
            <g id="Group-12" transform="translate(707.000000, 498.500000) scale(-1, 1) translate(-707.000000, -498.500000) translate(311.000000, 271.000000)">
                <g id="Group-5" transform="translate(0.000000, 251.900005)">
                    <g id="Group-2-Copy-2" transform="translate(57.900001, 35.000001)">
                        <path d="M246.580007,57.0326017 L248.817407,54.7952016 C249.194739,54.4102465 249.194739,53.7941566 248.817407,53.4092015 L247.411607,52.0034014 C247.225718,51.8159819 246.972678,51.710561 246.708707,51.710561 C246.444736,51.710561 246.191696,51.8159819 246.005807,52.0034014 L243.808007,54.3200015 C241.725935,52.6304047 239.289415,51.432449 236.680006,50.8154013 L236.680006,48.3800012 C236.680006,47.2864773 235.79353,46.400001 234.700006,46.400001 L230.740006,46.400001 C229.646482,46.400001 228.760006,47.2864773 228.760006,48.3800012 L228.760006,50.8154013 C220.655497,52.6625889 214.90459,59.8676536 214.900005,68.1800024 C215.008013,77.7783307 222.614166,85.6107532 232.205206,86.0000035 C239.144077,86.1858558 245.559399,82.3255563 248.644955,76.1076937 C251.730511,69.889831 250.924701,62.4461127 246.580007,57.0326017 Z M232.720006,82.0400032 C225.065339,82.0400032 218.860005,75.8346695 218.860005,68.1800024 C218.860005,60.5253353 225.065339,54.3200015 232.720006,54.3200015 C240.374673,54.3200015 246.580007,60.5253353 246.580007,68.1800024 C246.580007,75.8346695 240.374673,82.0400032 232.720006,82.0400032 L232.720006,82.0400032 Z M233.769406,58.2800018 C233.495189,58.2574635 233.224298,58.3524158 233.024161,58.5412239 C232.824024,58.730032 232.713466,58.9949375 232.720006,59.2700018 L232.720006,68.1800024 L226.463206,74.4368028 C226.263371,74.6448028 226.162023,74.9283316 226.184724,75.2158777 C226.207425,75.5034239 226.352007,75.767537 226.582006,75.9416029 C228.789638,77.6821004 231.633129,78.4019714 234.403006,77.921603 C239.343419,77.1513315 242.933963,72.8180918 242.772753,67.8205912 C242.611543,62.8230906 238.749192,58.7302669 233.769406,58.2800018 L233.769406,58.2800018 Z" id="timer"></path>
                    </g>
                </g>
            </g>
        </g>
    </g>
</svg>