<?xml version="1.0" encoding="UTF-8"?>
<svg width="25px" height="19px" viewBox="0 0 25 19" version="1.1" xmlns="http://www.w3.org/2000/svg" xmlns:xlink="http://www.w3.org/1999/xlink">
    <title>Trainees</title>
    <defs>
        <linearGradient x1="100%" y1="78.125%" x2="0%" y2="21.875%" id="linearGradient-1">
            <stop stop-color="#0C9EE2" offset="0%"></stop>
            <stop stop-color="#06E8A7" offset="100%"></stop>
        </linearGradient>
    </defs>
    <g id="Main_pages" stroke="none" stroke-width="1" fill="none" fill-rule="evenodd">
        <g id="dashboard_statistics_Overview" transform="translate(-364.000000, -120.000000)" fill="url(#linearGradient-1)" fill-rule="nonzero">
            <g id="kpis" transform="translate(320.000000, 61.000000)">
                <g id="calories">
                    <path d="M65.0540013,72.6420013 L62.3000013,71.9530013 L62.1890013,71.5100013 C64.0750013,71.1730013 65.0540013,70.6040013 65.0980013,70.5770013 C65.2390013,70.4940013 65.3270013,70.3440013 65.3390013,70.1810013 C65.3510013,70.0170013 65.2780013,69.8560013 65.1510013,69.7530013 C65.1380013,69.7430013 63.8660013,68.6700013 63.8660013,64.9740013 C63.8660013,61.7000013 63.0760013,60.0390013 61.5180013,60.0390013 L61.3510013,60.0390013 C60.8150013,59.5340013 60.3770013,59.3170013 59.4080013,59.3030013 C59.2350013,59.3080013 59.0550013,59.4060013 58.9670013,59.5680013 C58.8780013,59.7300013 58.8890013,59.9330013 58.9900013,60.0880013 C59.8030013,61.3300013 59.7960013,62.6190013 58.9690013,63.6240013 C58.8150013,63.8110013 58.8180013,64.0820013 58.9740013,64.2660013 C59.3790013,64.7420013 59.5670013,65.3700013 59.4890013,65.9910013 L59.3040013,67.4700013 C59.2330013,68.0390013 58.9480013,68.5540013 58.5030013,68.9210013 C58.4240013,68.9860013 58.3670013,69.0730013 58.3390013,69.1710013 C58.1970013,69.6760013 57.9910013,70.1640013 57.7260013,70.6220013 C57.6470013,70.7580013 57.6380013,70.9230013 57.6990013,71.0670013 C57.7610013,71.2120013 57.8860013,71.3190013 58.0380013,71.3570013 L59.2970013,71.6710013 C61.6540013,72.2610013 63.3000013,74.3700013 63.3000013,76.8000013 C63.3000013,77.0760013 63.5240013,77.3000013 63.8000013,77.3000013 L67.8000013,77.3000013 C68.0760013,77.3000013 68.3000013,77.0740013 68.3000013,76.7980013 C68.3000013,74.8290013 66.9660013,73.1190013 65.0540013,72.6420013 Z M59.0540013,72.6420013 L56.2990013,71.9540013 L56.0950013,71.1370013 C56.8250013,70.3910013 57.3290013,69.3910013 57.4970013,68.3590013 C57.9270013,68.2060013 58.2520013,67.8200013 58.3110013,67.3450013 L58.4960013,65.8670013 C58.5390013,65.5170013 58.4320013,65.1650013 58.2010013,64.9000013 C58.0870013,64.7700013 57.9480013,64.6660013 57.7940013,64.5930013 L57.8560013,63.3430013 L58.0990013,63.0990013 C58.5480013,62.6220013 58.9210013,61.8070013 58.1530013,60.6350013 C57.5730013,59.7490013 56.5950013,59.3000013 55.2440013,59.3000013 C54.7230013,59.3000013 53.5280013,59.3000013 52.4020013,60.0420013 C49.1560013,60.1230013 48.7350013,61.7290013 48.7350013,63.1260013 C48.7350013,63.4430013 48.8050013,64.1100013 48.8580013,64.5690013 C48.6860013,64.6400013 48.5310013,64.7500013 48.4050013,64.8930013 C48.1700013,65.1600013 48.0600013,65.5150013 48.1040013,65.8670013 L48.2890013,67.3450013 C48.3520013,67.8520013 48.7190013,68.2570013 49.1920013,68.3870013 C49.3590013,69.3760013 49.8370013,70.3400013 50.5220013,71.0700013 L50.3010013,71.9540013 L47.5460013,72.6420013 C45.6340013,73.1190013 44.3000013,74.8290013 44.3000013,76.8000013 C44.3000013,77.0760013 44.5240013,77.3000013 44.8000013,77.3000013 L61.8000013,77.3000013 C62.0760013,77.3000013 62.3000013,77.0740013 62.3000013,76.7980013 C62.3000013,74.8290013 60.9660013,73.1190013 59.0540013,72.6420013 Z" id="Trainees"></path>
                </g>
            </g>
        </g>
    </g>
</svg>