<?xml version="1.0" encoding="UTF-8"?>
<svg width="20px" height="22px" viewBox="0 0 20 22" version="1.1" xmlns="http://www.w3.org/2000/svg" xmlns:xlink="http://www.w3.org/1999/xlink">
    <title>Trainers</title>
    <defs>
        <linearGradient x1="92.3695768%" y1="100%" x2="7.6304232%" y2="0%" id="linearGradient-1">
            <stop stop-color="#0C9EE2" offset="0%"></stop>
            <stop stop-color="#06E8A7" offset="100%"></stop>
        </linearGradient>
    </defs>
    <g id="Main_pages" stroke="none" stroke-width="1" fill="none" fill-rule="evenodd">
        <g id="dashboard_statistics_Overview" transform="translate(-646.000000, -118.000000)" fill="url(#linearGradient-1)" fill-rule="nonzero">
            <g id="kpis" transform="translate(320.000000, 61.000000)">
                <g id="proteins" transform="translate(278.000000, 0.000000)">
                    <g id="protein-icon" transform="translate(25.200001, 35.200001)">
                        <g id="chicken" transform="translate(23.100001, 22.200001)">
                            <g id="scientist">
                                <path d="M6.59967055,14.3671512 L8.98576075,19.1394016 L8.98576075,20.7900017 L5.94741049,18.5176615 L6.81009057,16.7922314 C6.90053057,16.6114214 6.89080057,16.3966614 6.78461056,16.2247413 C6.67835055,16.0528213 6.49061054,15.9481713 6.28845052,15.9481713 L6.28845052,15.9481713 L5.09782042,15.9481713 L5.71039047,14.7228912 L6.59967055,14.3671512 Z M4.08037034,15.3749413 L3.6325103,16.2706614 C3.54207029,16.4514014 3.55180029,16.6661614 3.6579903,16.8380814 C3.76425031,17.0100014 3.95199033,17.1146514 4.15415034,17.1146514 L4.15415034,17.1146514 L5.34471044,17.1146514 L4.69959039,18.4048915 C4.57961038,18.6449915 4.63890039,18.9360516 4.8433704,19.1100016 L4.8433704,19.1100016 L6.81835057,20.7900017 L-3.19744231e-14,20.7900017 L0.36589003,19.3265816 C0.794850066,17.6110215 2.03119017,16.1946413 3.6731103,15.5378313 L3.6731103,15.5378313 L4.08037034,15.3749413 Z M15.0577713,15.3749413 L15.4650313,15.5378313 C17.1069514,16.1945713 18.3432915,17.6109515 18.7722516,19.3265816 L18.7722516,19.3265816 L19.1380016,20.7900017 L12.319791,20.7900017 L14.2947712,19.1100016 C14.4992412,18.9360516 14.5585312,18.6450615 14.4384812,18.4048915 L14.4384812,18.4048915 L13.7933611,17.1146514 L14.9839912,17.1146514 C15.1860813,17.1146514 15.3738213,17.0100014 15.4801513,16.8380814 C15.5863413,16.6661614 15.5960713,16.4514014 15.5056313,16.2706614 L15.5056313,16.2706614 L15.0577713,15.3749413 Z M12.538401,14.3672212 L13.4276811,14.7229612 L14.0402512,15.9482413 L12.8496211,15.9482413 C12.6475311,15.9482413 12.459791,16.0528913 12.353461,16.2248113 C12.247271,16.3967314 12.237541,16.6114914 12.327981,16.7923014 L12.327981,16.7923014 L13.1906611,18.5177315 L10.1522408,20.7900017 L10.1522408,19.1394716 L12.538401,14.3672212 Z M11.447381,13.9408512 L9.56900079,17.6975415 L7.69069064,13.9408512 C8.30165069,14.2089512 8.93214074,14.3475512 9.56900079,14.3475512 C10.2059308,14.3475512 10.8364209,14.2089512 11.447381,13.9408512 L11.447381,13.9408512 Z M6.0263705,4.16381035 C7.42973062,4.8628304 11.3295709,6.53604054 15.2940213,6.53604054 L15.2940213,6.53604054 L15.2376961,6.78368753 C14.4651777,10.0010116 12.1326758,13.1810711 9.56900079,13.1810711 C6.90459057,13.1810711 4.48959037,9.74498081 3.81647032,6.40311053 C5.01753042,5.78165048 5.69254047,4.8031904 6.0263705,4.16381035 Z M9.56900079,1.86517468e-14 C11.4221809,1.86517468e-14 12.8627111,0.343420029 13.8506911,1.02074008 C14.9655112,1.78493015 15.5073813,2.96688025 15.5073813,4.63407038 C15.5073813,4.8745904 15.4958313,5.11924043 15.4737113,5.36655045 C10.7754509,5.47638045 6.0776105,2.87686024 6.0295205,2.84991024 C5.87615049,2.76381023 5.69226047,2.75142023 5.52909046,2.81624023 C5.36578045,2.88092024 5.24027044,3.01581025 5.18756043,3.18346026 C5.18336043,3.19669027 4.7993404,4.37752036 3.6477703,5.15088043 C3.6365703,4.97693041 3.6306903,4.8044504 3.6306903,4.63407038 C3.6306903,2.96688025 4.17256035,1.78493015 5.28738044,1.02074008 C6.27536052,0.343420029 7.71582064,1.86517468e-14 9.56900079,1.86517468e-14 Z" id="Trainers"></path>
                            </g>
                        </g>
                    </g>
                </g>
            </g>
        </g>
    </g>
</svg>