<?xml version="1.0" encoding="utf-8"?>
<!-- Generator: Adobe Illustrator 24.1.0, SVG Export Plug-In . SVG Version: 6.00 Build 0)  -->
<svg version="1.1" id="Layer_1" xmlns="http://www.w3.org/2000/svg" xmlns:xlink="http://www.w3.org/1999/xlink" x="0px" y="0px"
	 viewBox="0 0 25 24" style="enable-background:new 0 0 25 24;" xml:space="preserve">
<style type="text/css">
	.st0{fill:#ACBBD0;}
</style>
<g id="Symbols">
	<g id="Left-Navigation" transform="translate(-69.000000, -569.000000)">
		<path id="Communication" class="st0" d="M84.4,584.4c2.4,0,4.4-2,4.4-4.4v-6.6c0-2.4-2-4.4-4.4-4.4h-11c-2.4,0-4.4,2-4.4,4.4v13.8
			c0,0.3,0.2,0.5,0.6,0.5c0.1,0,0.3-0.1,0.4-0.2l2.2-2.2c0.6-0.6,1.5-1,2.4-0.9H84.4z M71.2,583.3v-9.9c0-1.2,1-2.2,2.2-2.2h11
			c1.2,0,2.2,1,2.2,2.2v6.6c0,1.2-1,2.2-2.2,2.2h-9.9C73.3,582.2,72.2,582.6,71.2,583.3z M82.8,577.8h1.1c0.3,0,0.6-0.2,0.6-0.5
			v-1.1c0-0.3-0.2-0.6-0.6-0.6h-1.1c-0.3,0-0.6,0.2-0.6,0.6v1.1C82.2,577.6,82.4,577.8,82.8,577.8z M78.3,577.8h1.1
			c0.3,0,0.6-0.2,0.6-0.5v-1.1c0-0.3-0.2-0.6-0.6-0.6h-1.1c-0.3,0-0.5,0.2-0.5,0.6v1.1C77.8,577.6,78,577.8,78.3,577.8z M75.6,577.2
			v-1.1c0-0.3-0.2-0.6-0.5-0.6h-1.1c-0.3,0-0.5,0.2-0.5,0.6v1.1c0,0.3,0.2,0.5,0.5,0.5h1.1C75.4,577.8,75.6,577.6,75.6,577.2z
			 M91,573.4v8.8c0,2.4-2,4.4-4.4,4.4H73.4c0,1.2,1,2.2,2.2,2.2h12.1c0.9,0,1.7,0.3,2.3,1l2.2,2.2c0.1,0.1,0.2,0.2,0.4,0.2
			c0.3,0,0.6-0.2,0.6-0.5v-16C93.2,574.4,92.2,573.4,91,573.4z"/>
	</g>
</g>
</svg>
