<?xml version="1.0" encoding="utf-8"?>
<!-- Generator: Adobe Illustrator 24.1.0, SVG Export Plug-In . SVG Version: 6.00 Build 0)  -->
<svg version="1.1" id="Layer_1" xmlns="http://www.w3.org/2000/svg" xmlns:xlink="http://www.w3.org/1999/xlink" x="0px" y="0px"
	 viewBox="0 0 26 24" style="enable-background:new 0 0 26 24;" xml:space="preserve">
<style type="text/css">
	.st0{fill-rule:evenodd;clip-rule:evenodd;fill:#ACBBD0;}
</style>
<g id="Symbols">
	<g id="Left-Navigation" transform="translate(-68.000000, -627.000000)">
		<path id="Services" class="st0" d="M80.3,627.1c0.5-0.2,1-0.2,1.4,0l11.1,4.5c1.6,0.7,1.6,3,0,3.6l-1.9,0.8l1.9,0.8
			c1.6,0.7,1.6,3,0,3.6l-1.9,0.8l1.9,0.8c1.6,0.7,1.6,3,0,3.6l-11.1,4.5c-0.5,0.2-1,0.2-1.4,0l-11.1-4.5c-1.6-0.7-1.6-3,0-3.6
			l1.9-0.8l-1.9-0.8c-1.6-0.7-1.6-3,0-3.6l1.9-0.8l-1.9-0.8c-1.6-0.7-1.6-3,0-3.6L80.3,627.1z M74.6,637.5l-3,1.2l9.4,3.8l9.4-3.8
			l-3-1.2l-5.7,2.3c-0.5,0.2-1,0.2-1.4,0L74.6,637.5z M74.6,642.7l-3,1.2l9.4,3.8l9.4-3.8l-3-1.2l-5.7,2.3c-0.5,0.2-1,0.2-1.4,0
			L74.6,642.7z M81,629.7l-9.4,3.8l9.4,3.8l9.4-3.8L81,629.7z"/>
	</g>
</g>
</svg>
