<?xml version="1.0" encoding="utf-8"?>
<!-- Generator: Adobe Illustrator 24.1.0, SVG Export Plug-In . SVG Version: 6.00 Build 0)  -->
<svg version="1.1" id="Layer_1" xmlns="http://www.w3.org/2000/svg" xmlns:xlink="http://www.w3.org/1999/xlink" x="0px" y="0px"
	 viewBox="0 0 27 27" style="enable-background:new 0 0 27 27;" xml:space="preserve">
<style type="text/css">
	.st0{fill:#ACBBD0;}
</style>
<g>
	<path class="st0" d="M19.1,13.6c0-3-2.5-5.5-5.5-5.5s-5.5,2.5-5.5,5.5s2.5,5.5,5.5,5.5S19.1,16.6,19.1,13.6z M13.6,16.8
		c-1.8,0-3.2-1.4-3.2-3.2c0-1.8,1.4-3.2,3.2-3.2c1.8,0,3.2,1.4,3.2,3.2C16.8,15.4,15.4,16.8,13.6,16.8z"/>
	<path class="st0" d="M24.9,10.7l-0.8-0.1c-0.2-0.7-0.5-1.4-0.9-2.2l0.5-0.7c0.6-1,0.5-2.1-0.3-2.8l-1-1C21.7,3,20.4,3,19.6,3.5
		L18.9,4c-0.8-0.4-1.5-0.7-2.2-0.9l-0.1-0.8c-0.1-1-1.1-1.8-2.2-1.8h-1.5c-1.1,0-2.1,0.8-2.2,1.8l-0.1,0.8C9.8,3.3,9,3.6,8.2,4
		L7.5,3.5C6.7,2.9,5.4,3.1,4.7,3.8l-1,1C2.9,5.6,2.8,6.7,3.4,7.6l0.5,0.7C3.5,9.1,3.2,9.9,3,10.6l-0.8,0.1c-1,0.1-1.8,1.1-1.8,2.2
		v1.5c0,1.1,0.8,2.1,1.8,2.2L3,16.7c0.2,0.7,0.5,1.4,0.9,2.2l-0.5,0.7c-0.6,1-0.5,2.1,0.3,2.8l1,1c0.7,0.9,2.1,0.9,2.9,0.3l0.7-0.5
		c0.8,0.4,1.5,0.7,2.2,0.9l0.1,0.8c0.1,1,1.1,1.8,2.2,1.8h1.5c1.1,0,2-0.8,2.2-1.8l0.1-0.8c0.7-0.2,1.4-0.5,2.2-0.9l0.7,0.5
		c0.4,0.3,0.9,0.4,1.3,0.4c0.6,0,1.2-0.2,1.6-0.7l1-1c0.8-0.8,0.9-1.9,0.3-2.9L23.2,19c0.4-0.8,0.7-1.5,0.9-2.2l0.8-0.1
		c1-0.1,1.8-1.1,1.8-2.2v-1.5C26.7,11.8,25.9,10.8,24.9,10.7z M14.6,22.9l-0.3,1.5l0,0l-1.3,0L12.7,23c0-0.5-0.4-0.9-0.9-0.9
		c-1.2-0.3-2.1-0.7-2.8-1.2c-0.3-0.2-0.5-0.2-0.7-0.2c-0.2,0-0.4,0.1-0.6,0.2l-1.2,0.9l-1-1l0.9-1.3c0.2-0.4,0.2-0.8,0-1.2
		c-0.5-0.8-1-1.8-1.2-2.9c0-0.5-0.4-0.9-0.9-0.9l-1.4-0.3l0-1.4l1.4-0.3c0.5,0,0.9-0.4,0.9-0.9c0.3-1.2,0.7-2.2,1.2-2.9
		c0.2-0.4,0.2-0.8,0-1.2L5.4,6.3l0.9-1l1.4,0.9c0.4,0.2,0.8,0.2,1.2,0c0.8-0.5,1.8-1,2.9-1.2c0.5,0,0.9-0.4,0.9-0.9L13,2.6l0,0
		l1.3,0L14.6,4c0,0.5,0.4,0.9,0.9,0.9c1.2,0.3,2.2,0.7,2.9,1.2c0.4,0.2,0.8,0.2,1.2,0l1.2-0.9l1,1L21,7.5c-0.2,0.4-0.2,0.8,0,1.2
		c0.5,0.8,1,1.8,1.2,2.9c0,0.5,0.4,0.9,0.9,0.9l1.4,0.3l0,1.4l-1.4,0.3c-0.5,0-0.9,0.4-0.9,0.9c-0.3,1.2-0.7,2.2-1.2,2.9
		c-0.2,0.4-0.2,0.8,0,1.2l0.9,1.2l-0.9,1l-1.4-0.9c-0.4-0.2-0.8-0.2-1.2,0c-0.8,0.5-1.8,1-2.9,1.2C15.1,22,14.6,22.4,14.6,22.9z"/>
</g>
</svg>
