<?xml version="1.0" encoding="utf-8"?>
<!-- Generator: Adobe Illustrator 24.1.0, SVG Export Plug-In . SVG Version: 6.00 Build 0)  -->
<svg version="1.1" id="Layer_1" xmlns="http://www.w3.org/2000/svg" xmlns:xlink="http://www.w3.org/1999/xlink" x="0px" y="0px"
	 viewBox="0 0 21 22" style="enable-background:new 0 0 21 22;" xml:space="preserve">
<style type="text/css">
	.st0{fill:#FF0044;stroke:#FF0044;stroke-width:0.2;stroke-linejoin:round;}
</style>
<g id="Symbols">
	<g id="print_logout" transform="translate(-13.000000, -73.000000)">
		<g id="Group-27">
			
				<g id="Group-15" transform="translate(104.500000, 85.000000) scale(-1, 1) translate(-104.500000, -85.000000) translate(0.000000, 61.000000)">
				<path id="logout" class="st0" d="M188.2,15.9c0.2-0.4,0.7-0.6,1.1-0.4c3.4,1.4,5.7,4.7,5.7,8.4c0,5.1-4.3,9.2-9.5,9.2
					c-5.2,0-9.5-4.1-9.5-9.2c0-3.7,2.3-7,5.7-8.4c0.4-0.2,0.9,0,1.1,0.4c0.2,0.4,0,0.9-0.4,1.1c-2.8,1.2-4.7,3.9-4.7,6.9
					c0,4.1,3.5,7.5,7.8,7.5c4.3,0,7.8-3.4,7.8-7.5c0-3-1.9-5.7-4.7-6.9C188.2,16.8,188,16.3,188.2,15.9z M185.5,13
					c0.5,0,0.9,0.4,0.9,0.8l0,0v7.5c0,0.5-0.4,0.8-0.9,0.8s-0.9-0.4-0.9-0.8l0,0v-7.5C184.6,13.4,185,13,185.5,13z"/>
			</g>
		</g>
	</g>
</g>
</svg>
