<svg xmlns="http://www.w3.org/2000/svg" width="52" height="52" viewBox="0 0 52 52">
<defs>
    <linearGradient id="grad1" x1="0%" y1="0%" x2="100%" y2="0%">
      <stop offset="0%" style="stop-color:#7fbf50;stop-opacity:1" />
      <stop offset="100%" style="stop-color:#00aeed;stop-opacity:1" />
    </linearGradient>
  </defs>
    <g fill="url(#grad1)" fill-rule="evenodd">
        <path d="M26.02 16.45c-.233-.117-.444-.07-.49.094-.024.164.116.374.35.491.234.117.445.07.492-.093.023-.164-.117-.375-.351-.492M25.67 17.854c-.258-.117-.515-.07-.562.117-.047.187.117.445.398.585.257.14.515.07.562-.117.046-.21-.117-.444-.398-.585M29.04 13.361c-.211-.117-.398-.093-.422.024-.023.164.117.327.328.444.21.117.398.094.421-.046.023-.14-.117-.305-.328-.422M27.916 18.977c-.234-.093-.444-.046-.491.117-.047.164.117.398.35.515.235.117.445.07.492-.117.047-.164-.117-.398-.35-.515M29.952 20.007c-.234-.117-.421-.07-.468.094-.047.187.117.42.351.538.234.117.445.07.468-.117.023-.164-.117-.398-.35-.515M26.372 15c-.21-.094-.421-.07-.492.07-.023.14.117.35.351.468.234.117.422.093.468-.07.047-.141-.093-.352-.327-.469M26.723 13.666c-.234-.117-.421-.094-.468.046-.047.164.117.351.327.468.234.094.422.094.468-.07.024-.14-.117-.327-.327-.444M32.41 18.065c-.212-.117-.399-.094-.422.093-.024.164.14.375.35.492.211.117.399.07.422-.094.023-.164-.14-.374-.35-.491M32.573 16.66c-.21-.116-.375-.093-.421.071-.024.164.14.351.35.468.235.117.398.094.422-.07 0-.164-.14-.351-.351-.468M32.666 15.21c-.234-.117-.42-.094-.444.07-.024.14.14.375.374.492.234.117.421.093.445-.07.023-.164-.14-.375-.375-.492M30.865 14.297c-.21-.117-.375-.093-.398.047-.024.164.117.328.327.445.211.117.375.093.398-.047.024-.164-.117-.328-.327-.445M32.245 19.562c-.234-.117-.421-.07-.468.094 0 .164.14.398.375.515.234.117.42.07.444-.094.024-.187-.14-.398-.35-.515M31.988 20.99c-.258-.14-.492-.07-.515.14-.023.21.164.468.421.609.281.117.492.07.515-.14 0-.211-.164-.469-.421-.61M27.05 12.308c-.234-.117-.468-.093-.491.024-.047.164.117.374.351.491.234.14.445.094.491-.047.047-.14-.117-.35-.35-.468"/>
        <path d="M49.397 24.804c-.21-.164-.397-.421-.42-.608-.048-.188.093-.234.303-.094.211.14.398.398.422.608.046.188-.094.234-.305.094zm-.561 9.828c-.164-.14-.304-.398-.328-.608 0-.211.117-.258.281-.14.164.14.304.397.304.608.024.21-.093.28-.257.14zm-1.123-10.881c-.258-.164-.468-.468-.492-.679-.023-.21.14-.28.375-.117.234.14.444.445.491.679.047.21-.117.28-.374.117zm-.796 9.477c-.187-.117-.351-.421-.374-.632-.024-.234.117-.304.304-.163.187.14.351.42.374.631.024.234-.117.305-.304.164zm-.164-2.62c.187.14.351.397.375.608.023.21-.117.257-.305.14-.187-.14-.35-.398-.374-.608-.023-.211.117-.258.304-.14zm-.702-6.436c-.234-.164-.468-.468-.491-.702 0-.21.164-.28.421-.117.257.164.468.445.491.679 0 .234-.163.304-.42.14zm-.959 7.863c-.258-.164-.445-.492-.468-.75 0-.256.164-.35.398-.186.234.164.421.468.468.749 0 .257-.164.35-.398.187zm-1.1 17.76c-.257-.234-.468-.725-.468-1.123-.023-.421.164-.561.421-.351.258.21.445.702.468 1.123 0 .422-.164.562-.421.351zm-.889-5.686c-.351-.257-.655-.819-.655-1.287 0-.468.257-.632.608-.398.351.258.632.82.655 1.287 0 .468-.257.656-.608.398zm-.351 2.738c-.304-.234-.562-.749-.562-1.193 0-.445.234-.585.538-.375.305.234.562.749.562 1.194 0 .444-.234.608-.538.374zm-.164-25.67c.351.21.655.585.679.913.023.304-.234.374-.609.163-.35-.21-.655-.608-.678-.912 0-.304.257-.375.608-.164zm-.094-1.357c.305.187.539.491.562.749 0 .234-.21.28-.515.117-.304-.188-.538-.515-.561-.75 0-.233.21-.28.514-.116zm-.842-6.131c-.164-.094-.28-.234-.304-.351 0-.117.117-.117.28-.023.164.093.305.234.305.35 0 .118-.117.118-.281.024zm-.538 14.344c-.398-.234-.702-.678-.702-1.053 0-.374.304-.468.678-.257.375.234.679.702.702 1.053 0 .374-.28.491-.678.257zm-.421.796c0-.21.163-.257.374-.14.21.14.374.397.374.585 0 .187-.163.257-.374.14-.21-.117-.374-.374-.374-.585zm.421 6.529c.327.21.585.678.608 1.1 0 .397-.257.538-.608.327-.328-.234-.609-.702-.609-1.1 0-.398.258-.538.609-.327zm-.07 4.305c-.422-.28-.749-.89-.749-1.38.023-.492.327-.68.749-.422.421.258.725.843.748 1.358-.023.514-.327.702-.748.444zm0 2.668c-.375-.258-.679-.82-.679-1.31.023-.492.328-.656.702-.422.374.258.679.819.655 1.287 0 .515-.28.702-.678.445zm-.117 2.387c-.281-.188-.492-.609-.492-.983 0-.375.211-.492.492-.328.28.187.468.609.491.983 0 .35-.21.491-.491.328zm.608-18.931c0 .28-.234.35-.538.187-.304-.187-.562-.538-.562-.819 0-.28.234-.351.538-.187.305.187.539.538.562.819zm-.562-3.089c-.35-.187-.655-.585-.655-.89 0-.28.258-.35.609-.163.35.21.631.608.655.866.023.304-.258.398-.609.187zm-.117-2.574c.398.21.726.632.75.96 0 .327-.305.42-.703.187-.421-.234-.725-.656-.749-.983 0-.328.305-.375.702-.164zm-.468-6.833c.188.094.328.258.375.421 0 .14-.14.14-.328.024-.21-.117-.374-.281-.374-.421 0-.14.14-.14.327-.024zm-1.333 6.997c-.468-.258-.82-.726-.82-1.077 0-.327.352-.397.796-.163.445.257.796.725.82 1.053 0 .35-.328.444-.796.187zm.046 1.497c-.42-.234-.748-.678-.748-1.03 0-.35.327-.42.748-.186.422.234.75.678.75 1.006 0 .35-.328.444-.75.21zm-.163 13.924c-.492-.305-.843-.936-.843-1.475.024-.538.398-.725.89-.444.491.28.842.912.842 1.474-.024.538-.398.725-.89.445zm-.14 2.386c-.399-.257-.703-.795-.703-1.263.024-.468.351-.632.749-.398.398.234.702.772.702 1.24-.023.468-.351.655-.749.421zm-.094 2.434c-.305-.187-.515-.608-.515-.983.023-.351.257-.491.561-.327.305.187.515.608.515.982-.023.351-.257.515-.561.328zm-1.498-19.726c-.468-.258-.819-.75-.819-1.124.023-.35.398-.444.866-.187.468.258.819.749.819 1.1-.024.374-.398.468-.866.21zm-.796.444c.024-.327.328-.398.726-.187.374.21.678.632.678.96-.023.304-.327.397-.725.187-.398-.234-.679-.632-.679-.96zm.632 2.715c-.444-.258-.772-.75-.772-1.124.023-.374.374-.468.819-.234.445.234.772.702.772 1.1-.023.398-.374.492-.819.258zm-.07 1.731c-.398-.21-.679-.655-.679-1.006.024-.351.328-.445.726-.234.398.21.702.655.678.983-.023.374-.327.468-.725.257zm-.07 1.872c-.421-.234-.726-.702-.702-1.076.023-.351.351-.468.749-.257.397.234.702.678.702 1.053-.024.374-.328.514-.749.28zm-.14 4.4c-.492-.258-.843-.843-.82-1.334.024-.468.422-.632.89-.375.468.281.819.843.819 1.31-.024.492-.398.656-.89.399zm-.211 2.27c-.445-.258-.772-.82-.749-1.288.047-.468.398-.631.842-.397.445.257.773.795.75 1.263-.024.492-.399.655-.843.421zm-.094 2.222c-.257-.14-.468-.491-.444-.795.023-.281.234-.398.514-.258.281.14.468.492.445.773-.023.304-.234.42-.515.28zm-1.661-9.828c-.538-.28-.936-.889-.89-1.357.047-.468.469-.608 1.007-.328.515.281.912.866.889 1.334-.023.468-.468.632-1.006.351zm-.164 1.919c-.491-.28-.842-.842-.819-1.31.07-.445.468-.609.96-.351.467.257.842.819.795 1.287-.023.468-.445.632-.936.374zm-.164 2.13c-.444-.258-.749-.773-.725-1.194.047-.421.398-.585.842-.351.445.234.749.749.726 1.194-.024.42-.398.585-.843.35zm-.21 1.965c-.281-.14-.468-.444-.445-.725.023-.281.257-.375.515-.234.257.14.444.468.444.725-.023.258-.234.375-.514.234zm2.62-4.54c.422.235.75.75.75 1.17-.024.422-.375.562-.82.328-.444-.257-.772-.772-.749-1.193.024-.398.375-.538.82-.304zm-.819-7.043c-.023.398-.42.491-.912.234-.492-.28-.843-.772-.819-1.17.023-.374.421-.468.912-.21.492.257.843.772.82 1.146zm-2.34 4.142c-.046.538-.561.702-1.17.398-.608-.328-1.029-.96-.982-1.498.077-.425.443-.59.897-.479-.32-.25-.56-.575-.687-.902-.257.234-.678.258-1.146.024-.445-.258-.82-.632-.96-1.053-.25.205-.655.23-1.108.017.545.32.893.88.827 1.363-.093.515-.655.679-1.287.375-.631-.328-1.029-.96-.936-1.474.137-.478.649-.62 1.235-.35-.406-.238-.709-.599-.837-.96-.28.21-.702.233-1.193 0-.562-.282-.936-.773-1.006-1.218-.196.232-.543.313-.945.226.395.32.614.757.523 1.155-.117.491-.725.655-1.38.351-.655-.304-1.053-.936-.913-1.427.112-.39.519-.54.998-.447-.462-.352-.712-.85-.6-1.262.117-.397.515-.538 1.006-.468-.421-.35-.632-.772-.538-1.146.094-.328.445-.468.866-.421-.351-.305-.538-.702-.445-1.007.117-.374.562-.491 1.1-.327-.468-.328-.749-.796-.655-1.147.093-.304.444-.421.866-.327-.361-.294-.546-.651-.496-.928-.122.342-.632.387-1.189.132-.562-.28-.913-.749-.819-1.1.14-.35.655-.398 1.217-.14.545.273.866.721.799 1.068.099-.32.516-.388 1.026-.226-.445-.28-.679-.678-.609-.96.117-.303.585-.35 1.17-.093.515.281.89.726.82 1.053.093-.327.538-.35 1.076-.093.444.234.749.585.819.889.136-.175.45-.202.835-.073-.406-.277-.665-.65-.625-.933.07-.305.492-.351 1.007-.07.491.257.842.701.819 1.029-.039.25-.347.323-.74.2.355.235.61.56.67.853.163-.187.514-.187.935.023.422.234.75.609.82.936.14-.21.491-.234.935 0 .492.281.866.75.843 1.1-.047.304-.351.375-.772.234.391.255.665.623.731.942.129-.204.484-.217.907-.006.514.281.889.772.889 1.147-.024.374-.445.468-.96.187-.434-.237-.782-.64-.867-.985-.097.18-.333.245-.63.19.303.262.518.595.556.892.119-.255.487-.287.941-.05.515.28.913.795.913 1.217-.023.42-.445.514-.983.234-.486-.275-.855-.74-.904-1.121-.111.264-.428.349-.85.208.467.351.771.842.748 1.24-.047.328-.304.492-.679.445.307.286.506.644.536.963.097-.366.512-.451 1.032-.191.538.304.96.866.936 1.334-.023.468-.491.608-1.053.304-.507-.275-.878-.778-.928-1.218-.065.307-.351.44-.757.376.343.301.58.707.625 1.068.131-.348.55-.42 1.06-.156.562.304.983.913.96 1.428-.047.491-.515.655-1.1.35-.512-.286-.899-.806-.956-1.26-.118.308-.456.42-.882.303.413.335.682.827.644 1.262zm-1.31 2.13c-.491-.258-.819-.773-.772-1.218.07-.42.468-.561.96-.327.467.257.795.772.771 1.193-.07.445-.468.585-.959.351zm-.234 1.778c-.257-.14-.445-.421-.421-.679.023-.234.257-.327.515-.187.257.14.444.445.421.655-.024.258-.258.351-.515.21zm-.772-5.102c-.07.422-.492.539-.983.305-.491-.258-.819-.773-.772-1.17.07-.422.491-.539.983-.305.491.258.819.75.772 1.17zm-.468 1.755c-.07.328-.398.445-.772.258-.375-.187-.632-.609-.585-.913.07-.327.397-.444.772-.257.374.187.632.585.585.912zm-.375 2.107c-.046.327-.35.444-.725.28-.351-.187-.608-.585-.562-.936.047-.327.375-.421.726-.257.351.187.608.585.561.913zm-.491 2.152c-.047.351-.351.468-.725.305-.375-.164-.609-.585-.539-.936.047-.328.375-.445.726-.281.351.187.585.561.538.912zm-.491 2.387c-.07.328-.375.468-.702.304-.351-.163-.562-.561-.492-.865.07-.328.375-.468.702-.305.328.164.538.539.492.866zm-.609 2.34c-.047.328-.35.468-.655.328-.328-.164-.515-.515-.468-.843.07-.327.351-.468.655-.327.328.164.515.515.468.842zm-.702 2.832c-.047.304-.304.468-.608.327-.304-.14-.492-.491-.421-.819.046-.327.304-.468.608-.327.281.14.468.49.421.819zm-1.334-3.744c-.093.444-.491.631-.912.444-.421-.21-.679-.678-.585-1.123.093-.421.491-.608.912-.421.422.187.679.678.585 1.1zm-.631 2.948c-.094.398-.468.608-.89.445-.397-.188-.655-.68-.561-1.1.093-.421.491-.632.889-.445s.632.655.562 1.1zm-.749 3.136c-.094.42-.445.631-.796.468-.374-.164-.585-.609-.491-1.03.093-.398.444-.608.795-.445.351.164.562.585.492 1.007zm-.749 3.182c-.094.374-.398.585-.702.468-.304-.14-.491-.515-.398-.913.094-.374.398-.561.702-.444.304.14.492.515.398.889zm-1.498-7.207c-.304-.14-.468-.492-.397-.82.093-.303.374-.444.678-.327.304.14.468.468.398.796-.094.35-.374.491-.679.35zm-.748-11.42c-.281-.14-.445-.42-.375-.655.07-.234.328-.327.609-.187.28.14.444.398.374.655-.07.234-.328.328-.608.187zm-.773-3.088c-.14.42-.655.561-1.216.327-.562-.257-.866-.772-.726-1.217.14-.397.655-.538 1.217-.304.538.258.842.749.725 1.194zm-.748 1.965c-.14.398-.609.538-1.1.328-.492-.234-.772-.702-.655-1.1.14-.398.608-.515 1.1-.304.467.21.748.678.655 1.076zm-1.03 1.662c-.094.257-.374.35-.679.21-.304-.14-.468-.421-.374-.678.094-.258.398-.351.679-.211.304.14.468.421.374.679zm-1.966-4.517c-.514-.234-.795-.678-.655-1.076.14-.351.632-.468 1.147-.257.491.234.772.678.655 1.053-.14.374-.632.491-1.147.28zm.515 1.755c-.164.445-.725.585-1.287.351-.561-.257-.866-.772-.702-1.216.187-.398.726-.539 1.287-.328.538.234.843.749.702 1.193zm-.866 2.106c-.163.422-.678.585-1.193.375-.515-.234-.796-.726-.632-1.17.164-.398.679-.562 1.194-.351.514.234.795.702.631 1.146zm-1.076 1.849c-.094.28-.421.375-.749.258-.304-.141-.491-.445-.374-.726.117-.28.421-.374.749-.257.304.14.468.444.374.725zm-1.942-4.797c-.515-.21-.796-.679-.632-1.076.164-.375.679-.515 1.193-.305.492.211.773.679.632 1.053-.164.398-.678.539-1.193.328zm.351 1.778c-.187.422-.726.585-1.264.375-.538-.234-.795-.726-.632-1.147.188-.398.75-.561 1.264-.35.515.21.796.701.632 1.122zm-.96 2.27c-.187.421-.702.585-1.193.398-.491-.21-.749-.679-.562-1.1.164-.398.679-.561 1.17-.374.492.21.726.678.585 1.076zm-1.053 2.013c-.14.327-.538.468-.912.327-.375-.163-.562-.514-.421-.842.14-.351.538-.468.912-.328.375.164.538.515.421.843zm-1.638-2.855c-.14.304-.561.444-.959.304-.398-.164-.585-.515-.421-.819.164-.328.585-.445.96-.304.374.164.561.491.42.819zm-.795 2.223c-.21.421-.749.608-1.24.421-.515-.187-.726-.678-.539-1.1.211-.398.75-.585 1.24-.398.492.188.726.656.539 1.077zm-1.03 2.106c-.14.328-.538.468-.912.328-.375-.164-.562-.515-.422-.843.164-.351.562-.468.913-.327.374.163.538.514.421.842zM7.7 11.887c-.117.164-.398.21-.679.14-.28-.093-.398-.257-.304-.42.093-.188.398-.235.678-.141.281.094.398.257.305.421zM7.394 28.01c-.163.304-.561.445-.912.328-.351-.141-.492-.468-.351-.773.164-.304.561-.444.912-.327.351.14.492.444.351.772zm-.912 2.223c-.164.304-.538.445-.866.328-.328-.117-.445-.445-.304-.75.164-.28.538-.42.866-.303.327.117.444.444.304.725zm-2.2-17.854c-.117.14-.398.21-.678.14-.281-.07-.398-.234-.281-.398.117-.14.421-.21.678-.14.258.07.375.234.281.398zm-.374 19.07c-.14.258-.492.375-.772.282-.281-.094-.398-.375-.258-.632.14-.258.492-.375.772-.281.281.094.398.374.258.632zM5.803 12.8c.117-.163.421-.233.702-.14.281.094.398.281.304.445-.117.164-.42.234-.702.14-.28-.093-.42-.28-.304-.444zm.562-9.476c.117-.117.421-.164.725-.07.281.093.421.257.304.397-.117.117-.42.164-.725.07-.304-.093-.421-.257-.304-.397zm1.989 10.272c.14-.21.491-.28.819-.163.327.117.491.35.374.561-.117.21-.468.281-.819.164-.327-.117-.491-.351-.374-.562zm.257-9.477c.14-.163.515-.21.843-.093.35.117.514.327.397.491-.117.164-.491.187-.842.094-.351-.117-.515-.328-.398-.492zm1.966 8.729c-.14.234-.585.327-.983.187s-.608-.445-.468-.679c.14-.257.562-.327.983-.187.398.14.608.445.468.679zm-.304-6.74c.14-.14.491-.187.842-.07.351.117.515.351.398.515-.117.164-.468.21-.819.094-.351-.117-.538-.351-.421-.539zm.608-1.24c.14-.21.585-.234.983-.093.398.163.608.42.491.631-.14.188-.561.234-.983.094-.42-.164-.631-.421-.491-.632zm2.504 1.872c.444.164.655.468.538.702-.14.234-.585.281-1.03.117-.444-.164-.678-.468-.538-.702.14-.234.585-.28 1.03-.117zm-.398-1.123c.164-.21.632-.257 1.1-.07.468.187.702.515.561.749-.14.234-.631.28-1.1.093-.467-.187-.725-.515-.561-.772zm2.621 1.966c.444.187.678.514.561.748-.14.234-.585.281-1.029.117-.445-.187-.702-.514-.562-.748.117-.258.585-.305 1.03-.117zm-.21-.983c.116-.187.49-.21.865-.047.374.164.562.421.468.632-.117.187-.491.21-.866.047-.374-.164-.585-.445-.468-.632zm2.363 1.825c.468.21.748.562.631.842-.14.258-.608.328-1.1.117-.49-.21-.772-.585-.631-.865.14-.258.608-.305 1.1-.094zm-.258-.96c.117-.187.445-.21.772-.07.328.14.515.398.422.562-.094.164-.398.21-.749.07-.328-.14-.515-.398-.445-.561zm1.264 1.99c.14-.281.632-.328 1.123-.117.491.234.796.631.679.936-.117.304-.609.35-1.124.117-.514-.234-.819-.632-.678-.936zm.936-7.395c.187.07.304.187.28.281-.023.094-.187.117-.374.023-.187-.07-.304-.187-.28-.304.023-.07.187-.07.374 0zm.304 1.966c.047-.117.257-.117.491-.024.234.094.398.234.351.375-.046.117-.257.117-.491.023-.234-.093-.398-.257-.351-.374zm.515-.749c.047-.094.234-.094.421-.023.21.093.328.21.304.327-.023.117-.21.117-.421.024-.21-.094-.351-.211-.304-.328zm1.193 2.13c.304.116.492.327.468.49-.047.165-.304.188-.608.071s-.492-.328-.468-.491c.047-.14.304-.188.608-.07zm-.047-.726c.047-.117.258-.117.468-.047.234.094.375.234.351.351-.046.117-.234.14-.468.047-.234-.094-.374-.234-.35-.351zm.843 2.434c.07-.188.374-.188.678-.024.328.164.515.421.468.609-.07.187-.35.187-.678.023-.328-.164-.538-.421-.468-.608zm.515-.82c.046-.163.257-.163.491-.023.234.117.398.304.351.445-.047.14-.257.14-.491.023-.234-.117-.398-.304-.351-.444zm.28 3.815c.094-.258.539-.281 1.007-.07.468.234.748.608.678.889-.093.28-.515.327-1.006.093-.468-.234-.772-.631-.679-.912zm-.819-1.287c-.374-.187-.608-.492-.514-.679.093-.21.421-.21.795-.047.375.188.585.468.515.679-.094.21-.421.234-.796.047zm-.772.515c.07-.117.328-.14.562-.024.257.117.398.328.351.468-.047.14-.304.164-.562.047-.257-.117-.421-.328-.35-.491zm.913 1.872c-.117.28-.562.35-1.053.117-.492-.234-.796-.632-.679-.936.117-.258.562-.305 1.053-.094.492.234.772.632.679.913zm.491 2.527c-.585-.281-.936-.796-.819-1.147.117-.374.655-.444 1.24-.164.562.281.913.773.82 1.147-.118.374-.656.445-1.24.164zm-.491 1.31c-.538-.257-.866-.725-.749-1.1.117-.327.632-.397 1.147-.163.538.257.842.725.748 1.076-.117.351-.608.445-1.146.187zm-.515 1.615c-.632-.304-.983-.843-.866-1.264.164-.421.749-.515 1.357-.234.609.281.96.82.843 1.24-.14.422-.702.539-1.334.258zm-.515 1.685c-.655-.305-1.03-.89-.866-1.334.141-.445.75-.562 1.381-.281.632.304 1.006.866.866 1.31-.14.445-.749.585-1.38.305zm-1.31.35c.164-.42.725-.538 1.31-.28.585.28.913.819.796 1.24-.14.445-.702.585-1.31.304-.609-.28-.937-.819-.796-1.263zm-.96-1.66c-.444-.211-.725-.61-.608-.937.117-.304.562-.398 1.006-.187.445.21.702.585.609.913-.117.304-.562.397-1.007.21zm-1.24.608c.14-.305.609-.398 1.053-.211.468.21.726.632.609.96-.14.327-.585.444-1.053.233-.468-.21-.726-.631-.609-.982zm.562-5.57c.351.164.538.445.468.656-.094.21-.445.28-.796.117-.35-.164-.561-.445-.468-.656.094-.21.445-.257.796-.117zm1.31-.585c-.14.281-.608.351-1.1.14-.491-.233-.772-.608-.655-.912.117-.304.609-.35 1.1-.14.491.21.772.608.655.912zm1.077 3.768c-.117.327-.609.421-1.124.21-.514-.234-.795-.678-.678-1.006.14-.35.632-.421 1.123-.21.491.234.796.655.679 1.006zm-.164-2.364c.444.211.702.585.608.866-.117.281-.538.351-.983.14-.444-.21-.702-.584-.608-.865.117-.281.538-.328.983-.14zm.538-1.404c.515.258.842.679.725 1.007-.117.327-.631.397-1.17.163-.538-.257-.842-.702-.725-1.03.14-.327.655-.374 1.17-.14zm-.725-5.077c.046-.117.28-.164.561-.047s.468.304.421.444c-.046.14-.28.188-.561.07-.281-.116-.468-.304-.421-.467zm.07 2.48c-.07.164-.351.187-.632.047-.28-.14-.468-.351-.398-.515.07-.164.328-.187.632-.047.281.14.445.351.398.515zm-3.066 5.452c-.397-.187-.631-.515-.514-.772.117-.28.514-.351.912-.164.398.187.632.515.515.772-.117.258-.515.328-.913.164zm-.725 1.591c-.421-.187-.655-.538-.538-.819.14-.257.561-.327.96-.163.397.187.631.514.537.795-.117.281-.538.351-.959.187zm-.562 1.264c-.257-.117-.397-.328-.327-.515.117-.14.351-.187.608-.093.258.117.375.327.304.491-.07.187-.327.234-.585.117zm-1.263 1.31c.117-.257.468-.35.842-.21.351.14.538.468.445.725-.117.258-.468.351-.843.21-.35-.163-.561-.467-.444-.725zm.117-9.055c-.117.187-.468.234-.843.093-.374-.14-.561-.398-.444-.608.14-.187.491-.234.842-.094s.538.398.445.609zm.842.35c.14-.257.562-.304.983-.116.421.187.655.514.562.772-.117.257-.539.304-.983.117-.445-.187-.679-.515-.562-.772zm.164 3.37c-.117.234-.491.281-.866.14-.374-.163-.585-.444-.468-.678.117-.234.492-.28.866-.14.374.163.562.444.468.678zm-1.708 1.802c-.468-.187-.726-.585-.585-.89.14-.303.632-.397 1.1-.21.468.187.725.562.585.89-.14.304-.632.397-1.1.21zm-.89.725c.094-.163.352-.21.609-.117.257.117.398.328.304.492-.093.164-.35.234-.608.117s-.398-.328-.304-.492zm-.608-3.416c-.28-.117-.421-.328-.327-.491.093-.188.374-.234.655-.117.28.117.421.304.327.491-.093.164-.374.21-.655.117zm-.959 2.831c-.094.188-.398.258-.702.14-.304-.116-.445-.35-.351-.537.093-.188.398-.258.702-.14.28.116.444.327.351.537zm0-1.123c-.445-.164-.679-.491-.515-.772.14-.28.585-.351 1.03-.187.444.164.655.491.514.772-.14.257-.608.351-1.029.187zm12.074 8.494c-.117.422-.608.562-1.123.328-.515-.257-.819-.749-.725-1.17.14-.421.608-.538 1.123-.304.515.234.819.749.725 1.146zm.351 10.156c-.07.304-.398.468-.725.328-.328-.14-.515-.515-.445-.843.094-.327.398-.444.726-.304.327.14.514.515.444.819zm-.234-2.27c-.35-.163-.561-.538-.491-.865.093-.328.421-.445.772-.305.351.164.538.539.468.866-.07.328-.398.468-.749.304zm.632-3.58c.374.164.585.562.515.89-.07.35-.421.467-.796.304-.374-.164-.585-.562-.515-.913.094-.328.422-.445.796-.281zm.398-2.153c.374.187.608.562.538.89-.094.327-.421.444-.796.257-.374-.187-.608-.562-.538-.89.094-.304.421-.42.796-.257zm.444-2.059c.375.187.632.585.562.89-.094.327-.445.444-.842.257-.398-.188-.632-.585-.562-.913.094-.304.445-.421.842-.234zm1.17-.819c-.093.421-.561.538-1.076.304-.491-.234-.819-.749-.725-1.146.117-.398.585-.515 1.076-.281.491.234.819.725.725 1.123zm.609 9.664c-.117.468-.538.656-1.03.445-.491-.234-.795-.772-.702-1.24.094-.468.538-.632 1.03-.421.468.234.772.748.702 1.216zm-.562-1.989c-.491-.234-.819-.795-.725-1.24.093-.444.561-.608 1.053-.398.491.234.795.773.725 1.24-.093.445-.538.632-1.053.398zm.07-5.569c.094-.445.562-.562 1.077-.328.515.258.842.796.772 1.24-.094.422-.562.586-1.076.328-.515-.257-.866-.795-.773-1.24zm.656 1.755c.491.257.819.772.748 1.24-.07.445-.514.609-1.053.375-.514-.258-.842-.796-.748-1.264.093-.445.561-.585 1.053-.351zm-3.042-16.66c.397.21.655.537.608.771-.07.234-.445.258-.866.07-.421-.21-.678-.538-.608-.795.07-.21.444-.234.866-.047zm.257-.96c.281.14.468.398.445.561-.047.164-.305.188-.585.024-.281-.164-.468-.398-.445-.562.047-.14.304-.164.585-.023zm.866 1.989c.07-.187.398-.21.749-.024.35.188.608.492.538.702-.07.211-.398.234-.749.047-.374-.187-.608-.491-.538-.725zm1.825.936c.047-.21.374-.234.749-.047.374.187.608.515.585.725-.047.234-.375.258-.749.07-.374-.187-.632-.514-.585-.748zm1.03-1.077c.327.188.561.468.538.656-.047.187-.351.21-.679.046-.35-.187-.561-.468-.538-.678.047-.164.351-.187.679-.024zm.304-.936c.28.164.491.398.468.562-.047.164-.281.164-.585.023-.304-.163-.492-.397-.468-.561.047-.164.28-.164.585-.024zm.257-.912c.258.14.445.35.421.491-.046.164-.257.14-.538 0-.257-.14-.444-.35-.421-.515.047-.117.281-.117.538.024zm-.257-.82c.047-.14.257-.116.491 0 .234.141.421.305.398.469-.023.14-.234.117-.491 0-.258-.14-.422-.328-.398-.468zm.304-.771c.023-.14.21-.117.421 0s.375.28.351.397c-.023.117-.21.094-.421 0-.21-.117-.374-.28-.351-.397zm.234-.679c.023-.117.187-.094.398.023.21.117.351.258.327.375-.023.117-.187.093-.397-.024-.211-.117-.351-.257-.328-.374zm.608-.655c.188.093.305.234.281.327-.023.094-.164.07-.35-.023-.188-.094-.305-.234-.282-.328.024-.093.164-.07.351.024zm.936 2.036c.305.163.515.42.515.585-.023.163-.28.163-.608 0-.304-.164-.538-.422-.515-.585.047-.188.304-.164.608 0zm.117-.773c.281.164.492.351.468.539-.023.163-.257.14-.538-.024-.28-.164-.491-.374-.468-.538.024-.164.258-.14.538.023zm-.35-.842c.023-.117.233-.094.467.047.234.14.422.304.398.444-.023.14-.234.117-.468-.023-.257-.14-.421-.304-.398-.468zm.163-.702c.024-.14.211-.094.421.023.234.117.398.281.375.422-.024.117-.21.093-.421-.024-.234-.14-.398-.28-.375-.421zm.164-.749c.023-.093.187-.07.374.047.188.117.328.234.328.351-.023.117-.164.07-.374-.047-.188-.117-.351-.257-.328-.35zm.164-.678c.023-.094.14-.047.327.046.164.094.305.211.281.305-.023.093-.14.046-.327-.047-.164-.094-.305-.21-.281-.304zm.983 5.943c-.234-.117-.422-.304-.398-.468.047-.14.234-.117.468 0 .234.14.398.328.374.468 0 .14-.21.117-.444 0zm-.492.468c.024-.164.234-.164.492-.023.257.14.444.35.421.515-.024.163-.234.163-.492.023-.257-.14-.444-.351-.42-.515zm.468.96c.281.163.468.397.445.585-.024.163-.258.187-.538.023-.281-.164-.492-.421-.468-.585.046-.164.28-.164.561-.023zm-.164 1.731c-.327-.187-.561-.468-.538-.678.024-.211.304-.211.632-.047.328.187.562.468.538.678-.023.188-.304.211-.632.047zm.024.351c.351.21.608.515.585.749-.047.234-.328.257-.702.07-.351-.187-.609-.515-.585-.749.047-.234.351-.257.702-.07zm-1.334-4.282c-.328-.187-.585-.468-.538-.655.047-.164.327-.164.655.023s.562.468.538.632c-.023.187-.304.187-.655 0zm-.14.96c-.375-.188-.609-.515-.585-.703.046-.21.35-.21.702-.023.35.187.608.491.585.702-.024.21-.351.21-.702.023zm.491 2.059c-.047.257-.398.28-.842.07-.422-.234-.726-.609-.679-.843.07-.257.421-.28.842-.07.422.234.702.585.679.843zm-.655-1.007c-.398-.21-.679-.561-.632-.772.047-.234.374-.234.772-.047.375.211.655.539.632.773-.047.234-.374.257-.772.046zm1.895-2.62c.211.117.375.28.351.42 0 .141-.187.118-.398 0-.21-.116-.35-.28-.35-.42.023-.14.187-.117.397 0zm.047-.82c.187.118.328.258.328.352-.024.14-.164.117-.375 0-.187-.117-.327-.258-.327-.375.023-.117.187-.093.374.024zm.047-.818c.164.093.28.21.304.327-.023.094-.164.07-.328-.023-.187-.094-.304-.234-.304-.328.024-.093.164-.07.328.024zm1.31 7.44c.351.188.609.492.585.726-.023.234-.304.281-.655.094-.351-.187-.608-.515-.585-.749.023-.21.304-.257.655-.07zm1.732 2.083c.421.234.749.632.749.936 0 .305-.351.375-.796.14-.445-.233-.772-.654-.749-.959.024-.304.375-.35.796-.117zm.07-1.17c.374.188.655.562.655.843-.023.257-.327.304-.702.093-.374-.21-.655-.585-.655-.842.023-.257.328-.304.702-.094zm.047-1.053c.28.164.515.445.515.632-.024.21-.258.234-.562.07-.304-.187-.515-.468-.515-.655.024-.187.258-.21.562-.047zm1.614 4.493c.422.234.75.679.773 1.006-.024.328-.351.398-.796.164-.445-.234-.772-.678-.772-1.006.023-.328.351-.398.795-.164zm.422-.561c-.024.163-.188.187-.422.07-.234-.117-.397-.351-.397-.515 0-.164.163-.187.397-.07.234.117.422.35.422.515zm-.398-1.872c.304.163.538.444.515.678 0 .21-.234.258-.539.094-.304-.164-.538-.468-.538-.679.024-.234.258-.257.562-.093zm.023-1.194c.328.187.585.492.609.726-.024.21-.281.257-.609.07-.327-.187-.585-.492-.585-.726 0-.21.258-.234.585-.07zm0-1.03c.281.164.515.422.515.632 0 .188-.21.211-.515.047-.28-.164-.515-.444-.515-.632 0-.187.234-.21.515-.046zm1.685 18.089c.421.257.725.796.749 1.217-.024.468-.351.608-.772.374-.445-.257-.749-.795-.749-1.24.023-.445.351-.585.772-.351zm-.304-3.861c0-.187.164-.257.374-.14.211.117.375.374.375.585 0 .187-.164.257-.375.14-.21-.14-.374-.374-.374-.585zm.327 1.849c.305.187.539.538.539.842 0 .304-.234.398-.539.234-.304-.187-.538-.538-.538-.842 0-.305.234-.398.538-.234zm.047-3.885c.351.187.632.609.632.913 0 .327-.28.42-.632.234-.35-.211-.632-.609-.632-.936.024-.305.281-.398.632-.211zm.702-.89c0 .305-.257.399-.608.211-.351-.21-.609-.585-.609-.889 0-.304.258-.374.609-.187.327.187.585.562.608.866zm-.702-1.614c-.304-.164-.538-.491-.538-.749 0-.234.234-.304.538-.14.304.164.538.491.538.725 0 .258-.234.328-.538.164zm-.14-9.781c.234.117.398.304.398.445 0 .163-.164.163-.398.046-.21-.117-.398-.304-.398-.468 0-.14.187-.14.398-.023zm.093 1.661c-.257-.14-.468-.397-.468-.561 0-.164.211-.187.468-.047.258.14.468.398.445.562.023.163-.187.187-.445.046zm-.397.562c0-.164.163-.164.374-.047.21.14.374.328.398.468 0 .164-.164.164-.375.047-.21-.117-.397-.304-.397-.468zm.421 2.387c.257.14.444.398.444.585 0 .187-.187.234-.444.093-.234-.14-.445-.397-.445-.585 0-.187.187-.234.445-.093zm1.521-3.253c-.187-.117-.351-.257-.351-.398 0-.117.117-.117.304-.023.187.117.328.28.351.398 0 .117-.117.117-.304.023zm.772 4.82c.023.235-.187.281-.468.118-.257-.164-.491-.445-.491-.656 0-.21.187-.234.468-.093.28.164.491.444.491.632zm1.615 7.465c-.211-.14-.398-.397-.398-.608 0-.21.164-.258.374-.14.211.117.375.397.398.608 0 .21-.164.28-.374.14zm-.726-4.048c0-.234.211-.304.492-.14.28.163.514.491.538.748 0 .234-.21.305-.492.14-.28-.186-.514-.49-.538-.748zm.913 7.792c-.234-.163-.421-.444-.421-.678 0-.234.163-.304.374-.164.234.14.398.421.421.679.024.234-.14.304-.374.163zm-.094-1.591c-.327-.21-.608-.655-.632-.983 0-.35.258-.444.585-.234.328.21.609.632.632.983 0 .328-.234.445-.585.234zm1.17-8.424c.375.21.679.632.702.913.024.304-.234.374-.608.163-.351-.234-.679-.631-.702-.936-.024-.28.234-.35.608-.14zm.234 2.574c-.35-.21-.632-.608-.655-.89-.023-.303.234-.35.562-.163.35.187.608.585.655.89.023.303-.21.374-.562.163zm1.006 6.81c.024.304-.187.397-.491.21-.28-.21-.538-.608-.562-.912-.023-.305.188-.398.492-.211.304.187.561.585.561.913zm.445-8.331c.328.21.608.585.632.866.023.28-.187.327-.515.14-.328-.21-.585-.585-.632-.866-.047-.28.187-.327.515-.14zM0 51.597h51.597V0H0v51.597z"/>
    </g>
</svg>
