<svg xmlns="http://www.w3.org/2000/svg" xmlns:xlink="http://www.w3.org/1999/xlink" width="191" height="191" viewBox="0 0 191 191">
    <defs>
        <linearGradient id="prefix__c" x1="99.975%" x2=".025%" y1="100%" y2="0%">
            <stop offset="0%" stop-color="#0C9EE2"/>
            <stop offset="100%" stop-color="#06E8A7"/>
        </linearGradient>
        <filter id="prefix__a" width="204.5%" height="204.4%" x="-52.2%" y="-52.2%" filterUnits="objectBoundingBox">
            <feOffset in="SourceAlpha" result="shadowOffsetOuter1"/>
            <feGaussianBlur in="shadowOffsetOuter1" result="shadowBlurOuter1" stdDeviation="19.5"/>
            <feColorMatrix in="shadowBlurOuter1" values="0 0 0 0 0.063 0 0 0 0 0.114 0 0 0 0 0.443 0 0 0 0.0767864948 0"/>
        </filter>
        <path id="prefix__b" d="M26.96 68.645l.386 4.54c.84.275 1.659.612 2.45 1.008l3.5-2.922 7.437 7.448-2.922 3.5c.407.788.754 1.606 1.039 2.446l4.55.41v10.528l-4.55.406c-.275.84-.612 1.659-1.008 2.45l2.922 3.5-7.444 7.447-3.5-2.925c-.79.396-1.61.733-2.45 1.008l-.41 4.55H16.437l-.406-4.55c-.84-.276-1.66-.613-2.45-1.008l-3.5 2.922-7.444-7.448 2.922-3.5c-.397-.79-.734-1.61-1.008-2.45L0 95.595v-10.52l4.55-.407c.275-.84.612-1.659 1.008-2.45l-2.922-3.5 7.43-7.44 3.5 2.925c.79-.396 1.61-.733 2.45-1.008l.41-4.55H26.96zM107.71 0l-4.732 9.45v6.808h9.033V34.32h-9.04v4.995l4.728 9.45h-20.3l4.729-9.45V34.32H87.51c-1.284 2.224-3.654 3.596-6.223 3.602h-.399l-6.555 26.25 26.828 16.1v13.65h2.936l3.612 7.227h4.301V112H54.204v-10.85h4.302l3.612-7.214h2.527l-2.922-14.623c-5.648.878-11.279-1.671-14.346-6.493s-2.99-11.002.198-15.745l5.968-19.139h-1.155c-3.99-.003-7.224-3.237-7.227-7.227h-9.02v7.228H9.044C4.057 37.93.016 33.89.01 28.903v-1.806h19.87v-3.612H.01v-1.806c.006-4.987 4.047-9.028 9.034-9.033h27.097v7.223h9.02c.005-3.992 3.245-7.225 7.237-7.223h28.893c2.569.008 4.939 1.385 6.22 3.611h4.627V9.45L87.409 0h20.3zm-84.06 72.24h-3.923l-.35 3.756-1.242.315c-1.355.34-2.652.878-3.85 1.595l-1.1.658-2.897-2.421-2.773 2.775 2.419 2.894-.658 1.103c-.718 1.198-1.256 2.495-1.596 3.85l-.315 1.242-3.756.35v3.924l3.756.35.315 1.243c.342 1.354.88 2.65 1.596 3.85l.658 1.102-2.418 2.895 2.772 2.775 2.897-2.418 1.1.657c1.198.718 2.495 1.255 3.85 1.597l1.242.315.35 3.755h3.902l.35-3.755 1.243-.316c1.354-.34 2.651-.878 3.85-1.596l1.099-.657 2.898 2.421 2.772-2.775-2.419-2.895.659-1.102c.718-1.198 1.255-2.495 1.596-3.85l.314-1.242 3.756-.35.021-3.924-3.756-.35-.315-1.242c-.342-1.355-.88-2.652-1.596-3.85l-.657-1.103 2.418-2.895-2.772-2.775-2.898 2.418-1.099-.657c-1.199-.718-2.496-1.255-3.85-1.596L24 75.995l-.35-3.755zm84.75 32.532H57.816v3.612h50.579l.004-3.612zM21.7 79.486c5.992 0 10.85 4.858 10.85 10.85s-4.858 10.85-10.85 10.85-10.85-4.858-10.85-10.85 4.858-10.85 10.85-10.85zm80.16 18.053H64.352l-1.806 3.612h41.121l-1.805-3.612zM21.703 83.101c-3.988 0-7.222 3.234-7.222 7.222-.001 3.99 3.231 7.224 7.22 7.226 3.99-.004 7.224-3.238 7.227-7.228-.001-3.989-3.236-7.221-7.225-7.22zm75.853.955l-22.197 9.867h22.197v-9.867zm-8.379-6.772l.102.227-22.19 10.241 1.085 5.422 27.279-12.125-6.275-3.766zm-15.42-9.255c-.992 4.632-4.182 8.483-8.544 10.322l1.151 5.754 19.324-8.918-11.931-7.157zM59.633 54.18c-5.992 0-10.85 4.858-10.85 10.85.002 5.994 4.86 10.85 10.85 10.85 5.992 0 10.85-4.858 10.85-10.85s-4.858-10.85-10.85-10.85zm1.799 5.432l.01 3.626h3.613v3.612h-3.627v3.612h-3.611v-3.626h-3.612v-3.612h3.615v-3.612h3.612zM23.492 56v3.612H19.88V56h3.612zm53.694-18.078H57.34l-4.48 14.35c6.903-3.677 15.478-1.178 19.324 5.632l5.002-19.982zm-53.694 10.85v3.613H19.88v-3.612h3.612zm0-7.224v3.612H19.88V41.55h3.612zm76.563-.01h-4.992l-1.806 3.612h8.603l-1.805-3.612zm-.69-7.217h-3.612v3.602h3.612V34.32zm-66.84-3.612H3.93c.77 2.165 2.817 3.611 5.114 3.612h23.482v-3.612zm48.777-14.473H52.398c-1.994.002-3.61 1.618-3.612 3.613v10.85c.002 1.994 1.618 3.61 3.612 3.611h28.904c1.994-.001 3.61-1.617 3.611-3.612v-10.85c-.001-1.994-1.617-3.61-3.611-3.611zm27.093 10.861h-19.87v3.612h19.87v-3.612zm-48.772-7.228c2.99.004 5.414 2.428 5.417 5.419 0 2.992-2.425 5.418-5.418 5.418-2.992 0-5.417-2.426-5.417-5.418 0-2.993 2.425-5.419 5.418-5.419zm14.451 0c2.99.004 5.414 2.428 5.418 5.419 0 2.992-2.426 5.418-5.418 5.418s-5.418-2.426-5.418-5.418c0-2.993 2.426-5.419 5.418-5.419zm-28.913 3.616H23.494v3.608h12.643l9.023.004v-3.612zm14.462 0c-.998 0-1.806.809-1.806 1.806s.808 1.806 1.806 1.806c.996-.002 1.804-.81 1.806-1.806 0-.997-.81-1.806-1.806-1.806zm14.451 0c-.997 0-1.806.809-1.806 1.806s.809 1.806 1.806 1.806c.997-.002 1.804-.81 1.806-1.806 0-.997-.809-1.806-1.806-1.806zm14.451-3.616v3.616h19.873v-3.601l-19.873-.015zm-56-3.611H9.041c-2.296.002-4.342 1.448-5.11 3.611h28.595v-3.611zm66.84-5.408h-3.612v5.408h3.612V10.85zm2.496-7.238h-8.604l1.806 3.612h4.992l1.805-3.612z"/>
    </defs>
    <g fill="none" transform="matrix(-1 0 0 1 152 39)">
        <use fill="#000" filter="url(#prefix__a)" xlink:href="#prefix__b"/>
        <use fill="url(#prefix__c)" xlink:href="#prefix__b"/>
    </g>
</svg>
