<svg xmlns="http://www.w3.org/2000/svg" width="17" height="18" viewBox="0 0 17 18">
    <path fill="#FFF" d="M7.872 17.71h.716c.962-.003 1.805-.63 2.065-1.536.107-.374-.116-.761-.498-.866-.382-.104-.779.114-.886.488-.089.312-.385.523-.716.511h-.717c-.331.012-.628-.2-.717-.511l-.33-1.172c-.093-.385-.348-.713-.702-.904-.115-.05-.23-.112-.344-.175-.115-.064-.223-.134-.33-.204-.343-.243-.78-.325-1.19-.224l-1.212.301c-.31.077-.635-.058-.795-.33l-.344-.581c-.162-.273-.118-.617.107-.842l.875-.862c.28-.3.413-.705.365-1.108-.021-.264-.021-.529 0-.793.037-.406-.11-.808-.401-1.1l-.875-.87c-.224-.225-.268-.57-.107-.842l.344-.582c.16-.274.49-.41.803-.33l1.211.302c.406.099.835.02 1.176-.217.227-.15.467-.281.717-.393.356-.185.616-.508.716-.89l.337-1.186c.09-.312.386-.523.717-.512h.717c.331-.011.628.2.717.512l.287 1.171c.117.406.414.738.81.905.114.056.236.112.344.175.107.064.222.134.33.204.343.243.778.325 1.19.224l1.197-.301c.31-.077.635.058.795.33l.344.581c.162.273.118.617-.107.842l-.875.862c-.293.294-.44.7-.401 1.108.022.264.022.529 0 .793-.037.406.11.808.401 1.1l.882.877c.225.225.269.57.107.842l-.344.582c-.16.274-.49.41-.802.33-.384-.098-.776.129-.875.504-.099.376.132.759.516.856.937.236 1.92-.169 2.402-.989l.344-.59c.47-.813.336-1.832-.33-2.503l-.875-.87c.032-.34.032-.682 0-1.023l.875-.912c.673-.672.808-1.7.33-2.517l-.344-.582c-.484-.815-1.462-1.216-2.395-.982l-1.211.302c-.146-.104-.296-.2-.452-.288-.148-.084-.3-.161-.459-.231l-.35-1.171C10.365 1.512 9.518.88 8.552.88h-.717c-.962.003-1.805.63-2.065 1.536L5.434 3.6c-.32.141-.627.31-.917.505L3.305 3.81c-.934-.233-1.913.172-2.394.989l-.344.582c-.482.819-.347 1.85.33 2.525l.889.876c-.031.34-.031.683 0 1.024l-.868.89c-.68.675-.815 1.712-.33 2.532l.345.582c.483.815 1.461 1.216 2.394.982l1.211-.302c.146.104.296.2.452.288.15.084.3.161.459.231l.344 1.171c.264.908 1.113 1.533 2.079 1.529zM4.653 9.295c0-1.936 1.605-3.506 3.584-3.506 1.98 0 3.584 1.57 3.584 3.506 0 1.936-1.604 3.506-3.584 3.506s-3.584-1.57-3.584-3.506zm1.434 0c0 1.162.962 2.104 2.15 2.104s2.15-.942 2.15-2.104c0-1.162-.962-2.104-2.15-2.104s-2.15.942-2.15 2.104z"/>
</svg>
